<svg xmlns="http://www.w3.org/2000/svg" width="240.618" height="293.282" viewBox="0 0 240.618 293.282">
  <g id="Group_3255" data-name="Group 3255" transform="translate(5220.238 -3449.844)">
    <g id="Group_3253" data-name="Group 3253">
      <rect id="Rectangle_744" data-name="Rectangle 744" width="0.888" height="101.066" transform="matrix(0.996, -0.095, 0.095, 0.996, -5121.949, 3642.513)" fill="#feb937"/>
      <path id="Path_1400" data-name="Path 1400" d="M96.792,172.85a45.069,45.069,0,0,0-1.147,7.288c.093.022,1.666.269,5.266-.892,3.539-1.139,4.492-2.1,4.574-2.2a31.3,31.3,0,0,0-5.146-5.334c12.451-7.381,51.349-56.149,32.849-115.061C120.325,15.683,81-8.456,45.348,2.739S-8.771,56.218,4.092,97.189C22.993,157.385,82.491,174.059,96.792,172.85Z" transform="matrix(0.978, 0.208, -0.208, 0.978, -5182.777, 3449.844)" fill="#feb937"/>
      <rect id="Rectangle_745" data-name="Rectangle 745" width="71.276" height="0.887" transform="translate(-5075.51 3737.973) rotate(-80.853)" fill="#00d6ad"/>
      <path id="Path_1401" data-name="Path 1401" d="M137.46,315.226a45.072,45.072,0,0,0-4.288,6.007c.073.059,1.371.984,5.109,1.559,3.674.564,4.958.129,5.073.079a31.053,31.053,0,0,0-2.215-7.072c14.439-1.029,71.046-27.241,80.863-88.2,6.826-42.4-17.543-81.578-54.436-87.521s-72.33,23.612-79.156,66.009C78.38,268.376,124.129,309.909,137.46,315.226Z" transform="translate(-5202.769 3348.493)" fill="#fe6684"/>
      <path id="Path_1402" data-name="Path 1402" d="M129.165,144.753s-30.746,14.893-36.332,49.585,6.769,59.674,16.946,78.637C109.779,272.975,83.674,202.313,129.165,144.753Z" transform="translate(-5194.731 3358.303)" fill="#fff"/>
    </g>
  </g>
</svg>
