<svg xmlns="http://www.w3.org/2000/svg" width="339.057" height="413.267" viewBox="0 0 339.057 413.267">
  <g id="Group_3254" data-name="Group 3254" transform="translate(5423.015 -4326.5)">
    <rect id="Rectangle_748" data-name="Rectangle 748" width="1.251" height="142.413" transform="matrix(-0.996, -0.095, 0.095, -0.996, -5235.928, 4739.767)" fill="#feb937"/>
    <path id="Path_1411" data-name="Path 1411" d="M136.391,10.322A63.507,63.507,0,0,1,134.775.052c.13-.032,2.347-.379,7.421,1.257,4.987,1.6,6.33,2.96,6.445,3.1a44.108,44.108,0,0,1-7.251,7.516c17.545,10.4,72.356,79.121,46.288,162.134C169.552,231.787,114.14,265.8,63.9,250.028s-76.26-75.359-58.134-133.09C32.4,32.115,116.238,8.619,136.391,10.322Z" transform="matrix(-0.978, 0.208, -0.208, -0.978, -5083.958, 4574.838)" fill="#feb937"/>
    <path id="Path_1412" data-name="Path 1412" d="M0,0H100.435V1.251H0Z" transform="matrix(-0.159, -0.987, 0.987, -0.159, -5289.13, 4732.704)" fill="#00d6ad"/>
    <path id="Path_1413" data-name="Path 1413" d="M207.73,387.193a63.51,63.51,0,0,1,6.042,8.464c-.1.083-1.932,1.387-7.2,2.2-5.176.794-6.986.182-7.148.111A43.756,43.756,0,0,1,202.546,388C182.2,386.548,102.435,349.614,88.6,263.712c-9.618-59.743,24.721-114.953,76.706-123.326S267.228,173.658,276.845,233.4C290.98,321.175,226.515,379.7,207.73,387.193Z" transform="translate(-5510 4240.682)" fill="#fe6684"/>
    <path id="Path_1414" data-name="Path 1414" d="M91.44,144.753s43.324,20.986,51.2,69.87-9.539,84.088-23.879,110.808C118.757,325.431,155.542,225.861,91.44,144.753Z" transform="translate(-5393.348 4256.729)" fill="#fff"/>
  </g>
</svg>
