<svg id="Group_1822" data-name="Group 1822" xmlns="http://www.w3.org/2000/svg" xmlns:xlink="http://www.w3.org/1999/xlink" width="388.035" height="336.188" viewBox="0 0 388.035 336.188">
  <defs>
    <linearGradient id="linear-gradient" x1="0.5" y1="1" x2="0.5" gradientUnits="objectBoundingBox">
      <stop offset="0" stop-color="gray" stop-opacity="0.251"/>
      <stop offset="0.54" stop-color="gray" stop-opacity="0.122"/>
      <stop offset="1" stop-color="gray" stop-opacity="0.102"/>
    </linearGradient>
    <linearGradient id="linear-gradient-2" x1="0.5" y1="1" x2="0.5" y2="0" xlink:href="#linear-gradient"/>
    <linearGradient id="linear-gradient-3" x1="0.5" y1="1" x2="0.5" y2="0" xlink:href="#linear-gradient"/>
    <linearGradient id="linear-gradient-4" x1="0.5" x2="0.5" y2="1" gradientUnits="objectBoundingBox">
      <stop offset="0" stop-color="#eccf66"/>
      <stop offset="1" stop-color="#c59402"/>
    </linearGradient>
  </defs>
  <g id="Group_972" data-name="Group 972" transform="translate(0)">
    <g id="Group_964" data-name="Group 964" transform="translate(53.826 59.883)" opacity="0.5">
      <rect id="Rectangle_350" data-name="Rectangle 350" width="1.54" height="8.725" transform="translate(3.593)" fill="#47e6b1"/>
      <rect id="Rectangle_351" data-name="Rectangle 351" width="1.54" height="8.725" transform="translate(8.725 3.593) rotate(90)" fill="#47e6b1"/>
    </g>
    <g id="Group_965" data-name="Group 965" transform="translate(108.553 249.774)" opacity="0.5">
      <rect id="Rectangle_352" data-name="Rectangle 352" width="1.54" height="8.725" transform="translate(3.597)" fill="#47e6b1"/>
      <rect id="Rectangle_353" data-name="Rectangle 353" width="1.54" height="8.725" transform="translate(8.725 3.593) rotate(90)" fill="#47e6b1"/>
    </g>
    <g id="Group_966" data-name="Group 966" transform="translate(31.946 148.424)" opacity="0.5">
      <rect id="Rectangle_354" data-name="Rectangle 354" width="1.54" height="8.725" transform="translate(3.593)" fill="#47e6b1"/>
      <rect id="Rectangle_355" data-name="Rectangle 355" width="1.54" height="8.725" transform="translate(8.725 3.593) rotate(90)" fill="#47e6b1"/>
    </g>
    <g id="Group_967" data-name="Group 967" transform="translate(301.514)" opacity="0.5">
      <rect id="Rectangle_356" data-name="Rectangle 356" width="1.54" height="8.725" transform="translate(3.593)" fill="#47e6b1"/>
      <rect id="Rectangle_357" data-name="Rectangle 357" width="1.54" height="8.725" transform="translate(8.725 3.593) rotate(90)" fill="#47e6b1"/>
    </g>
    <g id="Group_968" data-name="Group 968" transform="translate(41.702 21.7)" opacity="0.5">
      <rect id="Rectangle_358" data-name="Rectangle 358" width="1.54" height="8.725" transform="translate(3.597)" fill="#47e6b1"/>
      <rect id="Rectangle_359" data-name="Rectangle 359" width="1.54" height="8.725" transform="translate(8.725 3.593) rotate(90)" fill="#47e6b1"/>
    </g>
    <path id="Path_706" data-name="Path 706" d="M338.106,555.185a1.887,1.887,0,0,1-1.05-2.28.927.927,0,0,0,.042-.208h0a.925.925,0,0,0-1.7-.629h0a.923.923,0,0,0-.106.185,1.887,1.887,0,0,1-2.28,1.05.9.9,0,0,0-.208-.042h0a.925.925,0,0,0-.629,1.7h0a.926.926,0,0,0,.185.106,1.887,1.887,0,0,1,1.05,2.28.926.926,0,0,0-.042.208h0a.925.925,0,0,0,1.7.629h0a.917.917,0,0,0,.106-.185,1.886,1.886,0,0,1,2.28-1.05.923.923,0,0,0,.208.042h0a.925.925,0,0,0,.629-1.7h0A.931.931,0,0,0,338.106,555.185Z" transform="translate(-261.767 -336.548)" fill="#4d8af0" opacity="0.5"/>
    <path id="Path_707" data-name="Path 707" d="M321.611,734.535a1.886,1.886,0,0,1-1.05-2.279.922.922,0,0,0,.042-.208h0a.925.925,0,0,0-1.7-.629h0a.924.924,0,0,0-.106.185,1.887,1.887,0,0,1-2.275,1.054.925.925,0,0,0-.208-.042h0a.925.925,0,0,0-.629,1.7h0a.934.934,0,0,0,.185.106,1.886,1.886,0,0,1,1.05,2.279.927.927,0,0,0-.042.208h0a.925.925,0,0,0,1.7.629h0a.921.921,0,0,0,.106-.185,1.887,1.887,0,0,1,2.28-1.05.906.906,0,0,0,.208.042h0a.925.925,0,0,0,.629-1.7h0A.934.934,0,0,0,321.611,734.535Z" transform="translate(-252.902 -432.97)" fill="#4d8af0" opacity="0.5"/>
    <path id="Path_708" data-name="Path 708" d="M928.611,337.535a1.886,1.886,0,0,1-1.05-2.279.92.92,0,0,0,.042-.208h0a.925.925,0,0,0-1.7-.629h0a.933.933,0,0,0-.107.185,1.886,1.886,0,0,1-2.275,1.054.926.926,0,0,0-.208-.042h0a.925.925,0,0,0-.629,1.7h0a.929.929,0,0,0,.185.106,1.887,1.887,0,0,1,1.05,2.279.924.924,0,0,0-.042.208h0a.925.925,0,0,0,1.7.629h0a.917.917,0,0,0,.106-.185,1.886,1.886,0,0,1,2.279-1.05.922.922,0,0,0,.208.042h0a.925.925,0,0,0,.629-1.7h0A.928.928,0,0,0,928.611,337.535Z" transform="translate(-579.236 -219.535)" fill="#4d8af0" opacity="0.5"/>
    <path id="Path_709" data-name="Path 709" d="M901.136,526.875a1.887,1.887,0,0,1-1.05-2.28.921.921,0,0,0,.042-.208h0a.925.925,0,0,0-1.7-.629h0a.932.932,0,0,0-.106.185,1.887,1.887,0,0,1-2.28,1.05.928.928,0,0,0-.208-.042h0a.925.925,0,0,0-.629,1.7h0a.923.923,0,0,0,.185.106,1.886,1.886,0,0,1,1.05,2.279.92.92,0,0,0-.042.208h0a.925.925,0,0,0,1.7.629h0a.923.923,0,0,0,.106-.185,1.887,1.887,0,0,1,2.28-1.05.924.924,0,0,0,.208.042h0a.925.925,0,0,0,.629-1.7h0A.929.929,0,0,0,901.136,526.875Z" transform="translate(-564.462 -321.328)" fill="#4d8af0" opacity="0.5"/>
    <path id="Path_710" data-name="Path 710" d="M921.606,149.545a1.887,1.887,0,0,1-1.05-2.28.941.941,0,0,0,.042-.208h0a.925.925,0,0,0-1.7-.629h0a.929.929,0,0,0-.106.185,1.887,1.887,0,0,1-2.28,1.05.927.927,0,0,0-.208-.042h0a.925.925,0,0,0-.629,1.7h0a.918.918,0,0,0,.185.106,1.886,1.886,0,0,1,1.049,2.28.945.945,0,0,0-.042.208h0a.925.925,0,0,0,1.7.629h0a.916.916,0,0,0,.106-.185,1.887,1.887,0,0,1,2.279-1.05.926.926,0,0,0,.208.042h0a.925.925,0,0,0,.629-1.7h0A.927.927,0,0,0,921.606,149.545Z" transform="translate(-575.467 -118.468)" fill="#4d8af0" opacity="0.5"/>
    <path id="Path_711" data-name="Path 711" d="M985.826,641.595a1.887,1.887,0,0,1-1.05-2.28.936.936,0,0,0,.042-.208h0a.925.925,0,0,0-1.7-.629h0a.916.916,0,0,0-.106.185,1.886,1.886,0,0,1-2.28,1.05.927.927,0,0,0-.208-.042h0a.925.925,0,0,0-.629,1.7h0a.921.921,0,0,0,.185.106,1.887,1.887,0,0,1,1.05,2.28.921.921,0,0,0-.042.208h0a.925.925,0,0,0,1.7.629h0a.928.928,0,0,0,.107-.185,1.886,1.886,0,0,1,2.279-1.049.935.935,0,0,0,.208.042h0a.925.925,0,0,0,.629-1.7h0A.939.939,0,0,0,985.826,641.595Z" transform="translate(-609.993 -383.003)" fill="#4d8af0" opacity="0.5"/>
    <circle id="Ellipse_363" data-name="Ellipse 363" cx="3.079" cy="3.079" r="3.079" transform="translate(0 116.113)" fill="#f55f44" opacity="0.5"/>
    <circle id="Ellipse_364" data-name="Ellipse 364" cx="3.079" cy="3.079" r="3.079" transform="translate(343.628 64.47)" fill="#f55f44" opacity="0.5"/>
    <circle id="Ellipse_365" data-name="Ellipse 365" cx="3.468" cy="3.468" r="3.468" transform="translate(203.18 179.617)" fill="#f55f44" opacity="0.5"/>
    <circle id="Ellipse_366" data-name="Ellipse 366" cx="3.468" cy="3.468" r="3.468" transform="translate(203.18 179.617)" fill="#f55f44" opacity="0.5"/>
    <circle id="Ellipse_367" data-name="Ellipse 367" cx="3.079" cy="3.079" r="3.079" transform="translate(381.876 157.062)" fill="#f55f44" opacity="0.5"/>
    <circle id="Ellipse_368" data-name="Ellipse 368" cx="3.468" cy="3.468" r="3.468" transform="translate(132.551 18.389)" fill="#47e6b1" opacity="0.5"/>
    <circle id="Ellipse_369" data-name="Ellipse 369" cx="3.079" cy="3.079" r="3.079" transform="translate(330.524 284.249)" fill="#f55f44" opacity="0.5"/>
    <path id="Path_712" data-name="Path 712" d="M486.447,468a14.27,14.27,0,0,0,6.256,16.017c2.238,1.3,4.813,1.961,6.982,3.375,4.712,3.07,6.57,8.947,8.1,14.357,1.757,6.219,3.519,12.794,1.91,19.05-1.026,3.99-3.361,7.518-4.688,11.421a23.83,23.83,0,0,0-1.133,10.172,8.677,8.677,0,0,0,1.9,5.058c1.8,1.942,4.707,2.233,7.315,2.7a35.5,35.5,0,0,1,25.524,19.762" transform="translate(-344.634 -291.583)" fill="none" stroke="#707070" stroke-miterlimit="10" stroke-width="2"/>
    <path id="Path_713" data-name="Path 713" d="M487.657,468a14.27,14.27,0,0,0,6.256,16.017c2.238,1.3,4.813,1.961,6.982,3.375,4.712,3.07,6.57,8.947,8.1,14.357,1.757,6.219,3.519,12.794,1.91,19.05-1.026,3.99-3.361,7.518-4.689,11.421a23.832,23.832,0,0,0-1.133,10.172,8.678,8.678,0,0,0,1.9,5.058c1.8,1.942,4.707,2.233,7.315,2.7a35.5,35.5,0,0,1,25.524,19.762" transform="translate(-345.285 -291.583)" fill="none" stroke="#535461" stroke-miterlimit="10" stroke-width="2"/>
    <path id="Path_714" data-name="Path 714" d="M626.323,372.4c-4.494,6.265-9.16,13-9.544,20.705-.587,11.832,8.878,21.51,13.1,32.579a38.72,38.72,0,0,1-1.3,30.286c-2.062,4.263-5,8.5-4.624,13.219.217,2.881,1.66,5.5,2.821,8.152a45.961,45.961,0,0,1-2.668,41.5" transform="translate(-414.992 -240.187)" fill="none" stroke="#707070" stroke-miterlimit="10" stroke-width="2"/>
    <path id="Path_715" data-name="Path 715" d="M627.518,372.4c-4.49,6.288-9.155,13.007-9.548,20.705-.587,11.832,8.878,21.51,13.1,32.579a38.72,38.72,0,0,1-1.3,30.286c-2.062,4.263-5,8.5-4.624,13.219.217,2.881,1.66,5.5,2.821,8.152a45.96,45.96,0,0,1-2.668,41.5" transform="translate(-415.632 -240.187)" fill="none" stroke="#535461" stroke-miterlimit="10" stroke-width="2"/>
    <path id="Path_716" data-name="Path 716" d="M759.172,494.28l2.173,17.714c.287,2.353.532,4.92-.731,6.936-1.2,1.9-3.445,2.807-5.193,4.212-5.738,4.624-5.215,13.46-3.237,20.553s4.827,14.713,2.076,21.538c-1.138,2.816-3.144,5.188-4.624,7.833a23.986,23.986,0,0,0-2.867,14.879" transform="translate(-484.781 -305.712)" fill="none" stroke="#707070" stroke-miterlimit="10" stroke-width="2"/>
    <path id="Path_717" data-name="Path 717" d="M760.342,494.28l2.173,17.714c.286,2.353.532,4.92-.731,6.936-1.2,1.9-3.445,2.807-5.193,4.212-5.738,4.624-5.216,13.46-3.237,20.553s4.827,14.713,2.076,21.538c-1.137,2.816-3.144,5.188-4.624,7.833a23.983,23.983,0,0,0-2.867,14.879" transform="translate(-485.41 -305.712)" fill="none" stroke="#535461" stroke-miterlimit="10" stroke-width="2"/>
    <g id="Group_969" data-name="Group 969" transform="translate(89.013 4.345)" opacity="0.7">
      <path id="Path_718" data-name="Path 718" d="M614.638,207.273a52.527,52.527,0,0,0-68.756-49.933,63.075,63.075,0,0,0,.67-8.91,52.494,52.494,0,0,0-104.859-3.764A52.527,52.527,0,0,0,372.91,194.6c0,26.356,19.42,63.809,44.689,70.444l3.935,2.247-2.136,7.319h12.651l-2.747-7.329,3.916-2.238c19.54-5.128,35.562-28.668,41.836-51.246a38.379,38.379,0,0,0,11.2,5.086l3.935,2.247-2.1,7.3h12.651l-2.747-7.329,3.916-2.238a36.625,36.625,0,0,0,8.323-3.38c3.38,25.329,21.362,56.253,44.116,62.223l3.935,2.247-2.136,7.319h12.651l-2.756-7.329,3.916-2.238C595.241,271.077,614.638,233.61,614.638,207.273Z" transform="translate(-372.91 -95.856)" fill="url(#linear-gradient)"/>
    </g>
    <path id="Path_719" data-name="Path 719" d="M310.524,381.6H298.28l2.146-7.343h7.343Z" transform="translate(-160.361 -201.209)" fill="#f55f44"/>
    <path id="Path_720" data-name="Path 720" d="M482.994,250.095c0,28.057-22.744,69.158-50.8,69.158s-50.8-41.106-50.8-69.158a50.8,50.8,0,1,1,101.6,0Z" transform="translate(-288.461 -147.122)" fill="#fe6684"/>
    <path id="Path_721" data-name="Path 721" d="M305.279,372.076h-7.343l-4.286-2.446h15.915Z" transform="translate(-157.872 -198.72)" fill="#535461"/>
    <path id="Path_722" data-name="Path 722" d="M423.083,223.78s-21.422,11.629-24.483,34.887" transform="translate(-297.708 -160.286)" fill="#fff" opacity="0.1"/>
    <path id="Path_723" data-name="Path 723" d="M454.194,285.023H441.95l2.145-7.343h7.343Z" transform="translate(-237.601 -149.286)" fill="#4d8af0"/>
    <path id="Path_724" data-name="Path 724" d="M626.664,153.515c0,28.057-22.745,69.158-50.8,69.158s-50.8-41.106-50.8-69.158a50.8,50.8,0,0,1,101.6,0Z" transform="translate(-365.701 -95.199)" fill="#177ee7"/>
    <path id="Path_725" data-name="Path 725" d="M448.949,275.491h-7.343l-4.286-2.451h15.915Z" transform="translate(-235.111 -146.791)" fill="#535461"/>
    <path id="Path_726" data-name="Path 726" d="M566.753,127.2s-21.422,11.629-24.483,34.887" transform="translate(-374.948 -108.363)" fill="#fff" opacity="0.1"/>
    <path id="Path_727" data-name="Path 727" d="M596.654,408.167H584.41l2.146-7.347H593.9Z" transform="translate(-314.19 -215.488)" fill="#3ad29f"/>
    <path id="Path_728" data-name="Path 728" d="M769.119,276.655c0,28.057-22.745,69.158-50.8,69.158s-50.8-41.1-50.8-69.158a50.8,50.8,0,1,1,101.6,0Z" transform="translate(-442.285 -161.401)" fill="#fe6684"/>
    <path id="Path_729" data-name="Path 729" d="M591.409,398.636h-7.343l-4.286-2.446H595.7Z" transform="translate(-311.701 -212.999)" fill="#535461"/>
    <path id="Path_730" data-name="Path 730" d="M709.213,250.34s-21.422,11.629-24.483,34.887" transform="translate(-451.537 -174.565)" fill="#fff" opacity="0.1"/>
    <g id="Group_970" data-name="Group 970" transform="translate(180.018 197.37)" opacity="0.5">
      <path id="Path_731" data-name="Path 731" d="M628.488,517.28c-2.945-2.955-7.241-4.129-12.1-3.311a24.271,24.271,0,0,0-12.794,6.936,14.954,14.954,0,0,0-2.677,3.671,14.985,14.985,0,0,0-2.654-3.806h0a24.089,24.089,0,0,0-12.692-7.139c-4.837-.925-9.151.2-12.151,3.1s-4.231,7.181-3.482,12.045a24.242,24.242,0,0,0,6.746,12.891c7.666,7.911,22.967,4.823,23.614,4.684l.19-.042.587.134c.647.148,15.892,3.5,23.692-4.277a24.375,24.375,0,0,0,6.968-12.776C632.594,524.535,631.433,520.24,628.488,517.28ZM597.73,541.787c-3.7.5-12.914,1.174-17.487-3.546a19.339,19.339,0,0,1-5.414-10.219c-.5-3.237.222-6.011,2.044-7.759a6.835,6.835,0,0,1,2.492-1.526,10.282,10.282,0,0,1,5.327-.268,19.319,19.319,0,0,1,10.043,5.734c4.573,4.689,3.611,13.9,3,17.58Zm29.181-13.229a19.3,19.3,0,0,1-5.59,10.121c-4.656,4.624-13.871,3.805-17.547,3.237-.55-3.7-1.355-12.9,3.3-17.538a19.287,19.287,0,0,1,10.14-5.549,10.285,10.285,0,0,1,5.322.361,6.834,6.834,0,0,1,2.469,1.572c1.785,1.789,2.46,4.555,1.905,7.791Z" transform="translate(-569.727 -513.316)" fill="url(#linear-gradient-2)"/>
    </g>
    <path id="Path_732" data-name="Path 732" d="M603.366,546.19l-1.456.305c-.62.13-15.259,3.084-22.6-4.485a23.4,23.4,0,0,1-6.473-12.336c-.721-4.656.462-8.748,3.329-11.527s7-3.833,11.624-2.969a23.2,23.2,0,0,1,12.128,6.839h0c7.333,7.569,3.921,22.111,3.773,22.726Zm-21.514-26.12a6.54,6.54,0,0,0-2.386,1.461c-1.739,1.688-2.432,4.323-1.956,7.426a18.523,18.523,0,0,0,5.183,9.779c4.379,4.517,13.2,3.87,16.734,3.394.587-3.519,1.512-12.313-2.867-16.831h0a18.475,18.475,0,0,0-9.613-5.484A9.838,9.838,0,0,0,581.852,520.07Z" transform="translate(-391.272 -316.788)" fill="#177ee7"/>
    <path id="Path_733" data-name="Path 733" d="M633.134,546.71l-.324-1.452c-.139-.62-3.3-15.217,4.162-22.657h0a23.231,23.231,0,0,1,12.244-6.626c4.624-.786,8.753.337,11.56,3.167s3.93,6.936,3.13,11.56a23.213,23.213,0,0,1-6.668,12.221c-7.463,7.44-22.051,4.231-22.657,4.092ZM655.1,520.942a9.839,9.839,0,0,0-5.086-.347,18.542,18.542,0,0,0-9.71,5.317h0c-4.457,4.443-3.7,13.247-3.158,16.78,3.528.536,12.336,1.336,16.789-3.1a18.488,18.488,0,0,0,5.35-9.71c.532-3.093-.116-5.743-1.826-7.458A6.534,6.534,0,0,0,655.1,520.942Z" transform="translate(-423.203 -317.244)" fill="#177ee7"/>
    <g id="Group_971" data-name="Group 971" transform="translate(139.371 225.577)" opacity="0.5">
      <path id="Path_734" data-name="Path 734" d="M443.376,487.86H301.42v28.4H308.8v82.207H436V516.264h7.375Z" transform="translate(-301.42 -487.86)" fill="url(#linear-gradient-3)"/>
    </g>
    <rect id="Rectangle_360" data-name="Rectangle 360" width="123.988" height="100.628" transform="translate(148.355 234.164)" fill="url(#linear-gradient-4)"/>
    <rect id="Rectangle_361" data-name="Rectangle 361" width="23.36" height="82.655" transform="translate(198.667 252.132)" fill="#177ee7"/>
    <rect id="Rectangle_362" data-name="Rectangle 362" width="123.988" height="25.158" transform="translate(148.355 228.772)" opacity="0.1"/>
    <rect id="Rectangle_363" data-name="Rectangle 363" width="138.363" height="25.158" transform="translate(141.17 226.974)" fill="url(#linear-gradient-4)"/>
    <rect id="Rectangle_364" data-name="Rectangle 364" width="23.36" height="25.158" transform="translate(198.667 226.974)" fill="#177ee7"/>
  </g>
</svg>
