<svg xmlns="http://www.w3.org/2000/svg" width="22.976" height="22.958" viewBox="0 0 22.976 22.958">
  <g id="call" transform="translate(-0.485 -0.437)">
    <g id="Group_257" data-name="Group 257" transform="translate(1 1.018)">
      <g id="Group_256" data-name="Group 256">
        <path id="Path_520" data-name="Path 520" d="M22.306,17.9l-4.428-2.953a1.293,1.293,0,0,0-1.731.281l-1.29,1.659a.551.551,0,0,1-.707.149L13.9,16.9a14.829,14.829,0,0,1-3.865-3.035A14.89,14.89,0,0,1,7,10L6.869,9.75a.552.552,0,0,1,.146-.71l1.657-1.29A1.293,1.293,0,0,0,8.954,6.02L6,1.592A1.286,1.286,0,0,0,4.267,1.2L2.415,2.314A2.612,2.612,0,0,0,1.224,3.86c-.667,2.43-.165,6.623,6.012,12.8C12.15,21.574,15.808,22.9,18.322,22.9a6.459,6.459,0,0,0,1.714-.224,2.61,2.61,0,0,0,1.546-1.191L22.7,19.63A1.286,1.286,0,0,0,22.306,17.9Zm-.238,1.36-1.111,1.852a1.884,1.884,0,0,1-1.112.862c-2.243.616-6.162.106-12.092-5.825S1.312,6.3,1.928,4.053A1.887,1.887,0,0,1,2.791,2.94L4.642,1.829A.558.558,0,0,1,5.395,2L7,4.406l1.346,2.02a.561.561,0,0,1-.122.751L6.566,8.467A1.276,1.276,0,0,0,6.228,10.1l.132.239a15.467,15.467,0,0,0,3.16,4.033,15.484,15.484,0,0,0,4.032,3.16l.24.132a1.276,1.276,0,0,0,1.638-.338l1.29-1.658a.561.561,0,0,1,.751-.122L21.9,18.5A.557.557,0,0,1,22.067,19.256Z" transform="translate(-1 -1.018)" fill="#fff" stroke="#fff" stroke-width="1"/>
        <path id="Path_521" data-name="Path 521" d="M282.993,70.053a6.205,6.205,0,0,1,6.2,6.2.365.365,0,1,0,.729,0,6.935,6.935,0,0,0-6.927-6.927.365.365,0,1,0,0,.729Z" transform="translate(-270.595 -66.406)" fill="#fff" stroke="#fff" stroke-width="1"/>
        <path id="Path_522" data-name="Path 522" d="M282.993,121.253A4.015,4.015,0,0,1,287,125.264a.365.365,0,0,0,.729,0,4.745,4.745,0,0,0-4.74-4.74.365.365,0,1,0,0,.729Z" transform="translate(-270.595 -115.418)" fill="#fff" stroke="#fff" stroke-width="1"/>
        <path id="Path_523" data-name="Path 523" d="M282.993,172.453a1.825,1.825,0,0,1,1.823,1.823.365.365,0,1,0,.729,0,2.555,2.555,0,0,0-2.552-2.552.365.365,0,1,0,0,.729Z" transform="translate(-270.595 -164.43)" fill="#fff" stroke="#fff" stroke-width="1"/>
      </g>
    </g>
  </g>
</svg>
