<svg xmlns="http://www.w3.org/2000/svg" xmlns:xlink="http://www.w3.org/1999/xlink" width="71" height="68" viewBox="0 0 71 68">
  <defs>
    <clipPath id="clip-Co">
      <rect width="71" height="68"/>
    </clipPath>
  </defs>
  <g id="Co" clip-path="url(#clip-Co)">
    <g id="call" transform="translate(12.468 10.451)">
      <g id="Group_257" data-name="Group 257" transform="translate(1 1.018)">
        <g id="Group_256" data-name="Group 256">
          <path id="Path_520" data-name="Path 520" d="M44.764,35.688l-9.1-6.066a2.655,2.655,0,0,0-3.555.577l-2.65,3.407a1.132,1.132,0,0,1-1.452.306l-.5-.278c-1.671-.911-3.75-2.045-7.939-6.235s-5.325-6.271-6.236-7.939l-.276-.5a1.134,1.134,0,0,1,.3-1.457l3.4-2.649a2.657,2.657,0,0,0,.578-3.555L11.271,2.2a2.641,2.641,0,0,0-3.56-.8l-3.8,2.285A5.366,5.366,0,0,0,1.46,6.856c-1.37,4.991-.339,13.6,12.349,26.295C23.9,43.243,31.417,45.958,36.582,45.958a13.269,13.269,0,0,0,3.52-.46,5.361,5.361,0,0,0,3.175-2.447l2.287-3.8A2.642,2.642,0,0,0,44.764,35.688Zm-.49,2.794-2.282,3.8a3.871,3.871,0,0,1-2.284,1.771c-4.607,1.265-12.657.217-24.839-11.964S1.64,11.861,2.905,7.253A3.877,3.877,0,0,1,4.678,4.965l3.8-2.282a1.146,1.146,0,0,1,1.545.347l3.3,4.947,2.766,4.148a1.153,1.153,0,0,1-.25,1.543l-3.405,2.649a2.621,2.621,0,0,0-.694,3.364l.27.491c.957,1.756,2.147,3.939,6.492,8.283s6.528,5.534,8.283,6.491l.492.271a2.621,2.621,0,0,0,3.364-.694l2.649-3.405a1.153,1.153,0,0,1,1.543-.25l9.1,6.066A1.145,1.145,0,0,1,44.274,38.481Z" transform="translate(-1 -1.018)" fill="#fff" stroke="#fff" stroke-width="1"/>
          <path id="Path_521" data-name="Path 521" d="M283.377,70.822a12.746,12.746,0,0,1,12.732,12.732.749.749,0,1,0,1.5,0,14.245,14.245,0,0,0-14.23-14.23.749.749,0,1,0,0,1.5Z" transform="translate(-257.911 -63.329)" fill="#fff" stroke="#fff" stroke-width="1"/>
          <path id="Path_522" data-name="Path 522" d="M283.377,122.022a8.248,8.248,0,0,1,8.238,8.238.749.749,0,1,0,1.5,0,9.747,9.747,0,0,0-9.736-9.736.749.749,0,1,0,0,1.5Z" transform="translate(-257.911 -110.035)" fill="#fff" stroke="#fff" stroke-width="1"/>
          <path id="Path_523" data-name="Path 523" d="M283.377,173.222a3.749,3.749,0,0,1,3.745,3.745.749.749,0,1,0,1.5,0,5.248,5.248,0,0,0-5.242-5.243.749.749,0,1,0,0,1.5Z" transform="translate(-257.911 -156.742)" fill="#fff" stroke="#fff" stroke-width="1"/>
        </g>
      </g>
    </g>
  </g>
</svg>
