<svg xmlns="http://www.w3.org/2000/svg" width="25.359" height="19.317" viewBox="0 0 25.359 19.317">
  <path id="Path_997" data-name="Path 997" d="M23.131,61H2.229A2.233,2.233,0,0,0,0,63.229V78.088a2.232,2.232,0,0,0,2.229,2.229h20.9a2.232,2.232,0,0,0,2.229-2.229V63.229A2.232,2.232,0,0,0,23.131,61Zm-.308,1.486-10.1,10.1L2.544,62.486ZM1.486,77.78V63.529l7.156,7.095Zm1.051,1.051L9.7,71.67l2.509,2.488a.743.743,0,0,0,1.048,0L15.7,71.709l7.122,7.122ZM23.874,77.78l-7.122-7.122,7.122-7.122Z" transform="translate(0 -61)" fill="#fff"/>
</svg>
