<svg xmlns="http://www.w3.org/2000/svg" xmlns:xlink="http://www.w3.org/1999/xlink" width="71" height="68" viewBox="0 0 71 68">
  <defs>
    <clipPath id="clip-Wa">
      <rect width="71" height="68"/>
    </clipPath>
  </defs>
  <g id="Wa" clip-path="url(#clip-Wa)">
    <g id="Group_1814" data-name="Group 1814" transform="translate(-209 -5122)">
      <g id="Ellipse_337" data-name="Ellipse 337" transform="translate(220 5131)" fill="none" stroke="#fff" stroke-width="2">
        <circle cx="25" cy="25" r="25" stroke="none"/>
        <circle cx="25" cy="25" r="24" fill="none"/>
      </g>
      <path id="whatsapp" d="M18.955,3.2A10.9,10.9,0,0,0,1.8,16.351L.25,22l5.779-1.516a10.89,10.89,0,0,0,5.21,1.327h0A10.906,10.906,0,0,0,18.955,3.2ZM11.243,19.97h0a9.05,9.05,0,0,1-4.612-1.263l-.331-.2-3.429.9.915-3.344-.216-.343a9.061,9.061,0,1,1,7.676,4.246Zm4.97-6.786c-.272-.136-1.612-.8-1.861-.886s-.431-.136-.613.136-.7.886-.863,1.068-.318.2-.59.068A7.44,7.44,0,0,1,10.1,12.218,8.217,8.217,0,0,1,8.58,10.331c-.159-.273,0-.406.12-.556a7.705,7.705,0,0,0,.681-.932.5.5,0,0,0-.023-.477c-.068-.136-.613-1.477-.84-2.023s-.446-.459-.613-.468-.34-.01-.522-.01a1,1,0,0,0-.726.341A3.055,3.055,0,0,0,5.7,8.48,5.3,5.3,0,0,0,6.816,11.3a12.142,12.142,0,0,0,4.653,4.113,15.592,15.592,0,0,0,1.553.574,3.734,3.734,0,0,0,1.716.108,2.806,2.806,0,0,0,1.839-1.3,2.276,2.276,0,0,0,.159-1.3c-.068-.114-.25-.182-.522-.318Zm0,0" transform="translate(234.415 5145)" fill="#fff" fill-rule="evenodd"/>
    </g>
  </g>
</svg>
