<svg xmlns="http://www.w3.org/2000/svg" width="73.424" height="70.978" viewBox="0 0 73.424 70.978">
  <g id="anniversary" transform="translate(0 -8.53)">
    <path id="Path_917" data-name="Path 917" d="M208.555,76.519h-9.632a4.4,4.4,0,0,0-3.757,2.129h-2.9a4.442,4.442,0,0,0-4.413,4.47V96.957a10.947,10.947,0,0,0,10.875,11.017,10.786,10.786,0,0,0,8.074-3.637q-.042-.539-.042-1.089v-6.4a13.879,13.879,0,0,1,2.685-8.226l-.037.053c.065-.089.13-.178.2-.265V77.583A1.057,1.057,0,0,0,208.555,76.519Z" transform="translate(-160.916 -58.239)" fill="#ffd5b3"/>
    <path id="Path_918" data-name="Path 918" d="M195.9,325.806V310.455a10.237,10.237,0,0,1,1.809-5.821v-1.712a13.915,13.915,0,0,1-4.358-6.007h-2.376l-2.943,4.543a.825.825,0,0,1-1.463,0l-1.877-2.9a.263.263,0,0,0-.5,0l-1.877,2.9a.825.825,0,0,1-1.463,0l-2.943-4.543h-5.257a1.483,1.483,0,0,0-1.477,1.479v1.224h1.548a.6.6,0,0,1,.6.6v10.144a.143.143,0,0,0,.143.143h3.473a.6.6,0,0,1,.6.6v9.241a.143.143,0,0,0,.068.122,2.21,2.21,0,0,1,.86,2.795.143.143,0,0,0-.012.059h3.21a.741.741,0,0,1,.739.739V325.8a.741.741,0,0,1-.739.739h14.975A.73.73,0,0,1,195.9,325.806Z" transform="translate(-146.628 -247.029)" fill="#92deee"/>
    <g id="Group_1673" data-name="Group 1673" transform="translate(24.548 49.886)" opacity="0.1">
      <path id="Path_919" data-name="Path 919" d="M172.723,299.618a.6.6,0,0,1,.6.6v10.144a.143.143,0,0,0,.143.143h2.344V298.394a1.483,1.483,0,0,1,1.477-1.479h-4.63a1.483,1.483,0,0,0-1.477,1.479v1.224h1.548Z" transform="translate(-171.175 -296.915)"/>
    </g>
    <path id="Path_920" data-name="Path 920" d="M257.517,307.307a.263.263,0,0,0-.5,0l-.825,1.274v26.7h2.151v-26.7Z" transform="translate(-219.451 -255.774)" fill="#046699"/>
    <path id="Path_921" data-name="Path 921" d="M224.55,278.618h-.079a10.6,10.6,0,0,1-13.256,0h-.086a.869.869,0,0,0-.773,1.422l3.772,5.823a.967.967,0,0,0,1.7,0l1.877-2.9c.055-.085.108-.116.13-.116s.075.031.13.116l1.877,2.9a.968.968,0,0,0,1.7,0l3.772-5.823a.869.869,0,0,0-.772-1.422Z" transform="translate(-180.025 -231.356)" fill="#0481bf"/>
    <path id="Path_922" data-name="Path 922" d="M163.223,190.476V185.7h-2.075a2.224,2.224,0,0,0-2.216,2.218v2.247a2.224,2.224,0,0,0,2.216,2.218h2.243A11.017,11.017,0,0,1,163.223,190.476Z" transform="translate(-136.14 -151.758)" fill="#ffb98a"/>
    <path id="Path_923" data-name="Path 923" d="M208.555,76.519h-9.632a4.4,4.4,0,0,0-3.757,2.129h-2.9a4.442,4.442,0,0,0-4.413,4.47V90.4c0-6.084,4.869-8.033,10.875-8.033,5.377,0,9.839,1.564,10.716,6.257l-.037.053c.065-.089.13-.178.2-.265V77.583A1.057,1.057,0,0,0,208.555,76.519Z" transform="translate(-160.916 -58.239)" fill="#0481bf"/>
    <path id="Path_924" data-name="Path 924" d="M190.908,96.907V95.833a4.442,4.442,0,0,1,4.413-4.47h-3.052a4.442,4.442,0,0,0-4.413,4.47v7.282A6.93,6.93,0,0,1,190.908,96.907Z" transform="translate(-160.916 -70.954)" fill="#15004d" opacity="0.1"/>
    <path id="Path_925" data-name="Path 925" d="M206.762,138.174v-6.4a13.879,13.879,0,0,1,2.685-8.226c-.877-4.693-5.339-6.257-10.716-6.257-6.006,0-10.875,1.949-10.875,8.033v6.557A10.946,10.946,0,0,0,198.731,142.9a10.786,10.786,0,0,0,8.074-3.637Q206.763,138.724,206.762,138.174Z" transform="translate(-160.916 -93.166)" fill="#ffd5b3"/>
    <g id="Group_1674" data-name="Group 1674" transform="translate(26.94 24.127)" opacity="0.1">
      <path id="Path_926" data-name="Path 926" d="M190.947,131.882v-6.557c0-5.553,4.056-7.66,9.33-7.986q-.758-.047-1.546-.047c-6.006,0-10.875,1.949-10.875,8.033v6.557A10.947,10.947,0,0,0,198.731,142.9a10.837,10.837,0,0,0,1.546-.113A10.972,10.972,0,0,1,190.947,131.882Z" transform="translate(-187.856 -117.292)"/>
    </g>
    <g id="Group_1675" data-name="Group 1675" transform="translate(31.683 33.154)">
      <path id="Path_927" data-name="Path 927" d="M249.6,193.092h-.834a1.076,1.076,0,0,1,0-2.151h.368v-1.46a1.076,1.076,0,0,1,2.151,0V191.4A1.691,1.691,0,0,1,249.6,193.092Z" transform="translate(-243.849 -187.234)" fill="#a75436"/>
      <path id="Path_928" data-name="Path 928" d="M292.53,183.826a1.075,1.075,0,0,1-1.076-1.076V181.31a1.076,1.076,0,1,1,2.151,0v1.441A1.076,1.076,0,0,1,292.53,183.826Z" transform="translate(-281.34 -180.234)" fill="#a75436"/>
      <path id="Path_929" data-name="Path 929" d="M222,183.826a1.075,1.075,0,0,1-1.076-1.076V181.31a1.076,1.076,0,0,1,2.151,0v1.441A1.076,1.076,0,0,1,222,183.826Z" transform="translate(-220.928 -180.234)" fill="#a75436"/>
      <path id="Path_930" data-name="Path 930" d="M234.581,239.269a4.973,4.973,0,0,1-4.636-3.146,1.075,1.075,0,1,1,2-.8,2.838,2.838,0,0,0,5.278,0,1.076,1.076,0,0,1,2,.8A4.973,4.973,0,0,1,234.581,239.269Z" transform="translate(-228.586 -226.844)" fill="#a75436"/>
    </g>
    <path id="Path_931" data-name="Path 931" d="M332.554,120.64a13.948,13.948,0,0,0-13.86,14v6.4a14.037,14.037,0,0,0,6.255,11.7,10.169,10.169,0,0,1,3.525-2.579,9.889,9.889,0,0,0,8.162,0,10.172,10.172,0,0,1,3.525,2.579,14.037,14.037,0,0,0,6.255-11.7v-6.4A13.948,13.948,0,0,0,332.554,120.64Z" transform="translate(-272.991 -96.033)" fill="#ff6a76"/>
    <path id="Path_932" data-name="Path 932" d="M324.95,152.742a10.16,10.16,0,0,1,1.57-1.442,14.03,14.03,0,0,1-4.439-10.258v-6.4a13.974,13.974,0,0,1,12.163-13.9,13.71,13.71,0,0,0-1.689-.105,13.948,13.948,0,0,0-13.86,14v6.4A14.036,14.036,0,0,0,324.95,152.742Z" transform="translate(-272.992 -96.034)" fill="#15004d" opacity="0.1"/>
    <path id="Path_933" data-name="Path 933" d="M363.956,339.175a1.338,1.338,0,0,1-.7-2.48.144.144,0,0,0,0-.245,1.337,1.337,0,0,1,0-2.281.143.143,0,0,0,0-.244,1.338,1.338,0,0,1,.193-2.38,10.359,10.359,0,0,0-5.315-5.588,9.9,9.9,0,0,1-8.5,0,10.312,10.312,0,0,0-6.038,9.375v15.351a.73.73,0,0,0,.73.73h19.12a.73.73,0,0,0,.73-.73V339.175h-.218Z" transform="translate(-294.32 -271.907)" fill="#fcdb80"/>
    <g id="Group_1676" data-name="Group 1676" transform="translate(49.274 54.016)" opacity="0.1">
      <path id="Path_934" data-name="Path 934" d="M350.065,327.507l-.356-1.794a10.312,10.312,0,0,0-6.116,9.41v15.351a.73.73,0,0,0,.73.73h3.1a.73.73,0,0,1-.73-.73V335.123A10.275,10.275,0,0,1,350.065,327.507Z" transform="translate(-343.593 -325.713)"/>
    </g>
    <path id="Path_935" data-name="Path 935" d="M390.5,327.175a9.871,9.871,0,0,1-4.159-.917l.943,4.75a.79.79,0,0,0,.742.61h4.947a.791.791,0,0,0,.742-.61l.943-4.75A9.869,9.869,0,0,1,390.5,327.175Z" transform="translate(-330.941 -272.164)" fill="#ffb98a"/>
    <path id="Path_936" data-name="Path 936" d="M355.358,205.253a10.121,10.121,0,0,1-10.043-10.174v-7.806a.769.769,0,0,1,.768-.769.761.761,0,0,1,.193.025,15.176,15.176,0,0,0,3.657.461,11.417,11.417,0,0,0,7.7-2.866.768.768,0,0,1,1.025-.005,12.066,12.066,0,0,0,6.083,2.733.769.769,0,0,1,.655.761v7.467A10.121,10.121,0,0,1,355.358,205.253Z" transform="translate(-295.794 -150.241)" fill="#ffd5b3"/>
    <g id="Group_1677" data-name="Group 1677" transform="translate(49.521 36.262)" opacity="0.1">
      <path id="Path_937" data-name="Path 937" d="M348.32,210.027V202.3a14.589,14.589,0,0,1-2.044-.367.758.758,0,0,0-.193-.025.769.769,0,0,0-.768.769v7.806a10.121,10.121,0,0,0,10.043,10.174,9.886,9.886,0,0,0,2.985-.459A10.121,10.121,0,0,1,348.32,210.027Z" transform="translate(-345.315 -201.91)"/>
    </g>
    <g id="Group_1678" data-name="Group 1678" transform="translate(53.868 40)">
      <path id="Path_938" data-name="Path 938" d="M408.42,244.491h-.367a1.638,1.638,0,0,1-1.633-1.64v-.882a1.076,1.076,0,1,1,2.151,0v.381a1.076,1.076,0,0,1-.151,2.141Z" transform="translate(-402.004 -239.041)" fill="#a75436"/>
      <path id="Path_939" data-name="Path 939" d="M376.7,231.44a1.075,1.075,0,0,1-1.076-1.076v-1.316a1.076,1.076,0,1,1,2.151,0v1.316A1.075,1.075,0,0,1,376.7,231.44Z" transform="translate(-375.629 -227.973)" fill="#a75436"/>
      <path id="Path_940" data-name="Path 940" d="M441.141,231.44a1.075,1.075,0,0,1-1.076-1.076v-1.316a1.076,1.076,0,0,1,2.151,0v1.316A1.075,1.075,0,0,1,441.141,231.44Z" transform="translate(-430.824 -227.973)" fill="#a75436"/>
      <path id="Path_941" data-name="Path 941" d="M389.944,281.478a4.636,4.636,0,0,1-4.322-2.933,1.076,1.076,0,0,1,2-.8,2.5,2.5,0,0,0,4.649,0,1.076,1.076,0,0,1,2,.8A4.637,4.637,0,0,1,389.944,281.478Z" transform="translate(-384.123 -270.029)" fill="#a75436"/>
    </g>
    <path id="Path_942" data-name="Path 942" d="M479.424,369.759c0-.535,0-4.516,0-5.051a1.482,1.482,0,0,0-1.481-1.483h-1.207a9.116,9.116,0,0,1-1.481,4.008,1.48,1.48,0,0,1,0,2.526,1.482,1.482,0,0,0,1.481,1.483h1.207A1.482,1.482,0,0,0,479.424,369.759Z" transform="translate(-407.1 -303.83)" fill="#ffb98a"/>
    <path id="Path_943" data-name="Path 943" d="M360.267,19.92a.7.7,0,0,1-.494-.208L354.948,14.8a3.717,3.717,0,0,1,0-5.194,3.569,3.569,0,0,1,5.107,0l.212.216.212-.216a3.568,3.568,0,0,1,5.107,0,3.716,3.716,0,0,1,0,5.194l-4.825,4.912A.694.694,0,0,1,360.267,19.92Z" transform="translate(-303.14)" fill="#ff484e"/>
    <g id="Group_1679" data-name="Group 1679" transform="translate(50.75 8.53)" opacity="0.1">
      <path id="Path_944" data-name="Path 944" d="M357.457,13.91a3.717,3.717,0,0,1,0-5.194c.062-.063.127-.123.193-.181-.049,0-.1,0-.147,0a3.556,3.556,0,0,0-2.554,1.076,3.717,3.717,0,0,0,0,5.194l4.825,4.911a.691.691,0,0,0,.989,0l1.2-1.219Z" transform="translate(-353.891 -8.531)"/>
    </g>
    <g id="Group_1680" data-name="Group 1680" transform="translate(12.588 44.162)">
      <path id="Path_945" data-name="Path 945" d="M89.611,260.7l.024-.023v4.276a1.071,1.071,0,0,0,.129.512h1.893a1.069,1.069,0,0,0,.129-.512v-6.874a1.075,1.075,0,0,0-1.836-.76l-1.86,1.862a1.076,1.076,0,1,0,1.522,1.52Z" transform="translate(-87.775 -257)" fill="#ff6a76"/>
      <path id="Path_946" data-name="Path 946" d="M120.449,265.461h3.518a3.044,3.044,0,0,0,1.287-2.484v-2.93a3.046,3.046,0,1,0-6.091,0v2.93A3.044,3.044,0,0,0,120.449,265.461Zm.864-5.413a.895.895,0,1,1,1.789,0v2.93a.895.895,0,1,1-1.789,0Z" transform="translate(-114.661 -257)" fill="#ff6a76"/>
    </g>
    <path id="Path_947" data-name="Path 947" d="M67.806,325.791a2.178,2.178,0,0,1,.613-1.3,2.119,2.119,0,0,1,3.032,0l.126.128.126-.128a2.118,2.118,0,0,1,3.032,0,2.179,2.179,0,0,1,.613,1.3h4.846V315.5a.741.741,0,0,0-.739-.739H63.032a.741.741,0,0,0-.739.739v10.287Z" transform="translate(-53.36 -262.318)" fill="#d4e9ed"/>
    <path id="Path_948" data-name="Path 948" d="M65.549,325.791V315.5a.741.741,0,0,1,.739-.739H63.032a.741.741,0,0,0-.739.739v10.287Z" transform="translate(-53.36 -262.318)" fill="#15004d" opacity="0.1"/>
    <path id="Path_949" data-name="Path 949" d="M33.729,400.428a2.2,2.2,0,0,1,1.9,1.081.144.144,0,0,0,.246,0,2.211,2.211,0,0,1,3.8,0,.143.143,0,0,0,.246,0,2.211,2.211,0,0,1,3.8,0,.143.143,0,0,0,.246,0,2.211,2.211,0,0,1,3.8,0,.144.144,0,0,0,.246,0,2.211,2.211,0,0,1,3.8,0,.143.143,0,0,0,.246,0,2.211,2.211,0,0,1,3.8,0,.144.144,0,0,0,.246,0,2.211,2.211,0,0,1,3.137-.7V391.4a.741.741,0,0,0-.739-.739H50.17a2.237,2.237,0,0,1,.035.383,2.185,2.185,0,0,1-.628,1.542L46.712,395.5a.411.411,0,0,1-.587,0l-2.865-2.916a2.185,2.185,0,0,1-.628-1.542,2.236,2.236,0,0,1,.035-.383H33.661a.741.741,0,0,0-.739.739v9.186A2.2,2.2,0,0,1,33.729,400.428Z" transform="translate(-28.201 -327.327)" fill="#ff6a76"/>
    <g id="Group_1681" data-name="Group 1681" transform="translate(4.721 63.329)" opacity="0.1">
      <path id="Path_950" data-name="Path 950" d="M33.729,400.426a2.2,2.2,0,0,1,1.9,1.081.144.144,0,0,0,.246,0q.039-.065.081-.125v-9.987a.741.741,0,0,1,.739-.739H33.661a.741.741,0,0,0-.739.739v9.186A2.2,2.2,0,0,1,33.729,400.426Z" transform="translate(-32.922 -390.655)"/>
    </g>
    <path id="Path_951" data-name="Path 951" d="M26.492,461.339a2.361,2.361,0,1,0-4.08,0Z" transform="translate(-18.923 -384.834)" fill="#d4e9ed"/>
    <path id="Path_952" data-name="Path 952" d="M54.712,461.339a2.361,2.361,0,1,0-4.08,0Z" transform="translate(-43.096 -384.834)" fill="#fff"/>
    <path id="Path_953" data-name="Path 953" d="M82.931,461.339a2.361,2.361,0,1,0-4.08,0Z" transform="translate(-67.268 -384.834)" fill="#d4e9ed"/>
    <path id="Path_954" data-name="Path 954" d="M111.15,461.339a2.361,2.361,0,1,0-4.08,0Z" transform="translate(-91.44 -384.834)" fill="#fff"/>
    <path id="Path_955" data-name="Path 955" d="M139.369,461.339a2.361,2.361,0,1,0-4.08,0Z" transform="translate(-115.613 -384.834)" fill="#d4e9ed"/>
    <path id="Path_956" data-name="Path 956" d="M167.587,461.339a2.361,2.361,0,1,0-4.08,0Z" transform="translate(-139.784 -384.834)" fill="#fff"/>
    <path id="Path_957" data-name="Path 957" d="M195.807,461.339a2.361,2.361,0,1,0-4.08,0Z" transform="translate(-163.957 -384.834)" fill="#d4e9ed"/>
    <path id="Path_958" data-name="Path 958" d="M35.768,483.486a.741.741,0,0,1-.739.739H.739A.741.741,0,0,1,0,483.486v-1.743A.741.741,0,0,1,.739,481h34.29a.741.741,0,0,1,.739.739Z" transform="translate(0 -404.717)" fill="#d48748"/>
    <g id="Group_1682" data-name="Group 1682" transform="translate(0 76.286)" opacity="0.1">
      <path id="Path_959" data-name="Path 959" d="M4.638,483.486v-1.743A.741.741,0,0,1,5.377,481H.739a.741.741,0,0,0-.739.739v1.743a.741.741,0,0,0,.739.739H5.377A.741.741,0,0,1,4.638,483.486Z" transform="translate(0 -481.003)"/>
    </g>
    <g id="Group_1683" data-name="Group 1683" transform="translate(8.933 54.501)">
      <path id="Path_960" data-name="Path 960" d="M70.019,329.1H62.293v2.151h7.726a1.076,1.076,0,1,0,0-2.151Z" transform="translate(-62.293 -329.096)" fill="#b9ccd3"/>
      <path id="Path_961" data-name="Path 961" d="M70.019,352H62.293v2.151h7.726a1.076,1.076,0,1,0,0-2.151Z" transform="translate(-62.293 -348.715)" fill="#b9ccd3"/>
    </g>
    <g id="Group_1684" data-name="Group 1684" transform="translate(4.721 61.532)">
      <path id="Path_962" data-name="Path 962" d="M40.648,410.151a1.076,1.076,0,1,0,0-2.151H32.922v2.151Z" transform="translate(-32.922 -403.715)" fill="#ff484e"/>
      <path id="Path_963" data-name="Path 963" d="M40.648,433.114a1.076,1.076,0,1,0,0-2.151H32.922v2.151Z" transform="translate(-32.922 -423.385)" fill="#ff484e"/>
      <path id="Path_964" data-name="Path 964" d="M104.419,384.883a.412.412,0,0,1-.293-.124l-2.865-2.916a2.207,2.207,0,0,1,0-3.084,2.118,2.118,0,0,1,3.032,0l.126.128.126-.128a2.118,2.118,0,0,1,3.032,0,2.206,2.206,0,0,1,0,3.084l-2.865,2.916A.412.412,0,0,1,104.419,384.883Z" transform="translate(-90.923 -378.121)" fill="#ff484e"/>
    </g>
    <g id="Group_1685" data-name="Group 1685" transform="translate(51.74 68.377)">
      <path id="Path_965" data-name="Path 965" d="M362.941,436.985V426.93a1.076,1.076,0,1,0-2.151,0v10.055Z" transform="translate(-360.79 -425.854)" fill="#ffc12e"/>
      <path id="Path_966" data-name="Path 966" d="M459.733,425.853a1.075,1.075,0,0,0-1.076,1.076v10.055h2.151V426.929A1.076,1.076,0,0,0,459.733,425.853Z" transform="translate(-444.622 -425.853)" fill="#ffc12e"/>
    </g>
  </g>
</svg>
