<svg xmlns="http://www.w3.org/2000/svg" width="69.196" height="70.392" viewBox="0 0 69.196 70.392">
  <g id="Page-1" transform="translate(-0.001)">
    <g id="_007---Birthday-Cake" data-name="007---Birthday-Cake" transform="translate(0.001)">
      <path id="Shape" d="M28.386,7h2.386a2.386,2.386,0,0,1,2.386,2.386v8.352H26V9.386A2.386,2.386,0,0,1,28.386,7Z" transform="translate(5.02 1.352)" fill="#ff5364"/>
      <path id="Shape-2" data-name="Shape" d="M17.772,19H46.406a4.772,4.772,0,0,1,4.772,4.772v16.7H13v-16.7A4.772,4.772,0,0,1,17.772,19Z" transform="translate(2.509 3.669)" fill="#f3d55b"/>
      <path id="Shape-3" data-name="Shape" d="M10.772,35H56.109a4.772,4.772,0,0,1,4.772,4.772v17.9H6v-17.9A4.772,4.772,0,0,1,10.772,35Z" transform="translate(1.158 6.758)" fill="#f3d55b"/>
      <path id="Shape-4" data-name="Shape" d="M22.386,15h16.7a2.386,2.386,0,0,1,2.386,2.386v3.579H20V17.386A2.386,2.386,0,0,1,22.386,15Z" transform="translate(3.861 2.896)" fill="#f9eab0"/>
      <path id="Shape-5" data-name="Shape" d="M31.772,5.772a2.386,2.386,0,0,1-4.772,0C27,4.46,29.386,1,29.386,1S31.772,4.46,31.772,5.772Z" transform="translate(5.213 0.193)" fill="#f0c419"/>
      <path id="Shape-6" data-name="Shape" d="M17.193,3.579A1.193,1.193,0,0,1,16,2.386V1.193a1.193,1.193,0,0,1,2.386,0V2.386A1.193,1.193,0,0,1,17.193,3.579Z" transform="translate(3.089)" fill="#2fa8cc"/>
      <path id="Shape-7" data-name="Shape" d="M20.386,5.386H19.193a1.193,1.193,0,0,1,0-2.386h1.193a1.193,1.193,0,1,1,0,2.386Z" transform="translate(3.475 0.579)" fill="#2fa8cc"/>
      <path id="Shape-8" data-name="Shape" d="M17.193,8.579A1.193,1.193,0,0,1,16,7.386V6.193a1.193,1.193,0,0,1,2.386,0V7.386A1.193,1.193,0,0,1,17.193,8.579Z" transform="translate(3.089 0.965)" fill="#2fa8cc"/>
      <path id="Shape-9" data-name="Shape" d="M15.386,5.386H14.193a1.193,1.193,0,0,1,0-2.386h1.193a1.193,1.193,0,0,1,0,2.386Z" transform="translate(2.509 0.579)" fill="#2fa8cc"/>
      <path id="Shape-10" data-name="Shape" d="M9.193,12.579A1.193,1.193,0,0,1,8,11.386V10.193a1.193,1.193,0,0,1,2.386,0v1.193A1.193,1.193,0,0,1,9.193,12.579Z" transform="translate(1.544 1.738)" fill="#955ba5"/>
      <path id="Shape-11" data-name="Shape" d="M12.386,14.386H11.193a1.193,1.193,0,1,1,0-2.386h1.193a1.193,1.193,0,1,1,0,2.386Z" transform="translate(1.93 2.317)" fill="#955ba5"/>
      <path id="Shape-12" data-name="Shape" d="M9.193,17.579A1.193,1.193,0,0,1,8,16.386V15.193a1.193,1.193,0,1,1,2.386,0v1.193A1.193,1.193,0,0,1,9.193,17.579Z" transform="translate(1.544 2.703)" fill="#955ba5"/>
      <path id="Shape-13" data-name="Shape" d="M7.386,14.386H6.193a1.193,1.193,0,1,1,0-2.386H7.386a1.193,1.193,0,1,1,0,2.386Z" transform="translate(0.965 2.317)" fill="#955ba5"/>
      <path id="Shape-14" data-name="Shape" d="M41.193,3.579A1.193,1.193,0,0,1,40,2.386V1.193a1.193,1.193,0,0,1,2.386,0V2.386A1.193,1.193,0,0,1,41.193,3.579Z" transform="translate(7.723)" fill="#f0c419"/>
      <path id="Shape-15" data-name="Shape" d="M39.386,5.386H38.193a1.193,1.193,0,0,1,0-2.386h1.193a1.193,1.193,0,0,1,0,2.386Z" transform="translate(7.143 0.579)" fill="#f0c419"/>
      <path id="Shape-16" data-name="Shape" d="M41.193,8.579A1.193,1.193,0,0,1,40,7.386V6.193a1.193,1.193,0,0,1,2.386,0V7.386A1.193,1.193,0,0,1,41.193,8.579Z" transform="translate(7.723 0.965)" fill="#f0c419"/>
      <path id="Shape-17" data-name="Shape" d="M44.386,5.386H43.193a1.193,1.193,0,1,1,0-2.386h1.193a1.193,1.193,0,1,1,0,2.386Z" transform="translate(8.109 0.579)" fill="#f0c419"/>
      <g id="Group_1661" data-name="Group 1661" transform="translate(7.158 10.738)">
        <path id="Shape-18" data-name="Shape" d="M49.193,12.579A1.193,1.193,0,0,1,48,11.386V10.193a1.193,1.193,0,0,1,2.386,0v1.193A1.193,1.193,0,0,1,49.193,12.579Z" transform="translate(2.109 -9)" fill="#ff5364"/>
        <path id="Shape-19" data-name="Shape" d="M47.386,14.386H46.193a1.193,1.193,0,1,1,0-2.386h1.193a1.193,1.193,0,0,1,0,2.386Z" transform="translate(1.53 -8.421)" fill="#ff5364"/>
        <path id="Shape-20" data-name="Shape" d="M49.193,17.579A1.193,1.193,0,0,1,48,16.386V15.193a1.193,1.193,0,1,1,2.386,0v1.193A1.193,1.193,0,0,1,49.193,17.579Z" transform="translate(2.109 -8.035)" fill="#ff5364"/>
        <path id="Shape-21" data-name="Shape" d="M52.386,14.386H51.193a1.193,1.193,0,0,1,0-2.386h1.193a1.193,1.193,0,0,1,0,2.386Z" transform="translate(2.496 -8.421)" fill="#ff5364"/>
        <path id="Shape-22" data-name="Shape" d="M60.882,39.772v.895l-2.148,1.611a2.4,2.4,0,0,1-2.863,0l-1.909-1.432a2.4,2.4,0,0,0-2.863,0L49.19,42.278a2.4,2.4,0,0,1-2.863,0l-1.909-1.432a2.4,2.4,0,0,0-2.863,0l-1.909,1.432a2.4,2.4,0,0,1-2.863,0l-1.909-1.432a2.4,2.4,0,0,0-2.863,0L30.1,42.278a2.4,2.4,0,0,1-2.863,0l-1.909-1.432a2.4,2.4,0,0,0-2.863,0l-1.909,1.432a2.4,2.4,0,0,1-2.863,0l-1.909-1.432a2.4,2.4,0,0,0-2.863,0l-1.909,1.432a2.4,2.4,0,0,1-2.863,0L6,40.667v-.895A4.772,4.772,0,0,1,10.772,35H56.109A4.772,4.772,0,0,1,60.882,39.772Z" transform="translate(-6 -3.98)" fill="#ff5364"/>
      </g>
      <path id="Shape-23" data-name="Shape" d="M60.882,39.8v7.457H6V39.8l2.148,1.611a2.4,2.4,0,0,0,2.863,0l1.909-1.432a2.4,2.4,0,0,1,2.863,0l1.909,1.432a2.4,2.4,0,0,0,2.863,0l1.909-1.432a2.4,2.4,0,0,1,2.863,0l1.909,1.432a2.4,2.4,0,0,0,2.863,0l1.909-1.432a2.4,2.4,0,0,1,2.863,0l1.909,1.432a2.4,2.4,0,0,0,2.863,0l1.909-1.432a2.4,2.4,0,0,1,2.863,0l1.909,1.432a2.4,2.4,0,0,0,2.863,0L51.1,39.977a2.4,2.4,0,0,1,2.863,0l1.909,1.432a2.4,2.4,0,0,0,2.863,0Z" transform="translate(1.158 7.627)" fill="#f9eab0"/>
      <path id="Rectangle-path" d="M6,45H60.882v2.386H6Z" transform="translate(1.158 8.689)" fill="#e64c3c"/>
      <path id="Shape-24" data-name="Shape" d="M51.179,23.772l-3.341,2.505a2.4,2.4,0,0,1-2.863,0l-1.909-1.432a2.4,2.4,0,0,0-2.863,0l-1.909,1.432a2.4,2.4,0,0,1-2.863,0l-1.909-1.432a2.4,2.4,0,0,0-2.863,0l-1.909,1.432a2.4,2.4,0,0,1-2.863,0l-1.909-1.432a2.4,2.4,0,0,0-2.863,0L19.2,26.278a2.4,2.4,0,0,1-2.863,0L13,23.772A4.772,4.772,0,0,1,17.772,19H46.406A4.772,4.772,0,0,1,51.179,23.772Z" transform="translate(2.509 3.669)" fill="#ff5364"/>
      <path id="Shape-25" data-name="Shape" d="M51.179,23v7.158H13V23l3.341,2.505a2.4,2.4,0,0,0,2.863,0l1.909-1.432a2.4,2.4,0,0,1,2.863,0l1.909,1.432a2.4,2.4,0,0,0,2.863,0l1.909-1.432a2.4,2.4,0,0,1,2.863,0l1.909,1.432a2.4,2.4,0,0,0,2.863,0L40.2,24.074a2.4,2.4,0,0,1,2.863,0l1.909,1.432a2.4,2.4,0,0,0,2.863,0Z" transform="translate(2.509 4.441)" fill="#f9eab0"/>
      <path id="Rectangle-path-2" data-name="Rectangle-path" d="M13,28H51.179v2.386H13Z" transform="translate(2.509 5.406)" fill="#e64c3c"/>
      <path id="Shape-26" data-name="Shape" d="M68.006,53H1.193A1.193,1.193,0,0,0,.126,54.726l2.057,4.113a2.386,2.386,0,0,0,2.134,1.32H64.881a2.386,2.386,0,0,0,2.134-1.32l2.056-4.113A1.193,1.193,0,0,0,68.006,53Z" transform="translate(-0.001 10.233)" fill="#7d6599"/>
    </g>
  </g>
</svg>
