<svg id="cinema" xmlns="http://www.w3.org/2000/svg" width="74.709" height="74.709" viewBox="0 0 74.709 74.709">
  <rect id="Rectangle_450" data-name="Rectangle 450" width="72" height="34" transform="translate(1.443 1.443)" fill="#7fcccb"/>
  <path id="Path_870" data-name="Path 870" d="M80.219,41.619H8l30.382-4.483A57.73,57.73,0,0,0,80.219,8h0Z" transform="translate(-6.755 -6.755)" fill="#2bb3ce"/>
  <g id="Group_1666" data-name="Group 1666" transform="translate(1.245 1.245)">
    <path id="Path_871" data-name="Path 871" d="M364.981,44.109h0a13.366,13.366,0,0,1,9.712-11.082l.249-.125h0a26.148,26.148,0,0,1-14.319-20.047L360,8h17.432V44.109Z" transform="translate(-305.213 -8)" fill="#dd1c4b"/>
    <path id="Path_872" data-name="Path 872" d="M20.451,44.109h0a13.366,13.366,0,0,0-9.712-11.082L10.49,32.9h0A26.148,26.148,0,0,0,24.81,12.856L25.432,8H8V44.109Z" transform="translate(-8 -8)" fill="#dd1c4b"/>
  </g>
  <g id="Group_1667" data-name="Group 1667" transform="translate(1.245 1.245)">
    <path id="Path_873" data-name="Path 873" d="M8,8V44.109h6.226A12.744,12.744,0,0,0,9.37,34.024L8,32.9H8A30.281,30.281,0,0,0,18.335,14.1L19.206,8Z" transform="translate(-8 -8)" fill="#e3472c"/>
    <path id="Path_874" data-name="Path 874" d="M411.206,8V44.109h-6.226a12.744,12.744,0,0,1,4.856-10.086l1.37-1.121h0a30.281,30.281,0,0,1-10.335-18.8L400,8Z" transform="translate(-338.988 -8)" fill="#e3472c"/>
  </g>
  <path id="Path_875" data-name="Path 875" d="M79.721,292.545a1.533,1.533,0,0,0-1.245-.623H73.993v-7.844a2.174,2.174,0,0,0-.5-1.494,1.532,1.532,0,0,0-1.245-.623H67.767v-7.844a2.174,2.174,0,0,0-.5-1.494A1.533,1.533,0,0,0,66.024,272H58.3a1.533,1.533,0,0,0-1.245.623,2.174,2.174,0,0,0-.5,1.494,2.3,2.3,0,0,0-.623-1.494,2,2,0,0,0-1.37-.623H45.977a2,2,0,0,0-1.37.623,1.076,1.076,0,0,0-.374.747,1.579,1.579,0,0,0-.125.747,2.3,2.3,0,0,0-.623-1.494,2,2,0,0,0-1.37-.623H33.526a2,2,0,0,0-1.37.623,1.076,1.076,0,0,0-.374.747,1.579,1.579,0,0,0-.125.747,2.174,2.174,0,0,0-.5-1.494A1.532,1.532,0,0,0,29.915,272h-7.72a1.532,1.532,0,0,0-1.245.623,2.174,2.174,0,0,0-.5,1.494v7.844H15.969a1.532,1.532,0,0,0-1.245.623,2.174,2.174,0,0,0-.5,1.494v7.844H9.743a1.533,1.533,0,0,0-1.245.623,2.174,2.174,0,0,0-.5,1.494v9.09H80.219v-9.09A2.174,2.174,0,0,0,79.721,292.545Zm-54.164-9.214a1.579,1.579,0,0,0-.125.747,2.119,2.119,0,0,0-.125-.872l.249.125Zm12.2-.125h.374v.125a.915.915,0,0,0-.249.747C37.884,283.829,37.759,283.455,37.759,283.206Zm12.451,0h.374v.125a.915.915,0,0,0-.249.747C50.335,283.829,50.211,283.455,50.211,283.206Zm12.451,0h.374a1.185,1.185,0,0,0-.249.872C62.787,283.829,62.662,283.455,62.662,283.206ZM19.206,294.039a2.119,2.119,0,0,0-.125-.872h.374v.125A.915.915,0,0,0,19.206,294.039Zm12.451,0c0-.249-.125-.623-.125-.872h.374v.125A.915.915,0,0,0,31.658,294.039Zm12.451,0c0-.249-.125-.623-.125-.872h.374v.125A.915.915,0,0,0,44.109,294.039Zm12.451,0c0-.249-.125-.623-.125-.872h.374v.125A.915.915,0,0,0,56.561,294.039Zm12.327-.872h.374a1.185,1.185,0,0,0-.249.872C69.012,293.79,68.888,293.417,68.888,293.167Z" transform="translate(-6.755 -229.665)" fill="#dd1c4b"/>
  <path id="Path_876" data-name="Path 876" d="M1.245,38.6H13.7a1.176,1.176,0,0,0,1.245-1.245V37.23a3.636,3.636,0,0,0-.249-1.121H60.016c-.125.374-.125.747-.249,1.121a1.167,1.167,0,0,0,1,1.37H73.339a1.176,1.176,0,0,0,1.245-1.245V0H1.245A1.176,1.176,0,0,0,0,1.245V37.354A1.176,1.176,0,0,0,1.245,38.6Zm7.346-2.49a14.72,14.72,0,0,0-3.486-8.218,12.361,12.361,0,0,1,7.1,8.218Zm57.526,0H62.631a12.638,12.638,0,0,1,7.1-8.218,14.065,14.065,0,0,0-3.611,8.218Zm6.1,0H68.608a11.826,11.826,0,0,1,3.611-7.346Zm0-33.619V23.284A29.246,29.246,0,0,1,64.374,7.222L63.752,2.49h8.467Zm-11.082,0,.747,4.981a31.725,31.725,0,0,0,7.471,16.311A25.2,25.2,0,0,1,57.9,5.977L57.4,2.49ZM19.8,2.49H54.911l.5,3.86A27.859,27.859,0,0,0,67.985,26.024a15.06,15.06,0,0,0-7.222,7.72H13.946a15.06,15.06,0,0,0-7.222-7.72A27.859,27.859,0,0,0,19.3,6.35ZM12.825,7.471l.747-4.981h3.735l-.5,3.486A24.955,24.955,0,0,1,5.354,23.782,31.725,31.725,0,0,0,12.825,7.471ZM2.49,2.49h8.467L10.335,7.1A29.6,29.6,0,0,1,2.49,23.284Zm0,26.273A10.954,10.954,0,0,1,6.1,36.109H2.49Z"/>
  <path id="Path_877" data-name="Path 877" d="M74.709,296.374v-9.09a3.476,3.476,0,0,0-.747-2.241,3.026,3.026,0,0,0-2.241-1.121H68.483v-6.6a3.476,3.476,0,0,0-.747-2.241,3.026,3.026,0,0,0-2.241-1.121H62.257v-6.6a3.476,3.476,0,0,0-.747-2.241A3.026,3.026,0,0,0,59.269,264h-7.72a2.975,2.975,0,0,0-1.743.623A3.355,3.355,0,0,0,47.938,264H39.347a3.053,3.053,0,0,0-1.992.747A2.745,2.745,0,0,0,35.487,264H26.9a3.058,3.058,0,0,0-1.868.623A2.975,2.975,0,0,0,23.284,264h-7.72a2.828,2.828,0,0,0-2.241,1.121,3,3,0,0,0-.872,2.241v6.6H9.214a2.828,2.828,0,0,0-2.241,1.121,3.476,3.476,0,0,0-.747,2.241v6.6H2.988a2.828,2.828,0,0,0-2.241,1.121A3.476,3.476,0,0,0,0,287.284v10.335H74.709ZM51.051,267.362a1.77,1.77,0,0,1,.249-.747c.125-.125.125-.125.249-.125h7.72a.435.435,0,0,1,.249.125,1.77,1.77,0,0,1,.249.747v6.6H57.775a2.975,2.975,0,0,0-1.743.623,3.355,3.355,0,0,0-1.868-.623H51.051v-6.6Zm-12.451,0a.951.951,0,0,1,.249-.623.647.647,0,0,1,.5-.249h8.592a.864.864,0,0,1,.747.872v6.6H45.572a3.053,3.053,0,0,0-1.992.747,2.745,2.745,0,0,0-1.868-.747H38.6v-6.6Zm-12.451,0a.951.951,0,0,1,.249-.623.647.647,0,0,1,.5-.249h8.592a.864.864,0,0,1,.747.872v6.6H33.121a3.053,3.053,0,0,0-1.992.747,2.745,2.745,0,0,0-1.868-.747H26.148Zm-11.206,0a1.77,1.77,0,0,1,.249-.747c.125-.125.125-.125.249-.125h7.72a.435.435,0,0,1,.249.125,1.77,1.77,0,0,1,.249.747v6.6H20.669a3.058,3.058,0,0,0-1.868.623,2.975,2.975,0,0,0-1.743-.623H14.942Zm-3.735,27.767H2.49v-7.844a1.77,1.77,0,0,1,.249-.747.435.435,0,0,1,.249-.125h7.72a.435.435,0,0,1,.249.125,1.77,1.77,0,0,1,.249.747Zm-.5-11.206H8.716v-6.6a1.77,1.77,0,0,1,.249-.747.435.435,0,0,1,.249-.125h7.72a.435.435,0,0,1,.249.125,1.77,1.77,0,0,1,.249.747v6.6H14.444a3.059,3.059,0,0,0-1.868.623,3.705,3.705,0,0,0-1.868-.623Zm12.95,11.206H13.7v-7.844a.951.951,0,0,1,.249-.623.647.647,0,0,1,.5-.249h8.592a.864.864,0,0,1,.747.872Zm-.747-11.206H19.922v-6.6a.951.951,0,0,1,.249-.623.647.647,0,0,1,.5-.249h8.592a.864.864,0,0,1,.747.872v6.6H26.9a3.053,3.053,0,0,0-1.992.747,2.828,2.828,0,0,0-1.992-.747Zm13.2,11.206H26.148v-7.844a.951.951,0,0,1,.249-.623.647.647,0,0,1,.5-.249h8.592a.864.864,0,0,1,.747.872Zm-.747-11.206H32.374v-6.6a.951.951,0,0,1,.249-.623.647.647,0,0,1,.5-.249h8.592a.864.864,0,0,1,.747.872v6.6H39.347a3.053,3.053,0,0,0-1.992.747,2.828,2.828,0,0,0-1.992-.747Zm13.2,11.206H38.6v-7.844a.951.951,0,0,1,.249-.623.647.647,0,0,1,.5-.249h8.592a.864.864,0,0,1,.747.872Zm-.747-11.206H44.825v-6.6a.951.951,0,0,1,.249-.623.647.647,0,0,1,.5-.249h8.592a.864.864,0,0,1,.747.872v6.6H51.8a3.053,3.053,0,0,0-1.992.747,2.828,2.828,0,0,0-1.992-.747Zm13.2,11.206H51.051v-7.844a.951.951,0,0,1,.249-.623.647.647,0,0,1,.5-.249H60.39a.864.864,0,0,1,.747.872Zm-.747-11.206H57.277v-6.6a1.77,1.77,0,0,1,.249-.747c.125-.125.125-.125.249-.125h7.72a.435.435,0,0,1,.249.125,1.77,1.77,0,0,1,.249.747v6.6H64a2.975,2.975,0,0,0-1.743.623,3.763,3.763,0,0,0-1.992-.623Zm11.953,11.206H63.5v-7.844a1.77,1.77,0,0,1,.249-.747c.125-.125.125-.125.249-.125h7.72a.435.435,0,0,1,.249.125,1.77,1.77,0,0,1,.249.747Z" transform="translate(0 -222.91)"/>
</svg>
