<svg xmlns="http://www.w3.org/2000/svg" width="21.41" height="20.518" viewBox="0 0 21.41 20.518">
  <path id="star_1_" data-name="star (1)" d="M21.354,8.245a1.136,1.136,0,0,0-.98-.782L14.2,6.9,11.752,1.182a1.138,1.138,0,0,0-2.093,0L7.215,6.9l-6.181.561A1.139,1.139,0,0,0,.389,9.454l4.671,4.1L3.683,19.617a1.136,1.136,0,0,0,1.692,1.229l5.33-3.186,5.329,3.186a1.138,1.138,0,0,0,1.693-1.229L16.35,13.55l4.671-4.1a1.138,1.138,0,0,0,.334-1.21Zm0,0" transform="translate(0 -0.491)" fill="#ffc107"/>
</svg>
