<svg xmlns="http://www.w3.org/2000/svg" xmlns:xlink="http://www.w3.org/1999/xlink" width="61.93" height="76.083" viewBox="0 0 61.93 76.083">
  <defs>
    <filter id="Path_552" x="0" y="36.873" width="38.625" height="39.21" filterUnits="userSpaceOnUse">
      <feOffset dy="3" input="SourceAlpha"/>
      <feGaussianBlur stdDeviation="3" result="blur"/>
      <feFlood flood-opacity="0.161"/>
      <feComposite operator="in" in2="blur"/>
      <feComposite in="SourceGraphic"/>
    </filter>
    <filter id="Path_553" x="23.305" y="36.873" width="38.625" height="39.21" filterUnits="userSpaceOnUse">
      <feOffset dy="3" input="SourceAlpha"/>
      <feGaussianBlur stdDeviation="3" result="blur-2"/>
      <feFlood flood-opacity="0.161"/>
      <feComposite operator="in" in2="blur-2"/>
      <feComposite in="SourceGraphic"/>
    </filter>
  </defs>
  <g id="medal" transform="translate(7.931)">
    <path id="Path_550" data-name="Path 550" d="M105.248,44.911l2.93-4.755,5.288-1.8.586-5.554,3.979-3.917-1.892-5.258,1.892-5.258-3.979-3.917-.586-5.554-5.288-1.8-2.93-4.755L99.7,3,95,0,90.288,3.005l-5.543-.669-2.93,4.755-5.288,1.8-.586,5.554-3.979,3.917,1.892,5.258-1.892,5.258L75.941,32.8l.586,5.554,5.288,1.8,2.93,4.755,5.543-.669L95,47.247,99.7,44.242ZM78.8,23.623A16.2,16.2,0,1,1,95,39.823,16.218,16.218,0,0,1,78.8,23.623Z" transform="translate(-71.962 0)" fill="#fe6684"/>
    <path id="Path_551" data-name="Path 551" d="M169.032,89.333a12.442,12.442,0,1,0,12.442,12.442A12.456,12.456,0,0,0,169.032,89.333Z" transform="translate(-145.998 -78.152)" fill="#fe6684"/>
    <g transform="matrix(1, 0, 0, 1, -7.93, 0)" filter="url(#Path_552)">
      <path id="Path_552-2" data-name="Path 552" d="M96.881,347.8l-6.594.8L86.8,342.939l-1.184-.4L80.511,358.5l9.2-.506,7.195,5.75,4.234-13.234Z" transform="translate(-71.51 -299.66)" fill="#fe6684"/>
    </g>
    <g transform="matrix(1, 0, 0, 1, -7.93, 0)" filter="url(#Path_553)">
      <path id="Path_553-2" data-name="Path 553" d="M281.034,342.939l-3.484,5.653-6.593-.8-4.255,2.716,4.234,13.234L278.13,358l9.2.506-5.108-15.966Z" transform="translate(-234.4 -299.66)" fill="#fe6684"/>
    </g>
  </g>
</svg>
