<svg xmlns="http://www.w3.org/2000/svg" width="19.449" height="18.639" viewBox="0 0 19.449 18.639">
  <path id="star_2_" data-name="star (2)" d="M4.354,19.131a1.035,1.035,0,0,1-1.007-1.264L4.6,12.355.354,8.634A1.034,1.034,0,0,1,.94,6.825l5.615-.51,2.22-5.195a1.034,1.034,0,0,1,1.9,0l2.22,5.2,5.614.51A1.035,1.035,0,0,1,19.1,8.634l-4.243,3.721L16.1,17.866a1.033,1.033,0,0,1-1.538,1.117L9.725,16.09,4.884,18.984a1.036,1.036,0,0,1-.53.147Zm5.371-4.288a1.036,1.036,0,0,1,.53.147l4.569,2.733-1.181-5.2a1.034,1.034,0,0,1,.327-1.007L17.978,8l-5.3-.481a1.033,1.033,0,0,1-.859-.627l-2.092-4.9L7.63,6.892a1.03,1.03,0,0,1-.857.624L1.472,8l4.007,3.514a1.032,1.032,0,0,1,.327,1.008l-1.18,5.2L9.2,14.99a1.036,1.036,0,0,1,.53-.147ZM6.512,6.416v0Zm6.425,0v0Zm0,0" transform="translate(0 -0.492)" fill="#fff"/>
</svg>
