<svg xmlns="http://www.w3.org/2000/svg" width="76.931" height="63.019" viewBox="0 0 76.931 63.019">
  <g id="candle-light" transform="translate(-2 -24.672)">
    <path id="Path_815" data-name="Path 815" d="M104.266,105.06h14.491v31.578H104.266Z" transform="translate(-71.046 -55.847)" fill="#fcc24c"/>
    <path id="Path_816" data-name="Path 816" d="M115.74,57.824a5.386,5.386,0,0,1-4.665-8.081l4.665-8.08,4.665,8.08a5.386,5.386,0,0,1-4.665,8.081Z" transform="translate(-75.275 -11.804)" fill="#ff4397"/>
    <path id="Path_817" data-name="Path 817" d="M120.6,72.411a3.25,3.25,0,0,1-2.814-4.875l2.814-4.876,2.814,4.874a3.25,3.25,0,0,1-2.814,4.876Z" transform="translate(-80.139 -26.392)" fill="#fcc24c"/>
    <path id="Path_818" data-name="Path 818" d="M143.734,105.06h2.442v31.578h-2.442Z" transform="translate(-98.465 -55.847)" fill="#dea42e"/>
    <path id="Path_819" data-name="Path 819" d="M104.266,105.06h2.442v31.578h-2.442Z" transform="translate(-71.046 -55.847)" fill="#fce06a"/>
    <path id="Path_820" data-name="Path 820" d="M4,208.5H79.71v6.29H4Z" transform="translate(-1.389 -127.708)" fill="#f4efed"/>
    <path id="Path_821" data-name="Path 821" d="M195.081,151.68l-1.614-1.21V129.822h-2.536v20.647l-1.614,1.21-2.882,2.161h11.527Z" transform="translate(-128.131 -73.05)" fill="#f4efed"/>
    <path id="Path_822" data-name="Path 822" d="M196.573,153.062H185.046a.611.611,0,0,1-.366-1.1l4.252-3.188V128.433a.611.611,0,0,1,.611-.611h2.536a.611.611,0,0,1,.611.611v20.342l1.37,1.027,2.882,2.161a.611.611,0,0,1-.366,1.1Zm-9.7-1.221h7.863l-3.03-2.273a.611.611,0,0,1-.244-.488V129.043h-1.315V149.08a.611.611,0,0,1-.244.488Z" transform="translate(-126.742 -71.66)" fill="#690589"/>
    <path id="Path_823" data-name="Path 823" d="M179.854,79.187H195.4V91.551a7.773,7.773,0,1,1-15.546,0Z" transform="translate(-123.558 -37.873)" fill="#f4efed"/>
    <path id="Path_824" data-name="Path 824" d="M179.854,104.944v4.5a7.773,7.773,0,1,0,15.546,0v-4.5Z" transform="translate(-123.558 -55.767)" fill="#8852a8"/>
    <path id="Path_825" data-name="Path 825" d="M208.728,79.187V91.551a7.772,7.772,0,0,1-6.751,7.7,7.869,7.869,0,0,0,1.019.069,7.773,7.773,0,0,0,7.773-7.773V79.187Z" transform="translate(-138.928 -37.873)" fill="#d6d1cf"/>
    <path id="Path_826" data-name="Path 826" d="M181.895,79.187V91.551a7.772,7.772,0,0,0,6.751,7.7,7.861,7.861,0,0,1-1.019.069,7.773,7.773,0,0,1-7.773-7.773V79.187Z" transform="translate(-123.558 -37.873)" fill="#fff"/>
    <path id="Path_827" data-name="Path 827" d="M208.729,104.944v4.5a7.772,7.772,0,0,1-6.751,7.7,7.863,7.863,0,0,0,1.019.069,7.773,7.773,0,0,0,7.773-7.773v-4.5Z" transform="translate(-138.928 -55.767)" fill="#6a348a"/>
    <path id="Path_828" data-name="Path 828" d="M181.895,104.944v4.5a7.772,7.772,0,0,0,6.751,7.7,7.863,7.863,0,0,1-1.019.069,7.773,7.773,0,0,1-7.773-7.773v-4.5Z" transform="translate(-123.558 -55.767)" fill="#a670c6"/>
    <path id="Path_829" data-name="Path 829" d="M186.237,98.548a8.393,8.393,0,0,1-8.383-8.383V77.8a.611.611,0,0,1,.611-.611H194.01a.611.611,0,0,1,.611.611V90.164a8.393,8.393,0,0,1-8.383,8.383ZM179.075,78.41V90.164a7.162,7.162,0,1,0,14.324,0V78.41Z" transform="translate(-122.169 -36.485)" fill="#690589"/>
    <path id="Path_830" data-name="Path 830" d="M194.382,104.164H179.42a.611.611,0,0,1,0-1.221h14.962a.611.611,0,0,1,0,1.221Z" transform="translate(-122.832 -54.376)" fill="#690589"/>
    <path id="Path_831" data-name="Path 831" d="M40.451,151.68l-1.614-1.21V129.822H36.3v20.647l-1.614,1.21-2.882,2.161H43.333Z" transform="translate(-20.707 -73.05)" fill="#f4efed"/>
    <path id="Path_832" data-name="Path 832" d="M41.943,153.062H30.416a.611.611,0,0,1-.366-1.1l4.252-3.188V128.433a.611.611,0,0,1,.611-.611h2.536a.611.611,0,0,1,.611.611v20.342l4.251,3.189a.611.611,0,0,1-.366,1.1Zm-9.7-1.221h7.863L38.7,150.779l-1.614-1.21a.611.611,0,0,1-.244-.488V129.043H35.523V149.08a.611.611,0,0,1-.244.488Z" transform="translate(-19.317 -71.66)" fill="#690589"/>
    <path id="Path_833" data-name="Path 833" d="M25.224,79.187H40.77V91.551a7.773,7.773,0,0,1-15.546,0V79.188Z" transform="translate(-16.134 -37.873)" fill="#f4efed"/>
    <path id="Path_834" data-name="Path 834" d="M25.224,104.944v4.5a7.773,7.773,0,1,0,15.546,0v-4.5Z" transform="translate(-16.134 -55.767)" fill="#8852a8"/>
    <path id="Path_835" data-name="Path 835" d="M54.1,79.187V91.551a7.772,7.772,0,0,1-6.751,7.7,7.87,7.87,0,0,0,1.019.069,7.773,7.773,0,0,0,7.773-7.772V79.188Z" transform="translate(-31.503 -37.873)" fill="#d6d1cf"/>
    <path id="Path_836" data-name="Path 836" d="M27.265,79.187V91.551a7.772,7.772,0,0,0,6.751,7.7A7.863,7.863,0,0,1,33,99.324a7.773,7.773,0,0,1-7.773-7.772V79.188Z" transform="translate(-16.134 -37.873)" fill="#fff"/>
    <path id="Path_837" data-name="Path 837" d="M54.1,104.944v4.5a7.772,7.772,0,0,1-6.751,7.7,7.865,7.865,0,0,0,1.019.069,7.773,7.773,0,0,0,7.773-7.773v-4.5Z" transform="translate(-31.503 -55.767)" fill="#6a348a"/>
    <path id="Path_838" data-name="Path 838" d="M27.264,104.944v4.5a7.772,7.772,0,0,0,6.751,7.7,7.863,7.863,0,0,1-1.019.069,7.773,7.773,0,0,1-7.773-7.773v-4.5Z" transform="translate(-16.134 -55.767)" fill="#a670c6"/>
    <path id="Path_839" data-name="Path 839" d="M31.607,98.548a8.393,8.393,0,0,1-8.383-8.383V77.8a.611.611,0,0,1,.611-.611H39.38a.611.611,0,0,1,.611.611V90.164a8.393,8.393,0,0,1-8.383,8.383ZM24.445,78.41V90.164a7.162,7.162,0,0,0,14.324,0V78.41Z" transform="translate(-14.745 -36.485)" fill="#690589"/>
    <path id="Path_840" data-name="Path 840" d="M39.752,104.164H24.79a.611.611,0,0,1,0-1.221H39.752a.611.611,0,0,1,0,1.221Z" transform="translate(-15.408 -54.376)" fill="#690589"/>
    <path id="Path_841" data-name="Path 841" d="M189.32,39.511l5.872-5.872a3.949,3.949,0,0,0-5.585-5.584l-.288.288-.288-.288a3.949,3.949,0,1,0-5.584,5.585Z" transform="translate(-125.251 -1.546)" fill="#ff4397"/>
    <path id="Path_842" data-name="Path 842" d="M187.767,38.575a.609.609,0,0,1-.432-.179l-5.872-5.872a4.559,4.559,0,1,1,6.3-6.586,4.56,4.56,0,0,1,6.3,6.587L188.2,38.4A.608.608,0,0,1,187.767,38.575Zm-3.08-12.612a3.338,3.338,0,0,0-2.36,5.7l5.441,5.441,5.441-5.441a3.339,3.339,0,1,0-4.721-4.722l-.288.288a.611.611,0,0,1-.863,0l-.288-.288A3.316,3.316,0,0,0,184.687,25.963Z" transform="translate(-123.699 0)" fill="#690589"/>
    <path id="Path_843" data-name="Path 843" d="M34.69,39.511l5.872-5.872a3.949,3.949,0,1,0-5.584-5.584l-.288.288-.288-.288a3.949,3.949,0,1,0-5.585,5.585Z" transform="translate(-17.827 -1.546)" fill="#ff4397"/>
    <path id="Path_844" data-name="Path 844" d="M33.3,38.575a.609.609,0,0,1-.432-.179L27,32.524a4.559,4.559,0,0,1,6.3-6.586,4.559,4.559,0,1,1,6.3,6.587L33.735,38.4A.609.609,0,0,1,33.3,38.575ZM30.225,25.963a3.338,3.338,0,0,0-2.36,5.7L33.3,37.1l5.44-5.441a3.338,3.338,0,1,0-4.721-4.721l-.288.288a.611.611,0,0,1-.863,0l-.288-.288a3.316,3.316,0,0,0-2.359-.977Z" transform="translate(-16.441)" fill="#690589"/>
    <path id="Path_845" data-name="Path 845" d="M242,208.5h3.053v6.29H242Z" transform="translate(-166.732 -127.708)" fill="#d6d1cf"/>
    <path id="Path_846" data-name="Path 846" d="M4,208.5H7.053v6.29H4Z" transform="translate(-1.389 -127.708)" fill="#fff"/>
    <g id="Group_1662" data-name="Group 1662" transform="translate(2 29.248)">
      <path id="Path_847" data-name="Path 847" d="M78.32,214.01H2.611A.611.611,0,0,1,2,213.4v-6.289a.611.611,0,0,1,.611-.611H78.32a.611.611,0,0,1,.611.611V213.4A.611.611,0,0,1,78.32,214.01Zm-75.1-1.221H77.71v-5.068H3.221Z" transform="translate(-2 -155.568)" fill="#690589"/>
      <path id="Path_848" data-name="Path 848" d="M117.368,135.86H102.878a.611.611,0,0,1-.611-.611V103.672a.611.611,0,0,1,.611-.611h14.491a.611.611,0,0,1,.611.611V135.25A.611.611,0,0,1,117.368,135.86Zm-13.88-1.221h13.269V104.282H103.488Z" transform="translate(-71.657 -83.707)" fill="#690589"/>
      <path id="Path_849" data-name="Path 849" d="M114.352,57.045a6,6,0,0,1-5.194-9l4.665-8.08a.611.611,0,0,1,1.057,0l4.665,8.08a6,6,0,0,1-5.194,9Zm0-15.549-4.136,7.163a4.776,4.776,0,1,0,8.273,0Z" transform="translate(-75.886 -39.663)" fill="#690589"/>
      <path id="Path_850" data-name="Path 850" d="M119.216,71.635a3.861,3.861,0,0,1-3.343-5.791l2.814-4.875a.611.611,0,0,1,1.057,0l2.814,4.875a3.861,3.861,0,0,1-3.343,5.791Zm0-9.139-2.285,3.959a2.639,2.639,0,1,0,4.571,0Z" transform="translate(-80.75 -54.253)" fill="#690589"/>
      <path id="Path_851" data-name="Path 851" d="M126.611,90.606A.611.611,0,0,1,126,90v-6.01a.611.611,0,1,1,1.221,0V90A.611.611,0,0,1,126.611,90.606Z" transform="translate(-88.145 -70.031)" fill="#690589"/>
      <path id="Path_852" data-name="Path 852" d="M110.878,130.085a.611.611,0,0,1-.611-.611v-3.663a.611.611,0,0,1,1.221,0v3.663A.611.611,0,0,1,110.878,130.085Z" transform="translate(-77.215 -99.087)" fill="#690589"/>
    </g>
  </g>
</svg>
