<svg id="Group_1658" data-name="Group 1658" xmlns="http://www.w3.org/2000/svg" width="39.306" height="64.811" viewBox="0 0 39.306 64.811">
  <g id="carts" transform="translate(0)">
    <g id="Group_1605" data-name="Group 1605" transform="translate(10.036 28.434)">
      <ellipse id="Ellipse_384" data-name="Ellipse 384" cx="4.181" cy="4.181" rx="4.181" ry="4.181" transform="translate(16.726 0)" fill="#455a64"/>
      <ellipse id="Ellipse_385" data-name="Ellipse 385" cx="4.181" cy="4.181" rx="4.181" ry="4.181" transform="translate(0 0)" fill="#455a64"/>
    </g>
    <path id="Path_783" data-name="Path 783" d="M116.9,74.954a.836.836,0,0,0-.627-.283H86.167a.836.836,0,0,0-.82,1L88.693,92.4a.906.906,0,0,0,.93.669l25.089-3.345a.836.836,0,0,0,.719-.726L117.1,75.618A.836.836,0,0,0,116.9,74.954Z" transform="translate(-78.641 -69.653)" fill="#fe6684"/>
    <g id="Group_1606" data-name="Group 1606" transform="translate(11.712 8.344)">
      <path id="Path_784" data-name="Path 784" d="M151.89,129.338a.836.836,0,0,1-.825-.7L149.393,118.6a.836.836,0,0,1,1.649-.274l1.673,10.036a.836.836,0,0,1-.687.962A.8.8,0,0,1,151.89,129.338Z" transform="translate(-149.385 -117.61)" fill="#fafafa"/>
      <path id="Path_785" data-name="Path 785" d="M214.962,128.168a.836.836,0,0,1-.836-.761l-.836-9.2a.836.836,0,0,1,.754-.911h.007a.836.836,0,0,1,.908.758h0l.836,9.2a.836.836,0,0,1-.758.908h0Z" transform="translate(-208.275 -117.277)" fill="#fafafa"/>
      <path id="Path_786" data-name="Path 786" d="M278.169,127.373a.836.836,0,0,1-.836-.836v-8.363a.836.836,0,1,1,1.673,0v8.363A.836.836,0,0,1,278.169,127.373Z" transform="translate(-267.302 -117.318)" fill="#fafafa"/>
      <path id="Path_787" data-name="Path 787" d="M331.436,126.485h-.094a.836.836,0,0,1-.744-.92v-.009l.836-7.527a.848.848,0,0,1,.928-.744.836.836,0,0,1,.739.923h0l-.836,7.527A.836.836,0,0,1,331.436,126.485Z" transform="translate(-316.387 -117.267)" fill="#fafafa"/>
      <path id="Path_788" data-name="Path 788" d="M384.839,125.478a.836.836,0,0,1-.811-1.039l1.673-6.69a.836.836,0,1,1,1.632.367c0,.013-.006.025-.009.038l-1.673,6.69A.836.836,0,0,1,384.839,125.478Z" transform="translate(-365.608 -117.096)" fill="#fafafa"/>
    </g>
    <path id="Path_789" data-name="Path 789" d="M34.288,37.432h-19.3a5.871,5.871,0,0,1-5.74-4.705L5.168,12.343H.836a.836.836,0,0,1,0-1.673H5.854a.836.836,0,0,1,.82.669L10.885,32.4a4.193,4.193,0,0,0,4.1,3.362h19.3a.836.836,0,0,1,0,1.673Z" transform="translate(0 -10.67)" fill="#455a64"/>
  </g>
  <text id="Carts-2" data-name="Carts" transform="translate(3.306 60.811)" fill="#444" font-size="16" font-family="SegoeUI, Segoe UI" opacity="0.95"><tspan x="0" y="0">Carts</tspan></text>
</svg>
