<svg id="giftbox" xmlns="http://www.w3.org/2000/svg" width="151.455" height="151.354" viewBox="0 0 151.455 151.354">
  <path id="Path_1055" data-name="Path 1055" d="M161.049,283.12H42.833a5.606,5.606,0,0,1-5.607-5.607v-90.4h129.43v90.4A5.607,5.607,0,0,1,161.049,283.12Zm0,0" transform="translate(-26.215 -131.766)" fill="#ffc73b"/>
  <path id="Path_1056" data-name="Path 1056" d="M37.227,187.117h129.43v18.811H37.227Zm0,0" transform="translate(-26.215 -131.766)" fill="#efb025"/>
  <path id="Path_1057" data-name="Path 1057" d="M151.456,110.1v23.3a4.507,4.507,0,0,1-4.509,4.505H4.506A4.5,4.5,0,0,1,0,133.4V110.1a4.5,4.5,0,0,1,4.505-4.505H146.947A4.507,4.507,0,0,1,151.456,110.1Zm0,0" transform="translate(0 -74.358)" fill="#ffc73b"/>
  <path id="Path_1058" data-name="Path 1058" d="M129.508,99.067q-1.475,1.718-2.89,3.48a130.673,130.673,0,0,0-9.625,13.692q-1.34,2.191-2.592,4.429H83.684q2.692-6.108,5.894-11.976a158.47,158.47,0,0,1,13.208-20.339q1.766-2.31,3.618-4.561c.74-.9,1.492-1.795,2.254-2.682l8.409,7.243c.434.372.869.749,1.3,1.122q4.964,4.274,9.927,8.551c.406.344.808.694,1.212,1.041Zm0,0" transform="translate(-58.929 -57.117)" fill="#efb025"/>
  <path id="Path_1059" data-name="Path 1059" d="M284.424,120.667H253.7q-1.25-2.239-2.592-4.429a131.185,131.185,0,0,0-9.625-13.692q-1.418-1.761-2.895-3.48c.406-.347.808-.694,1.213-1.041q4.968-4.28,9.929-8.551c.434-.373.869-.75,1.3-1.122q4.2-3.623,8.409-7.243,1.144,1.328,2.254,2.68,1.856,2.252,3.618,4.563a158.744,158.744,0,0,1,13.21,20.339Q281.728,114.552,284.424,120.667Zm0,0" transform="translate(-168.015 -57.116)" fill="#efb025"/>
  <g id="Group_1959" data-name="Group 1959" transform="translate(18.054 23.994)">
    <path id="Path_1060" data-name="Path 1060" d="M118.7,99.071q-1.477,1.716-2.891,3.479a131.436,131.436,0,0,0-27.55,63.215,132.163,132.163,0,0,1-10.686-16.673,138.811,138.811,0,0,0-16.545,12.685A158.951,158.951,0,0,1,95.6,83.8c.74-.9,1.492-1.793,2.254-2.682q4.857,4.182,9.712,8.365,4.962,4.274,9.927,8.551c.4.344.807.695,1.212,1.042Zm0,0" transform="translate(-61.031 -81.113)" fill="#ff4440"/>
    <path id="Path_1061" data-name="Path 1061" d="M313.666,161.778a138.815,138.815,0,0,0-16.545-12.685,132.16,132.16,0,0,1-10.686,16.673,131.439,131.439,0,0,0-27.55-63.215q-1.418-1.761-2.893-3.479c.4-.348.807-.7,1.212-1.042q4.967-4.279,9.93-8.551,4.857-4.188,9.711-8.365,1.144,1.328,2.254,2.68a158.893,158.893,0,0,1,34.566,77.984Zm0,0" transform="translate(-198.321 -81.113)" fill="#ff4440"/>
    <path id="Path_1062" data-name="Path 1062" d="M215.234,141.82h24.117v21.6H215.234Zm0,0" transform="translate(-169.619 -123.862)" fill="#ff4440"/>
  </g>
  <path id="Path_1063" data-name="Path 1063" d="M295.928,115.074l-27.417,7.548a131.075,131.075,0,0,0-9.625-13.693l-1.681-4.521-1.212-3.261,11.143-5.29L279.1,90.171A158.576,158.576,0,0,1,295.928,115.074Zm0,0" transform="translate(-180.267 -63.498)" fill="#ea2f2f"/>
  <path id="Path_1064" data-name="Path 1064" d="M160.938,101.152l-1.212,3.261-1.679,4.521a130.74,130.74,0,0,0-9.625,13.693l-27.413-7.548a158.577,158.577,0,0,1,16.824-24.9L149.8,95.862Zm0,0" transform="translate(-85.212 -63.503)" fill="#ea2f2f"/>
  <path id="Path_1065" data-name="Path 1065" d="M299.752,1.049,256,21.828,264.4,44.433l46.7-12.855A10.8,10.8,0,0,0,318.36,17.4L314.505,7.039a10.8,10.8,0,0,0-14.754-5.99Zm0,0" transform="translate(-180.27 -0.001)" fill="#ff4440"/>
  <path id="Path_1066" data-name="Path 1066" d="M62.161,1.049l43.756,20.78L97.512,44.433,50.81,31.578A10.8,10.8,0,0,1,43.554,17.4L47.408,7.039a10.8,10.8,0,0,1,14.754-5.99Zm0,0" transform="translate(-30.191 -0.001)" fill="#ff4440"/>
  <path id="Path_1067" data-name="Path 1067" d="M285.569,63.828a2.412,2.412,0,0,1-1.3-4.443,118.537,118.537,0,0,1,17.26-8.886c13.043-5.276,21.754-4.993,25.886.841a2.412,2.412,0,1,1-3.936,2.788c-5.6-7.908-28.894,4.389-36.611,9.32A2.4,2.4,0,0,1,285.569,63.828Zm0,0" transform="translate(-199.395 -32.916)" fill="#ea2f2f"/>
  <path id="Path_1068" data-name="Path 1068" d="M119.2,63.828a2.4,2.4,0,0,1-1.3-.379C110.189,58.517,86.9,46.22,81.3,54.129A2.412,2.412,0,1,1,77.36,51.34c4.132-5.834,12.841-6.117,25.886-.841a118.4,118.4,0,0,1,17.26,8.886,2.411,2.411,0,0,1-1.3,4.443Zm0,0" transform="translate(-54.163 -32.916)" fill="#ea2f2f"/>
  <path id="Path_1069" data-name="Path 1069" d="M230.335,47.523H216.612a6.8,6.8,0,0,0-6.8,6.8V74.261a6.8,6.8,0,0,0,6.8,6.8h13.723a6.8,6.8,0,0,0,6.8-6.8V54.325A6.8,6.8,0,0,0,230.335,47.523Zm0,0" transform="translate(-147.747 -33.466)" fill="#ea2f2f"/>
  <path id="Path_1070" data-name="Path 1070" d="M215.234,214.836h24.117v87.8H215.234Zm0,0" transform="translate(-151.565 -151.285)" fill="#ff4440"/>
  <path id="Path_1071" data-name="Path 1071" d="M215.234,214.836h24.117v10.611H215.234Zm0,0" transform="translate(-151.565 -151.285)" fill="#ea2f2f"/>
</svg>
