<svg xmlns="http://www.w3.org/2000/svg" width="38.561" height="112.707" viewBox="0 0 38.561 112.707">
  <path id="Shape_11" data-name="Shape 11" d="M.256,112.442a.808.808,0,0,1,.058-1.131l1.718-1.571L.313,108.172a.808.808,0,0,1-.059-1.131.782.782,0,0,1,1.116-.06l1.843,1.681,1.841-1.683a.783.783,0,0,1,1.116.059.807.807,0,0,1-.058,1.131l-1.718,1.57,1.719,1.569a.806.806,0,0,1,.059,1.131.782.782,0,0,1-1.116.06l-1.843-1.681L1.372,112.5a.783.783,0,0,1-1.116-.059Zm15.818-.007a.809.809,0,0,1,.058-1.131l1.718-1.571-1.719-1.569a.808.808,0,0,1-.059-1.131.782.782,0,0,1,1.116-.06l1.843,1.681,1.841-1.683a.782.782,0,0,1,1.116.059.806.806,0,0,1-.058,1.131l-1.718,1.57,1.72,1.569a.807.807,0,0,1,.059,1.131.782.782,0,0,1-1.116.06l-1.842-1.681-1.841,1.683a.783.783,0,0,1-1.116-.059Zm16.369-.007A.808.808,0,0,1,32.5,111.3l1.718-1.57L32.5,108.158a.809.809,0,0,1-.059-1.131.782.782,0,0,1,1.116-.06l1.843,1.681,1.841-1.683a.782.782,0,0,1,1.116.059.807.807,0,0,1-.058,1.131l-1.718,1.57,1.719,1.569a.806.806,0,0,1,.059,1.131.782.782,0,0,1-1.116.06L35.4,110.8l-1.841,1.683a.782.782,0,0,1-1.116-.059ZM.248,94.649a.807.807,0,0,1,.058-1.131l1.718-1.57L.3,90.379a.808.808,0,0,1-.059-1.131.782.782,0,0,1,1.116-.06L3.2,90.869l1.841-1.683a.783.783,0,0,1,1.116.059A.806.806,0,0,1,6.1,90.376L4.384,91.947,6.1,93.515a.807.807,0,0,1,.059,1.131.783.783,0,0,1-1.116.06L3.2,93.025,1.363,94.708a.782.782,0,0,1-1.116-.059Zm15.818-.007a.809.809,0,0,1,.058-1.131l1.718-1.57-1.719-1.569a.808.808,0,0,1-.059-1.131.782.782,0,0,1,1.116-.06l1.843,1.681,1.841-1.683a.783.783,0,0,1,1.116.059.806.806,0,0,1-.058,1.131L20.2,91.94l1.72,1.569a.807.807,0,0,1,.059,1.131.782.782,0,0,1-1.116.06l-1.843-1.681L17.182,94.7a.782.782,0,0,1-1.116-.059Zm16.369-.007a.809.809,0,0,1,.058-1.131l1.718-1.57-1.719-1.569a.809.809,0,0,1-.059-1.131.783.783,0,0,1,1.116-.06l1.843,1.681,1.841-1.683a.783.783,0,0,1,1.116.059.807.807,0,0,1-.058,1.131l-1.718,1.57L38.29,93.5a.807.807,0,0,1,.059,1.131.783.783,0,0,1-1.116.06l-1.842-1.681L33.55,94.694a.782.782,0,0,1-1.116-.059ZM.239,76.856A.808.808,0,0,1,.3,75.725l1.718-1.57L.3,72.586a.808.808,0,0,1-.059-1.131.782.782,0,0,1,1.116-.06l1.842,1.681,1.841-1.683a.782.782,0,0,1,1.116.059.807.807,0,0,1-.058,1.131l-1.718,1.57,1.719,1.569a.806.806,0,0,1,.059,1.131.782.782,0,0,1-1.116.06L3.2,75.232,1.355,76.914a.782.782,0,0,1-1.116-.059Zm15.818-.007a.809.809,0,0,1,.058-1.131l1.718-1.57-1.719-1.569a.808.808,0,0,1-.059-1.131.783.783,0,0,1,1.116-.06l1.843,1.681,1.841-1.683a.783.783,0,0,1,1.116.059.807.807,0,0,1-.058,1.131l-1.718,1.57,1.72,1.569a.807.807,0,0,1,.059,1.131.783.783,0,0,1-1.116.06l-1.843-1.681-1.841,1.683a.783.783,0,0,1-1.116-.059Zm16.369-.007a.809.809,0,0,1,.058-1.131L34.2,74.14l-1.72-1.569a.809.809,0,0,1-.059-1.131.783.783,0,0,1,1.116-.06l1.843,1.681,1.841-1.683a.783.783,0,0,1,1.116.059.807.807,0,0,1-.058,1.131l-1.718,1.57,1.719,1.569a.806.806,0,0,1,.059,1.131.782.782,0,0,1-1.116.06l-1.842-1.681L33.542,76.9a.782.782,0,0,1-1.116-.059ZM.231,59.062a.808.808,0,0,1,.058-1.131l1.718-1.57L.288,54.792a.807.807,0,0,1-.059-1.131.782.782,0,0,1,1.116-.06l1.842,1.681L5.027,53.6a.783.783,0,0,1,1.116.059.807.807,0,0,1-.058,1.131L4.367,56.36l1.719,1.569a.807.807,0,0,1,.059,1.131.782.782,0,0,1-1.116.06L3.187,57.438,1.346,59.121a.783.783,0,0,1-1.116-.059Zm15.818-.007a.809.809,0,0,1,.058-1.131l1.718-1.571-1.719-1.569a.809.809,0,0,1-.059-1.131.783.783,0,0,1,1.116-.06L19,55.276l1.841-1.683a.783.783,0,0,1,1.116.059.807.807,0,0,1-.058,1.131l-1.718,1.57L21.9,57.922a.806.806,0,0,1,.059,1.131.782.782,0,0,1-1.116.06l-1.843-1.682-1.841,1.683a.782.782,0,0,1-1.116-.059Zm16.369-.007a.807.807,0,0,1,.058-1.131l1.718-1.57-1.72-1.569a.808.808,0,0,1-.059-1.131.783.783,0,0,1,1.116-.06l1.843,1.682,1.841-1.683a.782.782,0,0,1,1.116.059.807.807,0,0,1-.058,1.131l-1.718,1.571,1.719,1.569a.806.806,0,0,1,.059,1.131.782.782,0,0,1-1.116.06l-1.842-1.681-1.841,1.683a.782.782,0,0,1-1.116-.059ZM.222,41.269A.807.807,0,0,1,.28,40.138L2,38.568.279,37A.807.807,0,0,1,.22,35.868a.783.783,0,0,1,1.116-.06L3.178,37.49l1.841-1.683a.782.782,0,0,1,1.116.059A.806.806,0,0,1,6.076,37L4.359,38.567l1.719,1.569a.806.806,0,0,1,.059,1.131.782.782,0,0,1-1.115.06L3.179,39.645,1.338,41.328a.782.782,0,0,1-1.116-.059Zm15.818-.007a.809.809,0,0,1,.058-1.131l1.718-1.57L16.1,36.992a.808.808,0,0,1-.059-1.131.783.783,0,0,1,1.116-.06L19,37.483,20.837,35.8a.783.783,0,0,1,1.116.059.806.806,0,0,1-.058,1.131L20.177,38.56l1.72,1.569a.807.807,0,0,1,.059,1.131.782.782,0,0,1-1.116.06L19,39.638l-1.841,1.683a.783.783,0,0,1-1.116-.059Zm16.369-.007a.809.809,0,0,1,.058-1.131l1.718-1.57-1.72-1.569a.809.809,0,0,1-.059-1.131.783.783,0,0,1,1.116-.06l1.842,1.681,1.841-1.683a.783.783,0,0,1,1.116.059.807.807,0,0,1-.058,1.131l-1.718,1.571,1.719,1.569a.807.807,0,0,1,.059,1.131.783.783,0,0,1-1.116.06l-1.843-1.681-1.841,1.683a.782.782,0,0,1-1.116-.059ZM.214,23.476a.808.808,0,0,1,.058-1.131l1.718-1.57L.27,19.205a.808.808,0,0,1-.059-1.131.783.783,0,0,1,1.116-.06L3.169,19.7l1.841-1.683a.782.782,0,0,1,1.116.059A.807.807,0,0,1,6.068,19.2L4.35,20.774l1.719,1.569a.807.807,0,0,1,.059,1.131.783.783,0,0,1-1.116.06L3.17,21.852,1.33,23.535a.782.782,0,0,1-1.116-.059Zm15.818-.007a.809.809,0,0,1,.058-1.131l1.718-1.57L16.089,19.2a.808.808,0,0,1-.059-1.131.782.782,0,0,1,1.116-.06l1.842,1.681,1.841-1.683a.782.782,0,0,1,1.116.059.806.806,0,0,1-.058,1.131l-1.718,1.571,1.719,1.569a.807.807,0,0,1,.059,1.131.783.783,0,0,1-1.116.06l-1.843-1.681-1.841,1.683a.783.783,0,0,1-1.116-.059ZM32.4,23.462a.808.808,0,0,1,.058-1.131l1.718-1.57-1.72-1.569a.808.808,0,0,1-.059-1.131A.782.782,0,0,1,33.514,18l1.843,1.681L37.2,18a.782.782,0,0,1,1.116.059.807.807,0,0,1-.058,1.131l-1.718,1.57,1.719,1.569a.806.806,0,0,1,.059,1.131.782.782,0,0,1-1.116.06l-1.843-1.681L33.517,23.52a.782.782,0,0,1-1.116-.059ZM.206,5.683A.808.808,0,0,1,.263,4.551l1.718-1.57L.262,1.413A.808.808,0,0,1,.2.282.782.782,0,0,1,1.319.222L3.161,1.9,5,.22A.782.782,0,0,1,6.118.279.807.807,0,0,1,6.059,1.41L4.342,2.98,6.061,4.549A.806.806,0,0,1,6.12,5.68.782.782,0,0,1,5,5.74L3.162,4.059,1.321,5.741A.782.782,0,0,1,.206,5.683Zm15.818-.007a.809.809,0,0,1,.058-1.131L17.8,2.974,16.081,1.406A.808.808,0,0,1,16.021.275a.782.782,0,0,1,1.116-.06L18.979,1.9,20.82.213a.782.782,0,0,1,1.116.059A.806.806,0,0,1,21.878,1.4L20.16,2.973l1.719,1.569a.807.807,0,0,1,.059,1.131.782.782,0,0,1-1.116.06L18.98,4.052,17.14,5.734a.782.782,0,0,1-1.116-.059Zm16.369-.007a.807.807,0,0,1,.058-1.131l1.718-1.57L32.449,1.4A.808.808,0,0,1,32.39.268a.782.782,0,0,1,1.116-.06l1.842,1.681L37.189.206A.782.782,0,0,1,38.3.265.807.807,0,0,1,38.246,1.4L36.529,2.966l1.719,1.569a.806.806,0,0,1,.059,1.131.782.782,0,0,1-1.116.06L35.349,4.045,33.508,5.728a.782.782,0,0,1-1.116-.059Z" fill="#fe6684" opacity="0.58"/>
</svg>
