<svg id="login" xmlns="http://www.w3.org/2000/svg" width="30.642" height="30.644" viewBox="0 0 30.642 30.644">
  <path id="Path_775" data-name="Path 775" d="M161.787,90.917v19.869a.9.9,0,0,1-.9.9h-8.977a.9.9,0,0,1-.9-.9V90.917a.9.9,0,0,1,.9-.9h8.977A.9.9,0,0,1,161.787,90.917Z" transform="translate(-141.977 -84.632)" fill="#35569b"/>
  <path id="Path_776" data-name="Path 776" d="M161.787,256.019v10.832a.9.9,0,0,1-.9.9h-8.977a.9.9,0,0,1-.9-.9V256.019Z" transform="translate(-141.977 -240.697)" fill="#1a3459"/>
  <path id="Path_777" data-name="Path 777" d="M313.144,5.482,302.312.1a.9.9,0,0,0-1.3.8V29.746a.9.9,0,0,0,1.18.852l10.832-3.591a.9.9,0,0,0,.615-.852V6.285a.9.9,0,0,0-.5-.8Z" transform="translate(-283 0)" fill="#fe6684"/>
  <path id="Path_778" data-name="Path 778" d="M313.642,256.019v10.832a.9.9,0,0,1-.615.852l-10.832,3.591a.9.9,0,0,1-1.18-.852V256.019Z" transform="translate(-283 -240.697)" fill="#fe6684"/>
  <path id="Path_779" data-name="Path 779" d="M362.809,211.917v3.591a.9.9,0,0,1-1.8,0v-3.591a.9.9,0,0,1,1.8,0Z" transform="translate(-339.409 -198.39)" fill="#35569b"/>
  <path id="Path_780" data-name="Path 780" d="M362.809,256.019v1.8a.9.9,0,1,1-1.8,0v-1.8Z" transform="translate(-339.409 -240.697)" fill="#1a3459"/>
  <path id="Path_781" data-name="Path 781" d="M14.078,156.567,6.9,151.18a.9.9,0,0,0-1.436.718v2.693H.912a.9.9,0,0,0-.9.9v3.591a.9.9,0,0,0,.9.9H5.46v2.693a.9.9,0,0,0,1.436.718L14.078,158a.9.9,0,0,0,0-1.436Z" transform="translate(-0.014 -141.963)" fill="#ffda2d"/>
  <path id="Path_782" data-name="Path 782" d="M14.437,256.019a.892.892,0,0,1-.359.718L6.9,262.123a.9.9,0,0,1-1.436-.718v-2.693H.912a.9.9,0,0,1-.9-.9v-1.8Z" transform="translate(-0.014 -240.697)" fill="#fdbf00"/>
</svg>
