<svg xmlns="http://www.w3.org/2000/svg" width="20.485" height="20.528" viewBox="0 0 20.485 20.528">
  <g id="phone-call" transform="translate(-0.539)">
    <g id="Group_641" data-name="Group 641" transform="translate(0.539 0)">
      <path id="Path_632" data-name="Path 632" d="M20.488,15.066,17.623,12.2a1.905,1.905,0,0,0-3.172.716A1.95,1.95,0,0,1,12.2,14.145a8.834,8.834,0,0,1-5.32-5.32A1.854,1.854,0,0,1,8.107,6.574,1.905,1.905,0,0,0,8.824,3.4L5.959.537A2.043,2.043,0,0,0,3.2.537L1.252,2.481c-1.944,2.046.2,7.469,5.013,12.278s10.232,7.06,12.278,5.013l1.944-1.944A2.043,2.043,0,0,0,20.488,15.066Z" transform="translate(-0.539 0)" fill="#f9c841"/>
    </g>
  </g>
</svg>
