<svg id="rings" xmlns="http://www.w3.org/2000/svg" width="164.812" height="149.039" viewBox="0 0 164.812 149.039">
  <g id="Group_1960" data-name="Group 1960" transform="translate(49.134 38.679)">
    <path id="Path_1072" data-name="Path 1072" d="M174.148,156.077a55.3,55.3,0,0,0-13.208,72.912c0,.009.009.019.009.028a54.87,54.87,0,0,0,13.227,14.592c.019.009.038.028.056.038.451.358.921.7,1.391,1.036A55.136,55.136,0,0,0,246.7,160.872a56.586,56.586,0,0,0-6.919-5.878,54.95,54.95,0,0,0-47.058-8.252c-.085.028-.573.122-.658.141l.357,10.758,12.9,3.891a38.368,38.368,0,1,1-13.565,73.214,37.468,37.468,0,0,1-6.364-3.711,38.451,38.451,0,0,1,1.448-63.4c.226-.151,1.391-.791,1.626-.942l-3.149-10.372-10.811-.546C174.421,155.832,174.233,156.011,174.148,156.077Z" transform="translate(-152.638 -144.66)" fill="#fece85" fill-rule="evenodd"/>
  </g>
  <g id="Group_1961" data-name="Group 1961" transform="translate(33.197 0)">
    <path id="Path_1073" data-name="Path 1073" d="M112.262,24.5c-1.635,0-1.767.744-2.679,2.1l-5.81,8.2c-.893,1.413-.874,1.771.16,3.212l12.014,16.758,8.855,5.709,9.222-5.709,12.023-16.758c1.025-1.441,1.053-1.8.16-3.212L140.4,26.6c-.912-1.356-1.044-2.1-2.679-2.1H112.262Z" transform="translate(-103.128 -24.5)" fill="#2ed1e2" fill-rule="evenodd"/>
  </g>
  <g id="Group_1962" data-name="Group 1962" transform="translate(0 29.523)">
    <path id="Path_1074" data-name="Path 1074" d="M55.058,116.214A55.174,55.174,0,1,0,70.672,224.32a54.876,54.876,0,0,1-13.226-14.592c0-.009-.009-.019-.009-.028-.874.057-1.485.075-2.378.075a38.319,38.319,0,1,1,19.252-5.2,38.18,38.18,0,0,0,7.577,7.169,37.476,37.476,0,0,0,6.364,3.711,55.639,55.639,0,0,0,21.865-44.068,54.976,54.976,0,0,0-8.3-29.146,55.635,55.635,0,0,0-13.254-14.648,54.948,54.948,0,0,0-33.5-11.379Z" transform="translate(0 -116.214)" fill="#fece85" fill-rule="evenodd"/>
  </g>
  <g id="Group_1963" data-name="Group 1963" transform="translate(128.475 17.059)">
    <path id="Path_1075" data-name="Path 1075" d="M399.118,84.138l.019,20.639,4.4,9.524,10.3,1.027,19.506-6.6c1.673-.565,1.9-.848,1.993-2.515l.047-10.051c.047-1.63.376-2.317-.959-3.278l-1.288-.923-1.7-1.224-7.351-5.275-7.351-5.285-1.711-1.225-1.288-.923c-1.325-.961-1.87-.424-3.393.141l-9.484,3.269C399.306,82.066,399.118,82.367,399.118,84.138Z" transform="translate(-399.118 -77.496)" fill="#2ed1e2" fill-rule="evenodd"/>
  </g>
  <g id="Group_1964" data-name="Group 1964" transform="translate(98.432 43.323)">
    <path id="Path_1076" data-name="Path 1076" d="M305.785,264.5a55.18,55.18,0,0,0,44.755-93.844,55.771,55.771,0,0,0-6.909-5.878,54.608,54.608,0,0,0-7.783-4.672c-.714-.358-1.438-.7-2.162-1.018a129.159,129.159,0,0,1,2.745,21.346,38.41,38.41,0,0,1-15.492,66.4A69.206,69.206,0,0,1,305.785,264.5Z" transform="translate(-305.785 -159.087)" fill="#fdb440" fill-rule="evenodd"/>
  </g>
  <g id="Group_1965" data-name="Group 1965" transform="translate(41.023 29.833)">
    <path id="Path_1077" data-name="Path 1077" d="M127.442,225.407a55.426,55.426,0,0,0,29.649-.433,54.875,54.875,0,0,1-13.227-14.592c0-.009-.009-.019-.009-.028-.874.057-1.485.075-2.378.075-1.034,0-2.059-.047-3.065-.122A77.17,77.17,0,0,1,127.442,225.407Zm23.642-90.528a37.535,37.535,0,0,1,6.336,2.261,38.43,38.43,0,0,1,3.309,68.089,38.18,38.18,0,0,0,7.577,7.169,37.471,37.471,0,0,0,6.364,3.711,55.639,55.639,0,0,0,21.865-44.068,54.976,54.976,0,0,0-8.3-29.146,55.634,55.634,0,0,0-13.255-14.648,54.8,54.8,0,0,0-24.469-10.635c-1.053-.179-2.115-.32-3.2-.433A122.113,122.113,0,0,1,151.084,134.88Z" transform="translate(-127.442 -117.179)" fill="#fdb440" fill-rule="evenodd"/>
  </g>
  <g id="Group_1966" data-name="Group 1966" transform="translate(33.296 0)">
    <path id="Path_1078" data-name="Path 1078" d="M109.792,26.6l-5.81,8.186V34.8a5.546,5.546,0,0,0-.545,1.018h43.524a5.544,5.544,0,0,0-.545-1.018l-5.809-8.2c-.912-1.356-1.044-2.1-2.679-2.1H112.471a1.988,1.988,0,0,0-1.908.895c-.226.32-.451.716-.771,1.2V26.6Z" transform="translate(-103.437 -24.5)" fill="#99e6fc" fill-rule="evenodd"/>
  </g>
  <g id="Group_1967" data-name="Group 1967" transform="translate(129.181 17.059)">
    <path id="Path_1079" data-name="Path 1079" d="M401.309,81.943l33.964,26.621a2.4,2.4,0,0,0,1.185-.735,3.131,3.131,0,0,0,.367-1.62l.047-10.051c.047-1.63.376-2.317-.959-3.278l-1.288-.923-1.7-1.224-7.351-5.275-7.351-5.285-1.711-1.224-1.288-.923c-1.325-.961-1.87-.424-3.393.141l-9.485,3.269A5.287,5.287,0,0,0,401.309,81.943Z" transform="translate(-401.309 -77.496)" fill="#99e6fc" fill-rule="evenodd"/>
  </g>
  <g id="Group_1968" data-name="Group 1968" transform="translate(58.132 0)">
    <path id="Path_1080" data-name="Path 1080" d="M180.592,24.5l5.471,8.431c.761,1.319.855,1.8.235,2.883H199.28a5.553,5.553,0,0,0-.545-1.018l-5.809-8.2c-.912-1.356-1.044-2.1-2.679-2.1h-9.654Z" transform="translate(-180.592 -24.5)" fill="#2ed1e2" fill-rule="evenodd"/>
  </g>
  <g id="Group_1969" data-name="Group 1969" transform="translate(51.853 11.314)">
    <path id="Path_1081" data-name="Path 1081" d="M172.675,60.279,161.084,77.941c1.062-.057,2.134-.085,3.206-.085a55,55,0,0,1,9.043.735l12.014-16.749v-.009a.206.206,0,0,0,.038-.047c.705-.989.912-1.46.667-2.138H173.07C172.966,59.836,172.835,60.043,172.675,60.279Z" transform="translate(-161.084 -59.648)" fill="#00b1cd" fill-rule="evenodd"/>
  </g>
  <g id="Group_1970" data-name="Group 1970" transform="translate(134.953 41.402)">
    <path id="Path_1082" data-name="Path 1082" d="M420.565,160.728a54.246,54.246,0,0,1,6.919,5.878L446.99,160c.16-.057.31-.113.442-.16l-8.582-6.726a8.059,8.059,0,0,1-.94.358L419.24,159.8Q419.9,160.248,420.565,160.728Z" transform="translate(-419.24 -153.117)" fill="#00b1cd" fill-rule="evenodd"/>
  </g>
  <g id="Group_1971" data-name="Group 1971" transform="translate(154.562 26.075)">
    <path id="Path_1083" data-name="Path 1083" d="M481.219,118.674c-.075,1.29-.226,1.752-1.062,2.157l8.583,6.726a2.47,2.47,0,0,0,1.175-.725l.009-.009a3.128,3.128,0,0,0,.367-1.62l.047-10.051c.047-1.63.376-2.317-.959-3.278l-1.288-.923-1.7-1.225L480.5,105.5c1.1.876.8,1.573.761,3.118Z" transform="translate(-480.157 -105.505)" fill="#2ed1e2" fill-rule="evenodd"/>
  </g>
</svg>
