<svg xmlns="http://www.w3.org/2000/svg" width="74.368" height="57.445" viewBox="0 0 74.368 57.445">
  <g id="car" transform="translate(0 -56.489)">
    <path id="Path_967" data-name="Path 967" d="M79.079,88.416A10.892,10.892,0,0,0,76.8,82.339a18.725,18.725,0,0,1-3.632-7.1A86.81,86.81,0,0,0,67.1,62.173a10.479,10.479,0,0,0-7.679-5.059c-6.435-.832-26.548-.832-32.983,0a10.492,10.492,0,0,0-7.676,5.059,87.054,87.054,0,0,0-6.068,13.066,18.725,18.725,0,0,1-3.632,7.1,10.889,10.889,0,0,0-2.275,6.077c-.23,4.79,1.157,5.843,2.4,16.682a1.686,1.686,0,0,0,1.678,1.494H75.005a1.688,1.688,0,0,0,1.678-1.494c.349-3.04,1.383-9.206,1.383-9.206A22.575,22.575,0,0,0,79.079,88.416Z" transform="translate(-5.749)" fill="#e95353"/>
    <path id="Path_968" data-name="Path 968" d="M113.051,81.6a93.488,93.488,0,0,0-5.713-12.1,9.452,9.452,0,0,0-6.828-4.59c-6.449-.855-26.285-.848-32.688,0a9.452,9.452,0,0,0-6.828,4.59,95.125,95.125,0,0,0-5.736,12.1A368.507,368.507,0,0,0,113.051,81.6Z" transform="translate(-46.982 -6.617)" fill="#168de2"/>
    <path id="Path_969" data-name="Path 969" d="M377.3,215.263a10.617,10.617,0,0,0-1.989.874,24.453,24.453,0,0,1-3.226,1.546c-1.85.7-2.164,1.75-2.164,1.75-.056.072-.109.144-.16.218a2.957,2.957,0,0,0,2.928,4.506A35.723,35.723,0,0,0,380.755,222a2.893,2.893,0,0,0,1.757-1.971c.021-.086.039-.172.056-.256A4.062,4.062,0,0,0,377.3,215.263Z" transform="translate(-313.956 -134.827)" fill="#fff"/>
    <path id="Path_970" data-name="Path 970" d="M421.948,327.857h-4a.677.677,0,0,0-.479,1.155l4,4a.677.677,0,0,0,1.155-.479v-4A.676.676,0,0,0,421.948,327.857Z" transform="translate(-354.763 -230.719)" fill="#ffe21f"/>
    <path id="Path_971" data-name="Path 971" d="M420.282,335.4a1.69,1.69,0,0,1-1.68,1.5h-7.7v4.471a2.868,2.868,0,0,0,2.868,2.868H418.6a2.868,2.868,0,0,0,2.868-2.868v-14C421.153,329.313,420.535,333.188,420.282,335.4Z" transform="translate(-349.348 -230.309)" fill="#454545"/>
    <path id="Path_972" data-name="Path 972" d="M453.658,149.164a2.309,2.309,0,0,0-2.278-1.748h-1.934a2.243,2.243,0,0,0-2.243,2.243v1.378h-1.025l.588,1.4h2.254a8.122,8.122,0,0,0,3.382-.737A2.241,2.241,0,0,0,453.658,149.164Z" transform="translate(-379.345 -77.306)" fill="#ed6262"/>
    <circle id="Ellipse_407" data-name="Ellipse 407" cx="2.819" cy="2.819" r="2.819" transform="translate(61.789 81.228)" fill="#ffbd49"/>
    <circle id="Ellipse_408" data-name="Ellipse 408" cx="2.071" cy="2.071" r="2.071" transform="translate(56.866 84.2)" fill="#ffdb6f"/>
    <path id="Path_973" data-name="Path 973" d="M171.613,255.324l-3.237,5.638h-26.3l-3.237-5.638Z" transform="translate(-118.042 -169.051)" fill="#6f6f6f"/>
    <path id="Path_974" data-name="Path 974" d="M50.827,219.646c-.049-.074-.1-.146-.16-.218,0,0-.314-1.048-2.164-1.75a24.592,24.592,0,0,1-3.226-1.546,10.681,10.681,0,0,0-1.989-.874,4.065,4.065,0,0,0-5.276,4.511c.016.086.035.17.053.256A2.893,2.893,0,0,0,39.823,222a35.713,35.713,0,0,0,8.074,2.157A2.958,2.958,0,0,0,50.827,219.646Z" transform="translate(-32.262 -134.823)" fill="#fff"/>
    <path id="Path_975" data-name="Path 975" d="M48.117,327.857h-4a.675.675,0,0,0-.676.676v4a.677.677,0,0,0,1.155.479l4-4A.677.677,0,0,0,48.117,327.857Z" transform="translate(-36.93 -230.719)" fill="#ffe21f"/>
    <path id="Path_976" data-name="Path 976" d="M82.651,334.841c-4.169-7.214-8.964-6.988-8.964-6.988H38.29s-4.792-.225-8.964,6.988H22.119l.088.93a1.69,1.69,0,0,0,1.685,1.536h64.2a1.69,1.69,0,0,0,1.685-1.536l.088-.93Z" transform="translate(-18.806 -230.714)" fill="#777"/>
    <path id="Path_977" data-name="Path 977" d="M17.852,336.918a1.692,1.692,0,0,1-1.68-1.5c-.253-2.215-.874-6.091-1.19-8.027v14a2.868,2.868,0,0,0,2.868,2.868h4.839a2.868,2.868,0,0,0,2.868-2.868v-4.471h-7.7Z" transform="translate(-12.738 -230.323)" fill="#454545"/>
    <path id="Path_978" data-name="Path 978" d="M6.506,151.037v-1.378a2.242,2.242,0,0,0-2.24-2.243H2.332a2.31,2.31,0,0,0-2.278,1.748,2.241,2.241,0,0,0,1.255,2.531,8.128,8.128,0,0,0,3.382.737H6.945l.588-1.4H6.506v0Z" transform="translate(0 -77.306)" fill="#ed6262"/>
    <circle id="Ellipse_409" data-name="Ellipse 409" cx="2.819" cy="2.819" r="2.819" transform="translate(6.938 81.228)" fill="#ffbd49"/>
    <circle id="Ellipse_410" data-name="Ellipse 410" cx="2.071" cy="2.071" r="2.071" transform="translate(13.362 84.2)" fill="#ffdb6f"/>
    <g id="Group_1686" data-name="Group 1686" transform="translate(21.348 99.112)">
      <path id="Path_979" data-name="Path 979" d="M173.34,341.029H143.364a.848.848,0,1,0,0,1.7h29.973a.848.848,0,0,0,0-1.7Z" transform="translate(-142.516 -341.029)" fill="#6f6f6f"/>
      <path id="Path_980" data-name="Path 980" d="M173.34,363.635H143.364a.848.848,0,1,0,0,1.7h29.973a.848.848,0,0,0,0-1.7Z" transform="translate(-142.516 -360.249)" fill="#6f6f6f"/>
    </g>
    <path id="Path_981" data-name="Path 981" d="M109.9,90.7v.29a2.053,2.053,0,0,1-2.152,2.057,2.147,2.147,0,0,1-1.941-2.175V86.7a1.721,1.721,0,0,0-1.8-1.706h-.07a1.723,1.723,0,0,0-1.8,1.706v3.772A2.053,2.053,0,0,1,99.958,92.5a2.125,2.125,0,0,1-1.941-2.152V87.073a1.821,1.821,0,0,0-1.824-1.8h-.139a1.717,1.717,0,0,0-1.708,1.708v4.265A2.074,2.074,0,0,1,92.17,93.3a2.128,2.128,0,0,1-1.917-2.175V85.409A1.631,1.631,0,0,0,88.521,83.8h-.139A1.72,1.72,0,0,0,86.652,85.5v5.845a2.046,2.046,0,0,1-4.09.07V86.513a2.149,2.149,0,0,0-1.941-2.175,2.054,2.054,0,0,0-2.152,2.057l-.023,4.532a2.053,2.053,0,0,1-2.152,2.057,2.13,2.13,0,0,1-1.929-2.089V85.576a2.129,2.129,0,0,0-1.934-2.157,2.058,2.058,0,0,0-2.159,2.052v5.571a2.069,2.069,0,0,1-2.164,2,2.128,2.128,0,0,1-1.917-2.175V86.7a1.741,1.741,0,0,0-1.824-1.706H64.32A1.73,1.73,0,0,0,62.5,86.7v3.772A2.034,2.034,0,0,1,60.344,92.5a2.08,2.08,0,0,1-1.906-1.876c-1.081,2.238-2.152,4.662-3.193,7.251a367.926,367.926,0,0,0,57.792,0Q111.482,93.986,109.9,90.7Z" transform="translate(-46.97 -22.894)" fill="#3aa2eb"/>
  </g>
</svg>
