<svg xmlns="http://www.w3.org/2000/svg" width="92.016" height="87.179" viewBox="0 0 92.016 87.179">
  <g id="wedding-couple" transform="translate(0 -13.455)">
    <path id="Path_878" data-name="Path 878" d="M355.713,322.288l-1.379-.277a2.1,2.1,0,0,1-1.683-2.055v-1.987H343.63v2.037a2.1,2.1,0,0,1-1.683,2.055l-1.129.227v7.586h14.895v-7.586Z" transform="translate(-279.567 -249.788)" fill="#fed9a8"/>
    <path id="Path_879" data-name="Path 879" d="M384.84,317.969v3.7a2.1,2.1,0,0,0,1.683,2.055l5.3,1.055v-2.493l-1.379-.277a2.1,2.1,0,0,1-1.683-2.055v-1.987Z" transform="translate(-315.677 -249.788)" fill="#f4c892"/>
    <path id="Path_880" data-name="Path 880" d="M283.278,342l-4.091,1.075a13.2,13.2,0,0,1-6.71,0L268.386,342l-8.8,2.591a9.854,9.854,0,0,0-7.071,9.453v16.08h46.634v-16.08a9.854,9.854,0,0,0-7.071-9.453Z" transform="translate(-207.133 -269.5)" fill="#4d4a5b"/>
    <path id="Path_881" data-name="Path 881" d="M408.934,344.592l-8.8-2.591-5.161,1.356,4.195,1.235a9.854,9.854,0,0,1,7.071,9.453v16.08H416v-16.08A9.854,9.854,0,0,0,408.934,344.592Z" transform="translate(-323.989 -269.501)" fill="#444251"/>
    <path id="Path_882" data-name="Path 882" d="M43.542,158.727c-7.113-16.9-19.287-15.972-19.5-15.954-.216-.018-12.39-.948-19.5,15.954A58.547,58.547,0,0,0,.005,177.646a3.058,3.058,0,0,0,2.128,3.094l21.906,6.937,21.906-6.937a3.058,3.058,0,0,0,2.128-3.094A58.552,58.552,0,0,0,43.542,158.727Z" transform="translate(0 -106.065)" fill="#d4fff8"/>
    <path id="Path_883" data-name="Path 883" d="M135.538,177.646a58.545,58.545,0,0,0-4.531-18.919c-7.113-16.9-19.287-15.972-19.5-15.954a13.821,13.821,0,0,0-4.876.73c4.237,1.342,10.347,5.055,14.627,15.224a58.552,58.552,0,0,1,4.531,18.919,3.058,3.058,0,0,1-2.128,3.094l-17.03,5.393,4.876,1.544,21.906-6.937A3.058,3.058,0,0,0,135.538,177.646Z" transform="translate(-87.465 -106.065)" fill="#c6f4eb"/>
    <path id="Path_884" data-name="Path 884" d="M51.218,335.091l-8.053-2.371h0l-1.262-.254a1.918,1.918,0,0,1-1.54-1.881v-1.819H32.105v1.865a1.918,1.918,0,0,1-1.54,1.881l-1.034.208h0l-8.053,2.371a9.02,9.02,0,0,0-6.472,8.652v15.535H57.691V343.743A9.02,9.02,0,0,0,51.218,335.091Z" transform="translate(-12.309 -258.644)" fill="#fed9a8"/>
    <path id="Path_885" data-name="Path 885" d="M148.63,335.091l-8.053-2.371h0l-1.262-.254a1.918,1.918,0,0,1-1.54-1.881v-1.819H133.76v2.212a3.483,3.483,0,0,0,2.5,3.341l2.621.772a9.02,9.02,0,0,1,6.472,8.652v15.535h9.75V343.743A9.02,9.02,0,0,0,148.63,335.091Z" transform="translate(-109.721 -258.644)" fill="#f4c892"/>
    <circle id="Ellipse_406" data-name="Ellipse 406" cx="5.214" cy="5.214" r="5.214" transform="translate(18.826 34.772)" fill="#ff901d"/>
    <g id="Group_1668" data-name="Group 1668" transform="translate(8.101 55.424)">
      <path id="Path_886" data-name="Path 886" d="M200.4,253.032h-2.457v-6.051H200.4a1.947,1.947,0,0,1,1.947,1.947v2.157A1.947,1.947,0,0,1,200.4,253.032Z" transform="translate(-170.468 -246.981)" fill="#f4cfa6"/>
      <path id="Path_887" data-name="Path 887" d="M47.021,253.032h2.457v-6.051H47.021a1.947,1.947,0,0,0-1.947,1.947v2.157A1.947,1.947,0,0,0,47.021,253.032Z" transform="translate(-45.074 -246.981)" fill="#f4cfa6"/>
    </g>
    <path id="Path_888" data-name="Path 888" d="M78.161,207.027h0A12.181,12.181,0,0,1,65.98,194.845v-3.423a12.181,12.181,0,0,1,12.181-12.181h0a12.181,12.181,0,0,1,12.181,12.181v3.423A12.181,12.181,0,0,1,78.161,207.027Z" transform="translate(-54.122 -135.991)" fill="#fed9a8"/>
    <path id="Path_889" data-name="Path 889" d="M139.058,185.765V202.4a12.164,12.164,0,0,1-5.195,9.976A12.181,12.181,0,0,0,146.026,200.2v-3.423A12.179,12.179,0,0,0,139.058,185.765Z" transform="translate(-109.805 -141.343)" fill="#f4cfa2"/>
    <path id="Path_890" data-name="Path 890" d="M82.691,176.838v-.185a14.328,14.328,0,0,0-14.328-14.328h0a14.328,14.328,0,0,0-14.328,14.328v.185a.7.7,0,0,0,.7.7h1.842a1.237,1.237,0,0,0,1.132-.738l1.025-3.848A1.885,1.885,0,0,1,61.775,172c2.667,2.253,7.348,5.54,11.949,5.54H81.99A.7.7,0,0,0,82.691,176.838Z" transform="translate(-44.325 -122.115)" fill="#ff901d"/>
    <path id="Path_891" data-name="Path 891" d="M112.935,162.325h0a14.3,14.3,0,0,0-4.563.746,13.629,13.629,0,0,1,9.179,12.88v1.558c.248.019.5.03.744.03h8.266a.7.7,0,0,0,.7-.7v-.185A14.328,14.328,0,0,0,112.935,162.325Z" transform="translate(-88.895 -122.115)" fill="#ff6d3a"/>
    <path id="Path_892" data-name="Path 892" d="M81.251,397.947a1.87,1.87,0,0,0-.365-1.115,8,8,0,0,0-12.582-.354,2.313,2.313,0,0,1-3.568,0,8,8,0,0,0-12.582.354,1.87,1.87,0,0,0-.365,1.115v14.506H81.251V397.947Z" transform="translate(-42.48 -311.819)" fill="#fffcfd"/>
    <path id="Path_893" data-name="Path 893" d="M162.09,396.832a8,8,0,0,0-11.307-1.581,8.06,8.06,0,0,1,1.555,1.581,1.87,1.87,0,0,1,.365,1.115v14.506h9.752V397.947A1.871,1.871,0,0,0,162.09,396.832Z" transform="translate(-123.684 -311.819)" fill="#f2f2f2"/>
    <g id="Group_1669" data-name="Group 1669" transform="translate(51.927 84.517)">
      <path id="Path_894" data-name="Path 894" d="M291.714,424.971V410.253a1.39,1.39,0,1,0-2.781,0v14.717h2.781Z" transform="translate(-288.933 -408.863)" fill="#3a3847"/>
      <path id="Path_895" data-name="Path 895" d="M461.767,424.971V410.253a1.39,1.39,0,1,0-2.781,0v14.717h2.781Z" transform="translate(-428.424 -408.863)" fill="#3a3847"/>
    </g>
    <g id="Group_1670" data-name="Group 1670" transform="translate(52.267 53.245)">
      <path id="Path_896" data-name="Path 896" d="M450.125,241.108h-2.711v-6.249h2.711a2.011,2.011,0,0,1,2.011,2.011V239.1A2.011,2.011,0,0,1,450.125,241.108Z" transform="translate(-419.273 -234.859)" fill="#f4cfa6"/>
      <path id="Path_897" data-name="Path 897" d="M292.839,241.108h2.711v-6.249h-2.711a2.011,2.011,0,0,0-2.011,2.011V239.1A2.011,2.011,0,0,0,292.839,241.108Z" transform="translate(-290.828 -234.859)" fill="#f4cfa6"/>
    </g>
    <path id="Path_898" data-name="Path 898" d="M324.832,193.592h0a12.581,12.581,0,0,1-12.581-12.581v-3.536a12.581,12.581,0,0,1,12.581-12.581h0a12.581,12.581,0,0,1,12.581,12.581v3.536A12.581,12.581,0,0,1,324.832,193.592Z" transform="translate(-256.134 -124.223)" fill="#ffdfb8"/>
    <path id="Path_899" data-name="Path 899" d="M389.851,172.25v17.4a12.163,12.163,0,0,1-5.179,9.965,12.579,12.579,0,0,0,12.147-12.57v-3.536A12.579,12.579,0,0,0,389.851,172.25Z" transform="translate(-315.539 -130.257)" fill="#f4cfa2"/>
    <path id="Path_900" data-name="Path 900" d="M199.281,13.455a7.674,7.674,0,0,0-6.058,2.954,7.688,7.688,0,0,0-13.746,4.734c0,9.659,13.746,15.038,13.746,15.038s13.746-5.379,13.746-15.038A7.688,7.688,0,0,0,199.281,13.455Z" transform="translate(-147.222)" fill="#ff6991"/>
    <path id="Path_901" data-name="Path 901" d="M262.81,13.455a7.65,7.65,0,0,0-4.7,1.61,7.676,7.676,0,0,1,1.622,1.173c.033.029.064.061.1.091l.083.081a5.6,5.6,0,0,1,.453.5,7.7,7.7,0,0,1,1.059,1.67c3.034,6.5-1.8,14.069-4.493,17.532,1.581-.658,13.573-5.945,13.573-14.968A7.689,7.689,0,0,0,262.81,13.455Z" transform="translate(-210.751)" fill="#ff507e"/>
    <path id="Path_902" data-name="Path 902" d="M323.361,342l-3.762,6.643a.491.491,0,0,0,.038.541l11.171,17.3Z" transform="translate(-262.109 -269.5)" fill="#666277"/>
    <path id="Path_903" data-name="Path 903" d="M326.159,161.262h.927a2,2,0,0,1,.826.179v-3.2a13.106,13.106,0,0,0-13.106-13.106h-4.282a13.106,13.106,0,0,0-13.106,13.106v3.2a2,2,0,0,1,.826-.179h1.84a12.553,12.553,0,0,1,.777-4.354c5.563-1.576,11.217,2.726,17.366,2.726a12.693,12.693,0,0,0,6.585-1.528h.033a12.6,12.6,0,0,1,.4,3.156Z" transform="translate(-243.967 -108.016)" fill="#ff901d"/>
    <path id="Path_904" data-name="Path 904" d="M373.5,161.262h.927a2,2,0,0,1,.826.179v-3.2a13.106,13.106,0,0,0-13.106-13.106h-4.282a13.153,13.153,0,0,0-2.734.288A13.109,13.109,0,0,1,365.5,158.243v1.389h.065a12.693,12.693,0,0,0,6.585-1.528h.033a12.6,12.6,0,0,1,.4,3.156Z" transform="translate(-291.307 -108.016)" fill="#ff6d3a"/>
    <path id="Path_905" data-name="Path 905" d="M355.717,342l-4.112,1.08a13.122,13.122,0,0,1-6.668,0L340.825,342l7.446,24.487Z" transform="translate(-279.573 -269.5)" fill="#fffcfd"/>
    <path id="Path_906" data-name="Path 906" d="M372.9,387.395h-2.866l-.926,6.693L371.467,401l2.364-6.908Z" transform="translate(-302.768 -306.736)" fill="#f33a3a"/>
    <path id="Path_907" data-name="Path 907" d="M368.229,370.1l-3.074,1.462,1.5,2.6H369.8l1.5-2.6Z" transform="translate(-299.53 -292.553)" fill="#e25959"/>
    <path id="Path_908" data-name="Path 908" d="M389.7,342l3.762,6.643a.491.491,0,0,1-.038.541l-11.171,17.3Z" transform="translate(-313.558 -269.5)" fill="#666277"/>
    <path id="Path_909" data-name="Path 909" d="M372.087,387.395h-2.866l-1.1,7.972,2.541,8.357,2.542-8.359Z" transform="translate(-301.961 -306.736)" fill="#f33a3a"/>
    <path id="Path_910" data-name="Path 910" d="M368.229,362.625l-3.074,2.806,1.5,2.6H369.8l1.5-2.6Z" transform="translate(-299.53 -286.418)" fill="#e25959"/>
    <g id="Group_1671" data-name="Group 1671" transform="translate(17.955 56.817)">
      <path id="Path_911" data-name="Path 911" d="M100.738,257.959a.835.835,0,0,1-.834-.834v-1.555a.834.834,0,0,1,1.668,0v1.555A.835.835,0,0,1,100.738,257.959Z" transform="translate(-99.904 -254.735)" fill="#4d4a5b"/>
      <path id="Path_912" data-name="Path 912" d="M159.165,257.959a.835.835,0,0,1-.834-.834v-1.555a.834.834,0,0,1,1.669,0v1.555A.835.835,0,0,1,159.165,257.959Z" transform="translate(-147.831 -254.735)" fill="#4d4a5b"/>
    </g>
    <path id="Path_913" data-name="Path 913" d="M116.744,299.42a4.345,4.345,0,0,1-3.571-1.645.834.834,0,0,1,1.355-.974,3.058,3.058,0,0,0,4.433,0,.837.837,0,0,1,.678-.347.834.834,0,0,1,.676,1.322A4.345,4.345,0,0,1,116.744,299.42Z" transform="translate(-92.705 -232.138)" fill="#ff9faf"/>
    <g id="Group_1672" data-name="Group 1672" transform="translate(62.442 54.712)">
      <path id="Path_914" data-name="Path 914" d="M348.276,246.3a.835.835,0,0,1-.834-.834v-1.606a.834.834,0,1,1,1.668,0v1.606A.835.835,0,0,1,348.276,246.3Z" transform="translate(-347.442 -243.021)" fill="#4d4a5b"/>
      <path id="Path_915" data-name="Path 915" d="M408.622,246.3a.835.835,0,0,1-.834-.834v-1.606a.834.834,0,1,1,1.668,0v1.606A.835.835,0,0,1,408.622,246.3Z" transform="translate(-396.943 -243.021)" fill="#4d4a5b"/>
    </g>
    <path id="Path_916" data-name="Path 916" d="M364.809,289.118a4.46,4.46,0,0,1-3.666-1.688.834.834,0,1,1,1.355-.974,3.185,3.185,0,0,0,4.623,0,.837.837,0,0,1,.678-.347.834.834,0,0,1,.676,1.322A4.462,4.462,0,0,1,364.809,289.118Z" transform="translate(-296.111 -223.653)" fill="#c699a2"/>
  </g>
</svg>
