<svg id="gmail_1_" data-name="gmail (1)" xmlns="http://www.w3.org/2000/svg" width="63.416" height="48.31" viewBox="0 0 63.416 48.31">
  <g id="Group_916" data-name="Group 916" transform="translate(4.134 0)">
    <path id="Path_699" data-name="Path 699" d="M89.314,122.808,85.265,163.46H36.641l-3.262-39.865,27.574,15.438Z" transform="translate(-33.379 -115.15)" fill="#f2f2f2"/>
    <path id="Path_700" data-name="Path 700" d="M92.089,60.983,65.1,86.334,38.114,60.983H92.089Z" transform="translate(-37.528 -60.983)" fill="#f2f2f2"/>
  </g>
  <path id="Path_701" data-name="Path 701" d="M7.4,117.358v36.6H2.99A2.991,2.991,0,0,1,0,150.972v-39l4.831.132Z" transform="translate(0 -105.652)" fill="#f14336"/>
  <path id="Path_702" data-name="Path 702" d="M459.684,109.339v39.005a2.991,2.991,0,0,1-2.992,2.99h-4.4v-36.6l2.439-5.763Z" transform="translate(-396.268 -103.025)" fill="#d32e2a"/>
  <path id="Path_703" data-name="Path 703" d="M63.416,63.973V67.3l-7.4,5.391L31.708,90.409,7.4,72.689,0,67.3V63.973a2.991,2.991,0,0,1,2.99-2.99H4.721l26.987,19.67L58.7,60.983h1.729A2.991,2.991,0,0,1,63.416,63.973Z" transform="translate(0 -60.983)" fill="#f14336"/>
  <path id="Path_704" data-name="Path 704" d="M7.4,117.358,0,116.211v-4.244Z" transform="translate(0 -105.652)" fill="#d32e2a"/>
</svg>
