<svg id="twitter_3_" data-name="twitter (3)" xmlns="http://www.w3.org/2000/svg" width="60.678" height="60.678" viewBox="0 0 60.678 60.678">
  <ellipse id="Ellipse_362" data-name="Ellipse 362" cx="30.339" cy="30.339" rx="30.339" ry="30.339" transform="translate(0 0)" fill="#55acee"/>
  <g id="Group_917" data-name="Group 917" transform="translate(13.576 18.403)">
    <path id="Path_705" data-name="Path 705" d="M60.45,37.429a14.469,14.469,0,0,1-4.165,1.141,7.272,7.272,0,0,0,3.189-4.011,14.518,14.518,0,0,1-4.605,1.759,7.258,7.258,0,0,0-12.358,6.615,20.586,20.586,0,0,1-14.948-7.578,7.26,7.26,0,0,0,2.244,9.682,7.2,7.2,0,0,1-3.284-.908c0,.031,0,.062,0,.092a7.256,7.256,0,0,0,5.818,7.11,7.28,7.28,0,0,1-3.275.125,7.26,7.26,0,0,0,6.774,5.036,14.639,14.639,0,0,1-10.736,3,20.513,20.513,0,0,0,11.116,3.258c13.339,0,20.634-11.05,20.634-20.634,0-.314-.007-.627-.021-.938a14.706,14.706,0,0,0,3.619-3.753Z" transform="translate(-25.103 -34.028)" fill="#f1f2f2"/>
  </g>
</svg>
