<svg xmlns="http://www.w3.org/2000/svg" width="200.82" height="244.775" viewBox="0 0 200.82 244.775">
  <g id="Group_1823" data-name="Group 1823" transform="translate(28.403 -4159.844)">
    <g id="Group_497" data-name="Group 497" transform="matrix(0.978, 0.208, -0.208, 0.978, 2.861, 4159.844)">
      <g id="Group_495" data-name="Group 495" transform="translate(0 0)">
        <rect id="Rectangle_221" data-name="Rectangle 221" width="0.741" height="84.35" transform="translate(83.091 146.734) rotate(-17.427)" fill="#feb937"/>
        <path id="Path_605" data-name="Path 605" d="M80.783,144.262a37.614,37.614,0,0,0-.957,6.083c.077.019,1.39.225,4.4-.744,2.954-.95,3.749-1.753,3.817-1.835a26.125,26.125,0,0,0-4.295-4.452c10.392-6.16,42.856-46.863,27.416-96.031-10.736-34.194-43.556-54.34-73.312-45S-7.32,46.92,3.415,81.114C19.19,131.354,68.847,145.27,80.783,144.262Z" fill="#feb937"/>
        <path id="Path_606" data-name="Path 606" d="M11.082,0s-17.387,22.6-8.6,50.577S29.817,92.59,44.494,102.944C44.494,102.944-1.379,59.951,11.082,0Z" transform="translate(9.512 24.438)" fill="#fff"/>
      </g>
    </g>
    <g id="Group_498" data-name="Group 498" transform="translate(58.775 4191.53)">
      <rect id="Rectangle_222" data-name="Rectangle 222" width="59.487" height="0.741" transform="translate(33.612 208.788) rotate(-80.853)" fill="#00d6ad"/>
      <path id="Path_607" data-name="Path 607" d="M129.112,286.132a37.619,37.619,0,0,0-3.579,5.013c.061.049,1.144.821,4.264,1.3,3.066.47,4.138.108,4.234.066a25.917,25.917,0,0,0-1.849-5.9c12.051-.859,59.3-22.735,67.489-73.614,5.7-35.385-14.642-68.086-45.433-73.045s-60.367,19.707-66.064,55.092C79.8,247.03,117.985,281.694,129.112,286.132Z" transform="translate(-86.986 -139.316)" fill="#ffa4e1"/>
      <path id="Path_608" data-name="Path 608" d="M122.925,144.753S97.265,157.183,92.6,186.137s5.65,49.8,14.143,65.631C106.746,251.768,84.959,192.793,122.925,144.753Z" transform="translate(-81.015 -132.029)" fill="#fff"/>
    </g>
  </g>
</svg>
