<svg xmlns="http://www.w3.org/2000/svg" width="24.82" height="22.082" viewBox="0 0 24.82 22.082">
  <path id="heart" d="M12.41,22.082a1.455,1.455,0,0,1-.959-.361c-1-.877-1.969-1.7-2.822-2.427l0,0a52.487,52.487,0,0,1-6.162-5.784A9.238,9.238,0,0,1,0,7.459a7.758,7.758,0,0,1,1.969-5.3A6.674,6.674,0,0,1,6.934,0a6.243,6.243,0,0,1,3.9,1.346A7.979,7.979,0,0,1,12.41,2.993a7.979,7.979,0,0,1,1.577-1.646A6.243,6.243,0,0,1,17.887,0a6.675,6.675,0,0,1,4.965,2.161,7.757,7.757,0,0,1,1.969,5.3,9.237,9.237,0,0,1-2.462,6.047A52.482,52.482,0,0,1,16.2,19.29c-.854.728-1.823,1.553-2.828,2.432a1.457,1.457,0,0,1-.959.36ZM6.934,1.454a5.236,5.236,0,0,0-3.9,1.693A6.31,6.31,0,0,0,1.454,7.459a7.773,7.773,0,0,0,2.127,5.119,51.651,51.651,0,0,0,5.986,5.605l0,0c.856.73,1.827,1.557,2.837,2.44,1.016-.885,1.988-1.713,2.846-2.444a51.664,51.664,0,0,0,5.985-5.6,7.774,7.774,0,0,0,2.127-5.119,6.31,6.31,0,0,0-1.584-4.313,5.236,5.236,0,0,0-3.9-1.693A4.822,4.822,0,0,0,14.876,2.5,7.055,7.055,0,0,0,13.2,4.438a.918.918,0,0,1-1.577,0A7.049,7.049,0,0,0,9.944,2.5a4.822,4.822,0,0,0-3.01-1.042Zm0,0"/>
</svg>
