<svg xmlns="http://www.w3.org/2000/svg" width="54.766" height="54.766" viewBox="0 0 54.766 54.766">
  <g id="Group_1726" data-name="Group 1726" transform="translate(6645.132 4842.312)">
    <path id="Path_988" data-name="Path 988" d="M27.383,54.766A27.383,27.383,0,1,1,54.766,27.383,27.413,27.413,0,0,1,27.383,54.766Zm0-51.343a23.96,23.96,0,1,0,23.96,23.96A23.986,23.986,0,0,0,27.383,3.423Zm0,0" transform="translate(-6645.132 -4842.312)" fill="#434343"/>
    <path id="Path_989" data-name="Path 989" d="M253.692,132.709a1.7,1.7,0,0,1-1.21-.5l-11.98-11.98a1.712,1.712,0,0,1-.5-1.209V103.043a1.711,1.711,0,1,1,3.423,0v15.264L254.9,129.786a1.713,1.713,0,0,1-1.21,2.923Zm0,0" transform="translate(-6859.46 -4932.805)" fill="#434343"/>
  </g>
</svg>
