<svg xmlns="http://www.w3.org/2000/svg" xmlns:xlink="http://www.w3.org/1999/xlink" width="54.416" height="39.046" viewBox="0 0 54.416 39.046">
  <defs>
    <linearGradient id="linear-gradient" x1="0.5" x2="0.5" y2="1" gradientUnits="objectBoundingBox">
      <stop offset="0" stop-color="#eccf66"/>
      <stop offset="1" stop-color="#c59402"/>
    </linearGradient>
  </defs>
  <g id="hand-finger-pointing-to-right-direction-like-an-arrow" transform="translate(0 -79.718)">
    <g id="Group_888" data-name="Group 888" transform="translate(0 79.718)">
      <path id="Path_696" data-name="Path 696" d="M6.459,232.547a3.588,3.588,0,0,0,3.588-3.588V209.226a3.587,3.587,0,0,0-3.588-3.587H3.588A3.588,3.588,0,0,0,0,209.226v19.733a3.588,3.588,0,0,0,3.588,3.588Z" transform="translate(0 -193.5)" fill="url(#linear-gradient)"/>
      <path id="Path_697" data-name="Path 697" d="M169.169,91.856h-23.08a.946.946,0,0,1-.952-1.352l3.22-9.017a1.205,1.205,0,0,0-.918-1.656c-1.74-.254-4.725-.268-6.742,2.005a26.518,26.518,0,0,0-1.582,2.389A32.2,32.2,0,0,1,132.529,91a3.284,3.284,0,0,0-1.151,2.291v24.038a1.435,1.435,0,0,0,1.435,1.435h21.342a3.575,3.575,0,0,0,2.375-1.084l1.229-1.419a5.862,5.862,0,0,0,1.159-2.5l2-12.912h8.252a4.531,4.531,0,0,0,0-8.99Z" transform="translate(-118.713 -79.718)" fill="url(#linear-gradient)"/>
    </g>
  </g>
</svg>
