<svg id="love" xmlns="http://www.w3.org/2000/svg" width="54.624" height="55.786" viewBox="0 0 54.624 55.786">
  <path id="Path_691" data-name="Path 691" d="M49.686,0H15.6A10.27,10.27,0,0,0,5.332,10.27V32.625A10.27,10.27,0,0,0,15.6,42.894h4.891a.421.421,0,0,1,.421.421V54.343a1.439,1.439,0,0,0,2.488.986l11.57-12.3a.421.421,0,0,1,.307-.133H49.686a10.27,10.27,0,0,0,10.27-10.27V10.27A10.27,10.27,0,0,0,49.686,0Z" transform="translate(-5.332)" fill="#ec5569"/>
  <path id="Path_692" data-name="Path 692" d="M25.235,50.069a.427.427,0,0,0-.408-.444H20.092c-5.491,0-9.942-4.842-9.942-10.815V15.27a11.719,11.719,0,0,1,.366-2.917,10.266,10.266,0,0,0-5.184,8.924V43.632A10.27,10.27,0,0,0,15.6,53.9h4.891a.421.421,0,0,1,.421.421V65.35a1.439,1.439,0,0,0,2.488.986l1.833-1.949V50.069Z" transform="translate(-5.332 -11.007)" fill="#e63950"/>
  <path id="Path_693" data-name="Path 693" d="M157.175,106.332h0a6.677,6.677,0,0,0-9.442,0l-1.473,1.473a.9.9,0,0,1-1.272,0l-1.449-1.449a6.677,6.677,0,0,0-9.442,0h0a6.677,6.677,0,0,0,0,9.442l10.893,10.893a.9.9,0,0,0,1.272,0l10.914-10.916A6.677,6.677,0,0,0,157.175,106.332Z" transform="translate(-118.324 -93.004)" fill="#ec5569"/>
  <path id="Path_694" data-name="Path 694" d="M157.175,106.332h0a6.677,6.677,0,0,0-9.442,0l-1.473,1.473a.9.9,0,0,1-1.272,0l-1.449-1.449a6.677,6.677,0,0,0-9.442,0h0a6.677,6.677,0,0,0,0,9.442l10.893,10.893a.9.9,0,0,0,1.272,0l10.914-10.916A6.677,6.677,0,0,0,157.175,106.332Z" transform="translate(-118.324 -93.004)" fill="#fff5f5"/>
  <path id="Path_695" data-name="Path 695" d="M137.59,116a6.677,6.677,0,0,1,0-9.442h0a6.643,6.643,0,0,1,2.975-1.722,6.672,6.672,0,0,0-6.467,1.722h0a6.677,6.677,0,0,0,0,9.442L144.99,126.9a.9.9,0,0,0,1.272,0l1.11-1.11Z" transform="translate(-118.325 -93.21)" fill="#dce6eb"/>
</svg>
