<svg xmlns="http://www.w3.org/2000/svg" width="64.937" height="92.355" viewBox="0 0 64.937 92.355">
  <g id="Group_1725" data-name="Group 1725" transform="translate(6857 4861.962)">
    <g id="Group_1723" data-name="Group 1723" transform="translate(-6857 -4861.962)">
      <g id="Group_872" data-name="Group 872">
        <path id="Path_686" data-name="Path 686" d="M108.469,0A32.475,32.475,0,0,0,80.847,49.542L106.62,91.076a2.706,2.706,0,0,0,2.3,1.279h.021a2.705,2.705,0,0,0,2.3-1.315L136.357,49.1A32.476,32.476,0,0,0,108.469,0Zm23.245,46.325L108.878,84.452,85.446,46.691a27.075,27.075,0,1,1,46.267-.366Z" transform="translate(-76)" fill="#f86481"/>
      </g>
    </g>
    <g id="Group_1724" data-name="Group 1724" transform="translate(-6840.766 -4845.728)">
      <g id="Group_874" data-name="Group 874">
        <path id="Path_687" data-name="Path 687" d="M182.234,90a16.234,16.234,0,1,0,16.234,16.234A16.253,16.253,0,0,0,182.234,90Zm0,27.093a10.859,10.859,0,1,1,10.841-10.859A10.867,10.867,0,0,1,182.234,117.093Z" transform="translate(-166 -90)" fill="#f86481"/>
      </g>
    </g>
  </g>
</svg>
