<svg xmlns="http://www.w3.org/2000/svg" width="53.241" height="51.467" viewBox="0 0 53.241 51.467">
  <g id="anniversary" transform="translate(0 -8.53)">
    <path id="Path_917" data-name="Path 917" d="M202.865,76.519h-6.984a3.191,3.191,0,0,0-2.724,1.543h-2.1a3.221,3.221,0,0,0-3.2,3.241V91.339a7.937,7.937,0,0,0,7.886,7.988A7.821,7.821,0,0,0,201.6,96.69q-.03-.391-.031-.79V91.26a10.064,10.064,0,0,1,1.947-5.965l-.027.038c.047-.065.094-.129.142-.192V77.291A.767.767,0,0,0,202.865,76.519Z" transform="translate(-168.322 -60.919)" fill="#ffd5b3"/>
    <path id="Path_918" data-name="Path 918" d="M189.1,317.864V306.733a7.423,7.423,0,0,1,1.311-4.221v-1.241a10.089,10.089,0,0,1-3.16-4.356h-1.723l-2.134,3.294a.6.6,0,0,1-1.061,0l-1.361-2.1a.191.191,0,0,0-.363,0l-1.361,2.1a.6.6,0,0,1-1.061,0l-2.134-3.294h-3.812a1.075,1.075,0,0,0-1.071,1.072v.888H172.3a.432.432,0,0,1,.432.432v7.356a.1.1,0,0,0,.1.1h2.519a.432.432,0,0,1,.432.432v6.7a.1.1,0,0,0,.049.088,1.6,1.6,0,0,1,.624,2.027.1.1,0,0,0-.009.043h2.328a.537.537,0,0,1,.536.536v1.264a.537.537,0,0,1-.536.536h10.858A.529.529,0,0,1,189.1,317.864Z" transform="translate(-153.376 -258.397)" fill="#92deee"/>
    <g id="Group_1673" data-name="Group 1673" transform="translate(17.8 38.518)" opacity="0.1">
      <path id="Path_919" data-name="Path 919" d="M172.3,298.875a.432.432,0,0,1,.432.432v7.356a.1.1,0,0,0,.1.1h1.7v-8.779a1.075,1.075,0,0,1,1.071-1.072h-3.357a1.075,1.075,0,0,0-1.071,1.072v.888H172.3Z" transform="translate(-171.175 -296.915)"/>
    </g>
    <path id="Path_920" data-name="Path 920" d="M257.152,307.257a.191.191,0,0,0-.363,0l-.6.924v19.362h1.56V308.18Z" transform="translate(-229.551 -267.545)" fill="#046699"/>
    <path id="Path_921" data-name="Path 921" d="M220.6,278.618h-.058a7.684,7.684,0,0,1-9.612,0h-.062a.63.63,0,0,0-.56,1.031l2.735,4.223a.7.7,0,0,0,1.235,0l1.361-2.1c.04-.062.078-.084.094-.084s.054.022.094.084l1.361,2.1a.7.7,0,0,0,1.236,0l2.735-4.222a.63.63,0,0,0-.56-1.031Z" transform="translate(-188.309 -242.003)" fill="#0481bf"/>
    <path id="Path_922" data-name="Path 922" d="M162.044,189.162V185.7h-1.5a1.612,1.612,0,0,0-1.607,1.608v1.63a1.612,1.612,0,0,0,1.607,1.608h1.627A7.988,7.988,0,0,1,162.044,189.162Z" transform="translate(-142.405 -158.742)" fill="#ffb98a"/>
    <path id="Path_923" data-name="Path 923" d="M202.865,76.519h-6.984a3.191,3.191,0,0,0-2.724,1.543h-2.1a3.221,3.221,0,0,0-3.2,3.241v5.28c0-4.412,3.531-5.825,7.886-5.825,3.9,0,7.134,1.134,7.77,4.537l-.027.038c.047-.065.094-.129.142-.192V77.291A.767.767,0,0,0,202.865,76.519Z" transform="translate(-168.322 -60.919)" fill="#0481bf"/>
    <path id="Path_924" data-name="Path 924" d="M190.069,95.383V94.6a3.221,3.221,0,0,1,3.2-3.241h-2.213a3.221,3.221,0,0,0-3.2,3.241v5.28A5.025,5.025,0,0,1,190.069,95.383Z" transform="translate(-168.322 -74.22)" fill="#15004d" opacity="0.1"/>
    <path id="Path_925" data-name="Path 925" d="M201.565,132.434v-4.64a10.064,10.064,0,0,1,1.947-5.965c-.636-3.4-3.871-4.537-7.77-4.537-4.355,0-7.886,1.413-7.886,5.825v4.755a7.937,7.937,0,0,0,7.886,7.988,7.821,7.821,0,0,0,5.854-2.637Q201.566,132.833,201.565,132.434Z" transform="translate(-168.322 -97.453)" fill="#ffd5b3"/>
    <g id="Group_1674" data-name="Group 1674" transform="translate(19.534 19.84)" opacity="0.1">
      <path id="Path_926" data-name="Path 926" d="M190.1,127.872v-4.755c0-4.026,2.941-5.554,6.765-5.791q-.549-.034-1.121-.034c-4.355,0-7.886,1.413-7.886,5.825v4.755a7.876,7.876,0,0,0,9.006,7.907A7.956,7.956,0,0,1,190.1,127.872Z" transform="translate(-187.856 -117.292)"/>
    </g>
    <g id="Group_1675" data-name="Group 1675" transform="translate(22.973 26.385)">
      <path id="Path_927" data-name="Path 927" d="M249.07,191.8h-.6a.78.78,0,0,1,0-1.56h.267v-1.058a.78.78,0,1,1,1.56,0v1.391A1.226,1.226,0,0,1,249.07,191.8Z" transform="translate(-244.904 -187.556)" fill="#a75436"/>
      <path id="Path_928" data-name="Path 928" d="M292.234,182.839a.78.78,0,0,1-.78-.78v-1.045a.78.78,0,0,1,1.56,0v1.045A.78.78,0,0,1,292.234,182.839Z" transform="translate(-284.12 -180.234)" fill="#a75436"/>
      <path id="Path_929" data-name="Path 929" d="M221.708,182.839a.78.78,0,0,1-.78-.78v-1.045a.78.78,0,1,1,1.56,0v1.045A.78.78,0,0,1,221.708,182.839Z" transform="translate(-220.928 -180.234)" fill="#a75436"/>
      <path id="Path_930" data-name="Path 930" d="M233.285,238a3.606,3.606,0,0,1-3.361-2.281.78.78,0,1,1,1.448-.58,2.058,2.058,0,0,0,3.827,0,.78.78,0,0,1,1.448.579A3.606,3.606,0,0,1,233.285,238Z" transform="translate(-228.938 -228.989)" fill="#a75436"/>
    </g>
    <path id="Path_931" data-name="Path 931" d="M328.744,120.64a10.114,10.114,0,0,0-10.05,10.153v4.64a10.178,10.178,0,0,0,4.536,8.484,7.374,7.374,0,0,1,2.556-1.87,7.171,7.171,0,0,0,5.918,0,7.376,7.376,0,0,1,2.556,1.87,10.178,10.178,0,0,0,4.536-8.484v-4.64A10.114,10.114,0,0,0,328.744,120.64Z" transform="translate(-285.554 -100.452)" fill="#ff6a76"/>
    <path id="Path_932" data-name="Path 932" d="M323.231,143.918a7.369,7.369,0,0,1,1.138-1.045,10.173,10.173,0,0,1-3.219-7.438v-4.64a10.133,10.133,0,0,1,8.82-10.077,9.94,9.94,0,0,0-1.225-.076,10.114,10.114,0,0,0-10.05,10.153v4.64A10.178,10.178,0,0,0,323.231,143.918Z" transform="translate(-285.555 -100.453)" fill="#15004d" opacity="0.1"/>
    <path id="Path_933" data-name="Path 933" d="M358.359,335.542a.97.97,0,0,1-.506-1.8.1.1,0,0,0,0-.177.969.969,0,0,1,0-1.654.1.1,0,0,0,0-.177.97.97,0,0,1,.14-1.726,7.511,7.511,0,0,0-3.854-4.052,7.178,7.178,0,0,1-6.166,0,7.477,7.477,0,0,0-4.378,6.8v11.131a.529.529,0,0,0,.529.53h13.864a.53.53,0,0,0,.529-.53v-8.345h-.158Z" transform="translate(-307.865 -284.42)" fill="#fcdb80"/>
    <g id="Group_1676" data-name="Group 1676" transform="translate(35.729 41.513)" opacity="0.1">
      <path id="Path_934" data-name="Path 934" d="M348.286,327.014l-.258-1.3a7.478,7.478,0,0,0-4.435,6.824v11.131a.529.529,0,0,0,.529.53h2.247a.529.529,0,0,1-.529-.53V332.537A7.45,7.45,0,0,1,348.286,327.014Z" transform="translate(-343.593 -325.713)"/>
    </g>
    <path id="Path_935" data-name="Path 935" d="M389.361,326.923a7.158,7.158,0,0,1-3.015-.665l.684,3.444a.573.573,0,0,0,.538.442h3.587a.573.573,0,0,0,.538-.442l.684-3.444A7.156,7.156,0,0,1,389.361,326.923Z" transform="translate(-346.171 -284.689)" fill="#ffb98a"/>
    <path id="Path_936" data-name="Path 936" d="M352.6,199.39a7.339,7.339,0,0,1-7.282-7.377v-5.66a.558.558,0,0,1,.557-.558.551.551,0,0,1,.14.018,11,11,0,0,0,2.652.334,8.279,8.279,0,0,0,5.587-2.078.557.557,0,0,1,.743,0,8.749,8.749,0,0,0,4.411,1.982.558.558,0,0,1,.475.552v5.415A7.339,7.339,0,0,1,352.6,199.39Z" transform="translate(-309.407 -157.156)" fill="#ffd5b3"/>
    <g id="Group_1677" data-name="Group 1677" transform="translate(35.908 28.639)" opacity="0.1">
      <path id="Path_937" data-name="Path 937" d="M347.494,207.8v-5.6a10.581,10.581,0,0,1-1.482-.266.549.549,0,0,0-.14-.018.558.558,0,0,0-.557.558v5.66a7.339,7.339,0,0,0,7.282,7.377,7.169,7.169,0,0,0,2.165-.333A7.338,7.338,0,0,1,347.494,207.8Z" transform="translate(-345.315 -201.91)"/>
    </g>
    <g id="Group_1678" data-name="Group 1678" transform="translate(39.06 31.349)">
      <path id="Path_938" data-name="Path 938" d="M407.87,243.5H407.6a1.188,1.188,0,0,1-1.184-1.189v-.639a.78.78,0,1,1,1.56,0v.276a.78.78,0,0,1-.11,1.552Z" transform="translate(-403.218 -239.55)" fill="#a75436"/>
      <path id="Path_939" data-name="Path 939" d="M376.409,230.487a.78.78,0,0,1-.78-.78v-.954a.78.78,0,0,1,1.56,0v.954A.78.78,0,0,1,376.409,230.487Z" transform="translate(-375.629 -227.973)" fill="#a75436"/>
      <path id="Path_940" data-name="Path 940" d="M440.845,230.487a.78.78,0,0,1-.78-.78v-.954a.78.78,0,1,1,1.56,0v.954A.78.78,0,0,1,440.845,230.487Z" transform="translate(-433.365 -227.973)" fill="#a75436"/>
      <path id="Path_941" data-name="Path 941" d="M388.735,280.266a3.362,3.362,0,0,1-3.134-2.127.78.78,0,1,1,1.448-.579,1.812,1.812,0,0,0,3.371,0,.78.78,0,0,1,1.448.579A3.362,3.362,0,0,1,388.735,280.266Z" transform="translate(-384.514 -271.964)" fill="#a75436"/>
    </g>
    <path id="Path_942" data-name="Path 942" d="M478.278,367.964c0-.388,0-3.274,0-3.663a1.074,1.074,0,0,0-1.074-1.075h-.875a6.611,6.611,0,0,1-1.074,2.906,1.073,1.073,0,0,1,0,1.831,1.074,1.074,0,0,0,1.074,1.075h.875A1.074,1.074,0,0,0,478.278,367.964Z" transform="translate(-425.835 -317.813)" fill="#ffb98a"/>
    <path id="Path_943" data-name="Path 943" d="M358.514,16.789a.5.5,0,0,1-.359-.151l-3.5-3.561a2.7,2.7,0,0,1,0-3.766,2.588,2.588,0,0,1,3.7,0l.154.156.154-.156a2.588,2.588,0,0,1,3.7,0,2.695,2.695,0,0,1,0,3.766l-3.5,3.561A.5.5,0,0,1,358.514,16.789Z" transform="translate(-317.09)" fill="#ff484e"/>
    <g id="Group_1679" data-name="Group 1679" transform="translate(36.8 8.53)" opacity="0.1">
      <path id="Path_944" data-name="Path 944" d="M356.477,12.431a2.7,2.7,0,0,1,0-3.766c.045-.046.092-.089.14-.132l-.107,0a2.579,2.579,0,0,0-1.852.78,2.7,2.7,0,0,0,0,3.766l3.5,3.561a.5.5,0,0,0,.717,0l.868-.884Z" transform="translate(-353.891 -8.531)"/>
    </g>
    <g id="Group_1680" data-name="Group 1680" transform="translate(9.127 34.367)">
      <path id="Path_945" data-name="Path 945" d="M89.106,259.681l.017-.017v3.1a.776.776,0,0,0,.094.371h1.372a.775.775,0,0,0,.094-.371V257.78a.78.78,0,0,0-1.332-.551L88,258.578a.78.78,0,0,0,1.1,1.1Z" transform="translate(-87.775 -257)" fill="#ff6a76"/>
      <path id="Path_946" data-name="Path 946" d="M120.1,263.135h2.551a2.207,2.207,0,0,0,.933-1.8V259.21a2.208,2.208,0,1,0-4.417,0v2.124A2.207,2.207,0,0,0,120.1,263.135Zm.627-3.925a.649.649,0,1,1,1.3,0v2.124a.649.649,0,1,1-1.3,0Z" transform="translate(-115.898 -257)" fill="#ff6a76"/>
    </g>
    <path id="Path_947" data-name="Path 947" d="M66.291,322.76a1.58,1.58,0,0,1,.444-.944,1.536,1.536,0,0,1,2.2,0l.091.093.091-.093a1.536,1.536,0,0,1,2.2,0,1.58,1.58,0,0,1,.444.944h3.514V315.3a.537.537,0,0,0-.536-.536H62.829a.537.537,0,0,0-.536.536v7.46Z" transform="translate(-55.815 -274.39)" fill="#d4e9ed"/>
    <path id="Path_948" data-name="Path 948" d="M64.654,322.76V315.3a.537.537,0,0,1,.536-.536H62.829a.537.537,0,0,0-.536.536v7.46Z" transform="translate(-55.815 -274.39)" fill="#15004d" opacity="0.1"/>
    <path id="Path_949" data-name="Path 949" d="M33.507,397.742a1.6,1.6,0,0,1,1.378.784.1.1,0,0,0,.178,0,1.6,1.6,0,0,1,2.756,0,.1.1,0,0,0,.178,0,1.6,1.6,0,0,1,2.756,0,.1.1,0,0,0,.178,0,1.6,1.6,0,0,1,2.756,0,.1.1,0,0,0,.178,0,1.6,1.6,0,0,1,2.756,0,.1.1,0,0,0,.178,0,1.6,1.6,0,0,1,2.756,0,.1.1,0,0,0,.178,0,1.6,1.6,0,0,1,2.275-.509v-6.823a.537.537,0,0,0-.536-.536H45.429a1.621,1.621,0,0,1,.025.278A1.585,1.585,0,0,1,45,392.053l-2.077,2.114a.3.3,0,0,1-.426,0l-2.077-2.114a1.584,1.584,0,0,1-.455-1.118,1.621,1.621,0,0,1,.025-.278h-6.53a.537.537,0,0,0-.536.536v6.661A1.594,1.594,0,0,1,33.507,397.742Z" transform="translate(-29.499 -342.391)" fill="#ff6a76"/>
    <g id="Group_1681" data-name="Group 1681" transform="translate(3.423 48.266)" opacity="0.1">
      <path id="Path_950" data-name="Path 950" d="M33.507,397.74a1.6,1.6,0,0,1,1.378.784.1.1,0,0,0,.178,0q.028-.047.059-.091v-7.242a.537.537,0,0,1,.536-.536h-2.2a.537.537,0,0,0-.536.536v6.661A1.6,1.6,0,0,1,33.507,397.74Z" transform="translate(-32.922 -390.655)"/>
    </g>
    <path id="Path_951" data-name="Path 951" d="M25.282,460.364a1.712,1.712,0,1,0-2.959,0Z" transform="translate(-19.794 -402.544)" fill="#d4e9ed"/>
    <path id="Path_952" data-name="Path 952" d="M53.5,460.364a1.712,1.712,0,1,0-2.959,0Z" transform="translate(-45.079 -402.544)" fill="#fff"/>
    <path id="Path_953" data-name="Path 953" d="M81.721,460.364a1.712,1.712,0,1,0-2.959,0Z" transform="translate(-70.364 -402.544)" fill="#d4e9ed"/>
    <path id="Path_954" data-name="Path 954" d="M109.94,460.364a1.712,1.712,0,1,0-2.959,0Z" transform="translate(-95.649 -402.544)" fill="#fff"/>
    <path id="Path_955" data-name="Path 955" d="M138.159,460.364a1.712,1.712,0,1,0-2.959,0Z" transform="translate(-120.933 -402.544)" fill="#d4e9ed"/>
    <path id="Path_956" data-name="Path 956" d="M166.377,460.364a1.712,1.712,0,1,0-2.959,0Z" transform="translate(-146.217 -402.544)" fill="#fff"/>
    <path id="Path_957" data-name="Path 957" d="M194.6,460.364a1.712,1.712,0,1,0-2.959,0Z" transform="translate(-171.502 -402.544)" fill="#d4e9ed"/>
    <path id="Path_958" data-name="Path 958" d="M25.935,482.8a.537.537,0,0,1-.536.536H.536A.537.537,0,0,1,0,482.8v-1.264A.537.537,0,0,1,.536,481H25.4a.537.537,0,0,1,.536.536Z" transform="translate(0 -423.342)" fill="#d48748"/>
    <g id="Group_1682" data-name="Group 1682" transform="translate(0 57.661)" opacity="0.1">
      <path id="Path_959" data-name="Path 959" d="M3.363,482.8v-1.264A.537.537,0,0,1,3.9,481H.536a.537.537,0,0,0-.536.536V482.8a.537.537,0,0,0,.536.536H3.9A.538.538,0,0,1,3.363,482.8Z" transform="translate(0 -481.003)"/>
    </g>
    <g id="Group_1683" data-name="Group 1683" transform="translate(6.478 41.864)">
      <path id="Path_960" data-name="Path 960" d="M67.9,329.1h-5.6v1.56h5.6a.78.78,0,1,0,0-1.56Z" transform="translate(-62.293 -329.096)" fill="#b9ccd3"/>
      <path id="Path_961" data-name="Path 961" d="M67.9,352h-5.6v1.56h5.6a.78.78,0,1,0,0-1.56Z" transform="translate(-62.293 -349.618)" fill="#b9ccd3"/>
    </g>
    <g id="Group_1684" data-name="Group 1684" transform="translate(3.423 46.962)">
      <path id="Path_962" data-name="Path 962" d="M38.524,409.56a.78.78,0,1,0,0-1.56h-5.6v1.56Z" transform="translate(-32.922 -404.893)" fill="#ff484e"/>
      <path id="Path_963" data-name="Path 963" d="M38.524,432.523a.78.78,0,1,0,0-1.56h-5.6v1.56Z" transform="translate(-32.922 -425.468)" fill="#ff484e"/>
      <path id="Path_964" data-name="Path 964" d="M103.378,383.024a.3.3,0,0,1-.213-.09l-2.077-2.114a1.6,1.6,0,0,1,0-2.236,1.536,1.536,0,0,1,2.2,0l.091.093.091-.093a1.536,1.536,0,0,1,2.2,0,1.6,1.6,0,0,1,0,2.236l-2.077,2.114A.3.3,0,0,1,103.378,383.024Z" transform="translate(-93.592 -378.121)" fill="#ff484e"/>
    </g>
    <g id="Group_1685" data-name="Group 1685" transform="translate(37.517 51.926)">
      <path id="Path_965" data-name="Path 965" d="M362.35,433.925v-7.291a.78.78,0,1,0-1.56,0v7.291Z" transform="translate(-360.79 -425.854)" fill="#ffc12e"/>
      <path id="Path_966" data-name="Path 966" d="M459.437,425.853a.78.78,0,0,0-.78.78v7.291h1.56v-7.291A.78.78,0,0,0,459.437,425.853Z" transform="translate(-448.48 -425.853)" fill="#ffc12e"/>
    </g>
  </g>
</svg>
