<svg xmlns="http://www.w3.org/2000/svg" width="53.24" height="54.16" viewBox="0 0 53.24 54.16">
  <g id="Page-1" transform="translate(0)">
    <g id="_007---Birthday-Cake" data-name="007---Birthday-Cake" transform="translate(0.001)">
      <path id="Shape" d="M27.836,7h1.836a1.836,1.836,0,0,1,1.836,1.836v6.426H26V8.836A1.836,1.836,0,0,1,27.836,7Z" transform="translate(-2.133 -0.574)" fill="#ff5364"/>
      <path id="Shape-2" data-name="Shape" d="M16.672,19H38.7a3.672,3.672,0,0,1,3.672,3.672V35.523H13V22.672A3.672,3.672,0,0,1,16.672,19Z" transform="translate(-1.067 -1.559)" fill="#f3d55b"/>
      <path id="Shape-3" data-name="Shape" d="M9.672,35H44.555a3.672,3.672,0,0,1,3.672,3.672v13.77H6V38.672A3.672,3.672,0,0,1,9.672,35Z" transform="translate(-0.493 -2.871)" fill="#f3d55b"/>
      <path id="Shape-4" data-name="Shape" d="M21.836,15H34.688a1.836,1.836,0,0,1,1.836,1.836V19.59H20V16.836A1.836,1.836,0,0,1,21.836,15Z" transform="translate(-1.641 -1.23)" fill="#f9eab0"/>
      <path id="Shape-5" data-name="Shape" d="M30.672,4.672a1.836,1.836,0,0,1-3.672,0C27,3.662,28.836,1,28.836,1S30.672,3.662,30.672,4.672Z" transform="translate(-2.215 -0.082)" fill="#f0c419"/>
      <path id="Shape-6" data-name="Shape" d="M16.918,2.754A.918.918,0,0,1,16,1.836V.918a.918.918,0,1,1,1.836,0v.918A.918.918,0,0,1,16.918,2.754Z" transform="translate(-1.313)" fill="#2fa8cc"/>
      <path id="Shape-7" data-name="Shape" d="M19.836,4.836h-.918a.918.918,0,0,1,0-1.836h.918a.918.918,0,1,1,0,1.836Z" transform="translate(-1.477 -0.246)" fill="#2fa8cc"/>
      <path id="Shape-8" data-name="Shape" d="M16.918,7.754A.918.918,0,0,1,16,6.836V5.918a.918.918,0,1,1,1.836,0v.918A.918.918,0,0,1,16.918,7.754Z" transform="translate(-1.313 -0.41)" fill="#2fa8cc"/>
      <path id="Shape-9" data-name="Shape" d="M14.836,4.836h-.918a.918.918,0,0,1,0-1.836h.918a.918.918,0,0,1,0,1.836Z" transform="translate(-1.067 -0.246)" fill="#2fa8cc"/>
      <path id="Shape-10" data-name="Shape" d="M8.918,11.754A.918.918,0,0,1,8,10.836V9.918a.918.918,0,0,1,1.836,0v.918A.918.918,0,0,1,8.918,11.754Z" transform="translate(-0.657 -0.738)" fill="#955ba5"/>
      <path id="Shape-11" data-name="Shape" d="M11.836,13.836h-.918a.918.918,0,1,1,0-1.836h.918a.918.918,0,1,1,0,1.836Z" transform="translate(-0.821 -0.984)" fill="#955ba5"/>
      <path id="Shape-12" data-name="Shape" d="M8.918,16.754A.918.918,0,0,1,8,15.836v-.918a.918.918,0,1,1,1.836,0v.918A.918.918,0,0,1,8.918,16.754Z" transform="translate(-0.657 -1.148)" fill="#955ba5"/>
      <path id="Shape-13" data-name="Shape" d="M6.836,13.836H5.918a.918.918,0,1,1,0-1.836h.918a.918.918,0,1,1,0,1.836Z" transform="translate(-0.411 -0.984)" fill="#955ba5"/>
      <path id="Shape-14" data-name="Shape" d="M40.918,2.754A.918.918,0,0,1,40,1.836V.918a.918.918,0,1,1,1.836,0v.918A.918.918,0,0,1,40.918,2.754Z" transform="translate(-3.282)" fill="#f0c419"/>
      <path id="Shape-15" data-name="Shape" d="M38.836,4.836h-.918a.918.918,0,0,1,0-1.836h.918a.918.918,0,0,1,0,1.836Z" transform="translate(-3.036 -0.246)" fill="#f0c419"/>
      <path id="Shape-16" data-name="Shape" d="M40.918,7.754A.918.918,0,0,1,40,6.836V5.918a.918.918,0,1,1,1.836,0v.918A.918.918,0,0,1,40.918,7.754Z" transform="translate(-3.282 -0.41)" fill="#f0c419"/>
      <path id="Shape-17" data-name="Shape" d="M43.836,4.836h-.918a.918.918,0,0,1,0-1.836h.918a.918.918,0,0,1,0,1.836Z" transform="translate(-3.446 -0.246)" fill="#f0c419"/>
      <g id="Group_1661" data-name="Group 1661" transform="translate(5.507 8.262)">
        <path id="Shape-18" data-name="Shape" d="M48.918,11.754A.918.918,0,0,1,48,10.836V9.918a.918.918,0,0,1,1.836,0v.918A.918.918,0,0,1,48.918,11.754Z" transform="translate(-9.445 -9)" fill="#ff5364"/>
        <path id="Shape-19" data-name="Shape" d="M46.836,13.836h-.918a.918.918,0,1,1,0-1.836h.918a.918.918,0,0,1,0,1.836Z" transform="translate(-9.199 -9.246)" fill="#ff5364"/>
        <path id="Shape-20" data-name="Shape" d="M48.918,16.754A.918.918,0,0,1,48,15.836v-.918a.918.918,0,1,1,1.836,0v.918A.918.918,0,0,1,48.918,16.754Z" transform="translate(-9.445 -9.41)" fill="#ff5364"/>
        <path id="Shape-21" data-name="Shape" d="M51.836,13.836h-.918a.918.918,0,1,1,0-1.836h.918a.918.918,0,1,1,0,1.836Z" transform="translate(-9.609 -9.246)" fill="#ff5364"/>
        <path id="Shape-22" data-name="Shape" d="M48.227,38.672v.688L46.574,40.6a1.845,1.845,0,0,1-2.2,0L42.9,39.5a1.845,1.845,0,0,0-2.2,0L39.23,40.6a1.845,1.845,0,0,1-2.2,0l-1.469-1.1a1.845,1.845,0,0,0-2.2,0l-1.469,1.1a1.845,1.845,0,0,1-2.2,0l-1.469-1.1a1.845,1.845,0,0,0-2.2,0l-1.469,1.1a1.845,1.845,0,0,1-2.2,0l-1.469-1.1a1.845,1.845,0,0,0-2.2,0L17.2,40.6a1.845,1.845,0,0,1-2.2,0l-1.469-1.1a1.845,1.845,0,0,0-2.2,0L9.855,40.6a1.845,1.845,0,0,1-2.2,0L6,39.36v-.688A3.672,3.672,0,0,1,9.672,35H44.555A3.672,3.672,0,0,1,48.227,38.672Z" transform="translate(-6 -11.133)" fill="#ff5364"/>
      </g>
      <path id="Shape-23" data-name="Shape" d="M48.227,39.73v5.737H6V39.73l1.652,1.239a1.845,1.845,0,0,0,2.2,0l1.469-1.1a1.845,1.845,0,0,1,2.2,0L15,40.969a1.845,1.845,0,0,0,2.2,0l1.469-1.1a1.845,1.845,0,0,1,2.2,0l1.469,1.1a1.845,1.845,0,0,0,2.2,0l1.469-1.1a1.845,1.845,0,0,1,2.2,0l1.469,1.1a1.845,1.845,0,0,0,2.2,0l1.469-1.1a1.845,1.845,0,0,1,2.2,0l1.469,1.1a1.845,1.845,0,0,0,2.2,0l1.469-1.1a1.845,1.845,0,0,1,2.2,0l1.469,1.1a1.845,1.845,0,0,0,2.2,0Z" transform="translate(-0.493 -3.24)" fill="#f9eab0"/>
      <path id="Rectangle-path" d="M6,45H48.227v1.836H6Z" transform="translate(-0.493 -3.691)" fill="#e64c3c"/>
      <path id="Shape-24" data-name="Shape" d="M42.375,22.672,39.8,24.6a1.845,1.845,0,0,1-2.2,0l-1.469-1.1a1.845,1.845,0,0,0-2.2,0l-1.469,1.1a1.845,1.845,0,0,1-2.2,0l-1.469-1.1a1.845,1.845,0,0,0-2.2,0l-1.469,1.1a1.845,1.845,0,0,1-2.2,0l-1.469-1.1a1.845,1.845,0,0,0-2.2,0l-1.469,1.1a1.845,1.845,0,0,1-2.2,0L13,22.672A3.672,3.672,0,0,1,16.672,19H38.7A3.672,3.672,0,0,1,42.375,22.672Z" transform="translate(-1.067 -1.559)" fill="#ff5364"/>
      <path id="Shape-25" data-name="Shape" d="M42.375,23v5.508H13V23l2.57,1.928a1.845,1.845,0,0,0,2.2,0l1.469-1.1a1.845,1.845,0,0,1,2.2,0l1.469,1.1a1.845,1.845,0,0,0,2.2,0l1.469-1.1a1.845,1.845,0,0,1,2.2,0l1.469,1.1a1.845,1.845,0,0,0,2.2,0l1.469-1.1a1.845,1.845,0,0,1,2.2,0l1.469,1.1a1.845,1.845,0,0,0,2.2,0Z" transform="translate(-1.067 -1.887)" fill="#f9eab0"/>
      <path id="Rectangle-path-2" data-name="Rectangle-path" d="M13,28H42.375v1.836H13Z" transform="translate(-1.067 -2.297)" fill="#e64c3c"/>
      <path id="Shape-26" data-name="Shape" d="M52.324,53H.918A.918.918,0,0,0,.1,54.328L1.68,57.493a1.836,1.836,0,0,0,1.642,1.015h46.6a1.836,1.836,0,0,0,1.642-1.015l1.582-3.164A.918.918,0,0,0,52.324,53Z" transform="translate(-0.001 -4.348)" fill="#7d6599"/>
    </g>
  </g>
</svg>
