<svg xmlns="http://www.w3.org/2000/svg" width="53.241" height="43.613" viewBox="0 0 53.241 43.613">
  <g id="candle-light" transform="translate(-2 -24.672)">
    <path id="Path_815" data-name="Path 815" d="M104.266,105.06h10.028v21.854H104.266Z" transform="translate(-80.66 -63.404)" fill="#fcc24c"/>
    <path id="Path_816" data-name="Path 816" d="M114.081,52.847a3.728,3.728,0,0,1-3.228-5.592l3.228-5.592,3.228,5.592a3.728,3.728,0,0,1-3.228,5.592Z" transform="translate(-85.461 -13.401)" fill="#ff4397"/>
    <path id="Path_817" data-name="Path 817" d="M119.6,69.409a2.249,2.249,0,0,1-1.948-3.374l1.948-3.374,1.948,3.373a2.249,2.249,0,0,1-1.948,3.374Z" transform="translate(-90.983 -29.963)" fill="#fcc24c"/>
    <path id="Path_818" data-name="Path 818" d="M143.734,105.06h1.69v21.854h-1.69Z" transform="translate(-111.789 -63.404)" fill="#dea42e"/>
    <path id="Path_819" data-name="Path 819" d="M104.266,105.06h1.69v21.854h-1.69Z" transform="translate(-80.66 -63.404)" fill="#fce06a"/>
    <path id="Path_820" data-name="Path 820" d="M4,208.5H56.4v4.353H4Z" transform="translate(-1.577 -144.989)" fill="#f4efed"/>
    <path id="Path_821" data-name="Path 821" d="M192.419,144.949l-1.117-.838V129.822h-1.755v14.289l-1.117.838-1.994,1.5h7.977Z" transform="translate(-145.47 -82.935)" fill="#f4efed"/>
    <path id="Path_822" data-name="Path 822" d="M192.836,145.29h-7.977a.423.423,0,0,1-.254-.761l2.942-2.207V128.245a.423.423,0,0,1,.423-.423h1.755a.423.423,0,0,1,.423.423v14.078l.948.711,1.994,1.5a.423.423,0,0,1-.254.761Zm-6.71-.845h5.442l-2.1-1.573a.423.423,0,0,1-.169-.338V128.667h-.91v13.866a.423.423,0,0,1-.169.338Z" transform="translate(-143.892 -81.357)" fill="#690589"/>
    <path id="Path_823" data-name="Path 823" d="M179.854,79.187h10.758v8.557a5.379,5.379,0,0,1-10.758,0Z" transform="translate(-140.278 -42.998)" fill="#f4efed"/>
    <path id="Path_824" data-name="Path 824" d="M179.854,104.944v3.115a5.379,5.379,0,0,0,10.758,0v-3.115Z" transform="translate(-140.278 -63.313)" fill="#8852a8"/>
    <path id="Path_825" data-name="Path 825" d="M206.649,79.187v8.557a5.379,5.379,0,0,1-4.672,5.332,5.448,5.448,0,0,0,.705.048,5.379,5.379,0,0,0,5.379-5.379V79.187Z" transform="translate(-157.727 -42.998)" fill="#d6d1cf"/>
    <path id="Path_826" data-name="Path 826" d="M181.266,79.187v8.557a5.379,5.379,0,0,0,4.672,5.332,5.44,5.44,0,0,1-.705.048,5.379,5.379,0,0,1-5.379-5.379V79.187Z" transform="translate(-140.278 -42.998)" fill="#fff"/>
    <path id="Path_827" data-name="Path 827" d="M206.65,104.944v3.115a5.379,5.379,0,0,1-4.672,5.332,5.44,5.44,0,0,0,.705.048,5.379,5.379,0,0,0,5.379-5.379v-3.115Z" transform="translate(-157.728 -63.313)" fill="#6a348a"/>
    <path id="Path_828" data-name="Path 828" d="M181.266,104.944v3.115a5.379,5.379,0,0,0,4.672,5.332,5.44,5.44,0,0,1-.705.048,5.379,5.379,0,0,1-5.379-5.379v-3.115Z" transform="translate(-140.278 -63.313)" fill="#a670c6"/>
    <path id="Path_829" data-name="Path 829" d="M183.656,91.971a5.808,5.808,0,0,1-5.8-5.8V77.613a.423.423,0,0,1,.423-.423h10.758a.423.423,0,0,1,.423.423v8.557a5.808,5.808,0,0,1-5.8,5.8ZM178.7,78.034v8.134a4.957,4.957,0,1,0,9.913,0V78.034Z" transform="translate(-138.701 -41.423)" fill="#690589"/>
    <path id="Path_830" data-name="Path 830" d="M189.586,103.788H179.232a.423.423,0,0,1,0-.845h10.355a.423.423,0,0,1,0,.845Z" transform="translate(-139.454 -61.735)" fill="#690589"/>
    <path id="Path_831" data-name="Path 831" d="M37.789,144.949l-1.117-.838V129.822H34.917v14.289l-1.117.838-1.994,1.5h7.977Z" transform="translate(-23.509 -82.935)" fill="#f4efed"/>
    <path id="Path_832" data-name="Path 832" d="M38.206,145.29H30.228a.423.423,0,0,1-.254-.761l2.942-2.207V128.245a.423.423,0,0,1,.423-.423h1.755a.423.423,0,0,1,.423.423v14.078l2.942,2.207a.423.423,0,0,1-.254.761Zm-6.71-.845h5.442l-.98-.735-1.117-.838a.423.423,0,0,1-.169-.338V128.667h-.91v13.866a.423.423,0,0,1-.169.338Z" transform="translate(-21.931 -81.357)" fill="#690589"/>
    <path id="Path_833" data-name="Path 833" d="M25.224,79.187H35.982v8.557a5.379,5.379,0,0,1-10.758,0V79.188Z" transform="translate(-18.317 -42.998)" fill="#f4efed"/>
    <path id="Path_834" data-name="Path 834" d="M25.224,104.944v3.115a5.379,5.379,0,0,0,10.758,0v-3.115Z" transform="translate(-18.317 -63.313)" fill="#8852a8"/>
    <path id="Path_835" data-name="Path 835" d="M52.018,79.187v8.557a5.379,5.379,0,0,1-4.672,5.332,5.446,5.446,0,0,0,.705.048,5.379,5.379,0,0,0,5.379-5.379V79.188Z" transform="translate(-35.765 -42.998)" fill="#d6d1cf"/>
    <path id="Path_836" data-name="Path 836" d="M26.636,79.187v8.557a5.379,5.379,0,0,0,4.672,5.332,5.443,5.443,0,0,1-.705.048,5.379,5.379,0,0,1-5.379-5.379V79.188Z" transform="translate(-18.317 -42.998)" fill="#fff"/>
    <path id="Path_837" data-name="Path 837" d="M52.019,104.944v3.115a5.379,5.379,0,0,1-4.672,5.332,5.443,5.443,0,0,0,.705.048,5.379,5.379,0,0,0,5.379-5.379v-3.115Z" transform="translate(-35.766 -63.313)" fill="#6a348a"/>
    <path id="Path_838" data-name="Path 838" d="M26.636,104.944v3.115a5.379,5.379,0,0,0,4.672,5.332,5.44,5.44,0,0,1-.705.048,5.379,5.379,0,0,1-5.379-5.379v-3.115Z" transform="translate(-18.317 -63.313)" fill="#a670c6"/>
    <path id="Path_839" data-name="Path 839" d="M29.026,91.971a5.808,5.808,0,0,1-5.8-5.8V77.613a.423.423,0,0,1,.423-.423H34.405a.423.423,0,0,1,.423.423v8.557a5.808,5.808,0,0,1-5.8,5.8ZM24.069,78.034v8.134a4.957,4.957,0,0,0,9.913,0V78.034Z" transform="translate(-16.74 -41.423)" fill="#690589"/>
    <path id="Path_840" data-name="Path 840" d="M34.956,103.788H24.6a.423.423,0,1,1,0-.845H34.956a.423.423,0,1,1,0,.845Z" transform="translate(-17.493 -61.735)" fill="#690589"/>
    <path id="Path_841" data-name="Path 841" d="M187.155,35.627l4.064-4.064a2.733,2.733,0,0,0-3.865-3.865l-.2.2-.2-.2a2.733,2.733,0,1,0-3.865,3.865Z" transform="translate(-142.2 -1.756)" fill="#ff4397"/>
    <path id="Path_842" data-name="Path 842" d="M185.392,34.294a.421.421,0,0,1-.3-.124l-4.064-4.064a3.155,3.155,0,1,1,4.363-4.558,3.156,3.156,0,0,1,4.363,4.558l-4.064,4.064A.42.42,0,0,1,185.392,34.294Zm-2.132-8.729a2.31,2.31,0,0,0-1.634,3.944l3.765,3.766,3.765-3.765a2.311,2.311,0,1,0-3.267-3.268l-.2.2a.423.423,0,0,1-.6,0l-.2-.2A2.3,2.3,0,0,0,183.261,25.565Z" transform="translate(-140.437 0)" fill="#690589"/>
    <path id="Path_843" data-name="Path 843" d="M32.525,35.627l4.064-4.064A2.733,2.733,0,1,0,32.725,27.7l-.2.2-.2-.2a2.733,2.733,0,0,0-3.865,3.865Z" transform="translate(-20.239 -1.756)" fill="#ff4397"/>
    <path id="Path_844" data-name="Path 844" d="M30.952,34.294a.421.421,0,0,1-.3-.124l-4.064-4.064a3.155,3.155,0,0,1,4.363-4.558,3.155,3.155,0,1,1,4.363,4.558L31.25,34.17A.421.421,0,0,1,30.952,34.294Zm-2.131-8.729a2.31,2.31,0,0,0-1.634,3.944l3.764,3.765,3.765-3.765a2.31,2.31,0,1,0-3.267-3.267l-.2.2a.423.423,0,0,1-.6,0l-.2-.2a2.3,2.3,0,0,0-1.633-.676Z" transform="translate(-18.666)" fill="#690589"/>
    <path id="Path_845" data-name="Path 845" d="M242,208.5h2.113v4.353H242Z" transform="translate(-189.294 -144.989)" fill="#d6d1cf"/>
    <path id="Path_846" data-name="Path 846" d="M4,208.5H6.113v4.353H4Z" transform="translate(-1.577 -144.989)" fill="#fff"/>
    <g id="Group_1662" data-name="Group 1662" transform="translate(2 27.839)">
      <path id="Path_847" data-name="Path 847" d="M54.818,211.7H2.423A.423.423,0,0,1,2,211.275v-4.352a.423.423,0,0,1,.423-.423h52.4a.423.423,0,0,1,.423.423v4.352A.423.423,0,0,1,54.818,211.7Zm-51.973-.845H54.4v-3.507H2.845Z" transform="translate(-2 -171.252)" fill="#690589"/>
      <path id="Path_848" data-name="Path 848" d="M112.718,125.76H102.69a.423.423,0,0,1-.423-.423V103.484a.423.423,0,0,1,.423-.423h10.028a.423.423,0,0,1,.423.423v21.854A.423.423,0,0,1,112.718,125.76Zm-9.606-.845H112.3V103.906h-9.183Z" transform="translate(-81.083 -89.667)" fill="#690589"/>
      <path id="Path_849" data-name="Path 849" d="M112.5,51.692a4.151,4.151,0,0,1-3.594-6.226l3.228-5.592a.423.423,0,0,1,.732,0l3.228,5.592a4.151,4.151,0,0,1-3.594,6.226Zm0-10.761-2.862,4.957a3.305,3.305,0,1,0,5.725,0Z" transform="translate(-85.885 -39.663)" fill="#690589"/>
      <path id="Path_850" data-name="Path 850" d="M118.027,68.256a2.672,2.672,0,0,1-2.314-4.007l1.948-3.374a.423.423,0,0,1,.732,0l1.948,3.374a2.672,2.672,0,0,1-2.314,4.007Zm0-6.325-1.582,2.74a1.826,1.826,0,1,0,3.163,0Z" transform="translate(-91.406 -56.227)" fill="#690589"/>
      <path id="Path_851" data-name="Path 851" d="M126.423,88.379a.423.423,0,0,1-.423-.423V83.8a.423.423,0,0,1,.845,0v4.159A.423.423,0,0,1,126.423,88.379Z" transform="translate(-99.802 -74.14)" fill="#690589"/>
      <path id="Path_852" data-name="Path 852" d="M110.69,128.58a.423.423,0,0,1-.423-.423v-2.535a.423.423,0,0,1,.845,0v2.535A.423.423,0,0,1,110.69,128.58Z" transform="translate(-87.393 -107.128)" fill="#690589"/>
    </g>
  </g>
</svg>
