<svg xmlns="http://www.w3.org/2000/svg" width="53.241" height="41.125" viewBox="0 0 53.241 41.125">
  <g id="car" transform="translate(0 -56.49)">
    <path id="Path_967" data-name="Path 967" d="M58.534,79.346A7.8,7.8,0,0,0,56.9,75a13.405,13.405,0,0,1-2.6-5.083,62.148,62.148,0,0,0-4.344-9.354,7.5,7.5,0,0,0-5.5-3.622,156.247,156.247,0,0,0-23.613,0,7.511,7.511,0,0,0-5.5,3.622,62.322,62.322,0,0,0-4.344,9.354A13.405,13.405,0,0,1,8.409,75,7.8,7.8,0,0,0,6.78,79.346c-.165,3.429.829,4.183,1.717,11.943a1.207,1.207,0,0,0,1.2,1.07h45.92a1.208,1.208,0,0,0,1.2-1.07c.25-2.176.99-6.59.99-6.59A16.162,16.162,0,0,0,58.534,79.346Z" transform="translate(-6.037)" fill="#e95353"/>
    <path id="Path_968" data-name="Path 968" d="M96.633,76.681a66.927,66.927,0,0,0-4.09-8.665,6.766,6.766,0,0,0-4.888-3.286,149.9,149.9,0,0,0-23.4,0,6.767,6.767,0,0,0-4.888,3.286,68.1,68.1,0,0,0-4.106,8.665A263.817,263.817,0,0,0,96.633,76.681Z" transform="translate(-49.333 -6.948)" fill="#168de2"/>
    <path id="Path_969" data-name="Path 969" d="M375.015,215.208a7.6,7.6,0,0,0-1.424.626,17.506,17.506,0,0,1-2.309,1.106c-1.324.5-1.549,1.253-1.549,1.253-.04.052-.078.1-.115.156a2.117,2.117,0,0,0,2.1,3.226,25.574,25.574,0,0,0,5.778-1.544,2.071,2.071,0,0,0,1.258-1.411c.015-.062.028-.123.04-.183A2.908,2.908,0,0,0,375.015,215.208Z" transform="translate(-329.671 -141.576)" fill="#fff"/>
    <path id="Path_970" data-name="Path 970" d="M420.618,327.857h-2.867a.485.485,0,0,0-.343.827l2.867,2.867a.485.485,0,0,0,.827-.343v-2.867A.484.484,0,0,0,420.618,327.857Z" transform="translate(-372.519 -242.267)" fill="#ffe21f"/>
    <path id="Path_971" data-name="Path 971" d="M417.615,333.122a1.21,1.21,0,0,1-1.2,1.073H410.9v3.2a2.053,2.053,0,0,0,2.053,2.053h3.464a2.053,2.053,0,0,0,2.053-2.053V327.375C418.239,328.763,417.8,331.536,417.615,333.122Z" transform="translate(-366.834 -241.836)" fill="#454545"/>
    <path id="Path_972" data-name="Path 972" d="M451.533,148.667a1.653,1.653,0,0,0-1.631-1.251h-1.384a1.605,1.605,0,0,0-1.606,1.606v.987h-.734l.421,1h1.614a5.815,5.815,0,0,0,2.421-.527A1.6,1.6,0,0,0,451.533,148.667Z" transform="translate(-398.332 -81.176)" fill="#ed6262"/>
    <circle id="Ellipse_407" data-name="Ellipse 407" cx="2.018" cy="2.018" r="2.018" transform="translate(44.235 74.2)" fill="#ffbd49"/>
    <circle id="Ellipse_408" data-name="Ellipse 408" cx="1.482" cy="1.482" r="1.482" transform="translate(40.711 76.328)" fill="#ffdb6f"/>
    <path id="Path_973" data-name="Path 973" d="M162.3,255.324l-2.318,4.036H141.157l-2.318-4.036Z" transform="translate(-123.951 -177.512)" fill="#6f6f6f"/>
    <path id="Path_974" data-name="Path 974" d="M47.168,218.345c-.035-.053-.073-.1-.115-.156,0,0-.225-.75-1.549-1.253a17.6,17.6,0,0,1-2.309-1.106,7.646,7.646,0,0,0-1.424-.626,2.91,2.91,0,0,0-3.777,3.229c.012.062.025.121.038.183a2.071,2.071,0,0,0,1.258,1.411,25.568,25.568,0,0,0,5.78,1.544A2.118,2.118,0,0,0,47.168,218.345Z" transform="translate(-33.876 -141.571)" fill="#fff"/>
    <path id="Path_975" data-name="Path 975" d="M46.787,327.857H43.92a.484.484,0,0,0-.484.484v2.867a.485.485,0,0,0,.827.343l2.867-2.867A.485.485,0,0,0,46.787,327.857Z" transform="translate(-38.778 -242.267)" fill="#ffe21f"/>
    <path id="Path_976" data-name="Path 976" d="M65.455,332.855c-2.985-5.164-6.417-5-6.417-5H33.7s-3.431-.161-6.417,5H22.119l.063.666a1.21,1.21,0,0,0,1.206,1.1H69.346a1.21,1.21,0,0,0,1.206-1.1l.063-.666Z" transform="translate(-19.747 -242.262)" fill="#777"/>
    <path id="Path_977" data-name="Path 977" d="M17.037,334.212a1.211,1.211,0,0,1-1.2-1.073c-.181-1.586-.626-4.361-.852-5.747v10.021a2.053,2.053,0,0,0,2.053,2.053H20.5a2.053,2.053,0,0,0,2.053-2.053v-3.2H17.037Z" transform="translate(-13.376 -241.852)" fill="#454545"/>
    <path id="Path_978" data-name="Path 978" d="M4.658,150.008v-.987a1.605,1.605,0,0,0-1.6-1.606H1.669a1.654,1.654,0,0,0-1.631,1.251,1.6,1.6,0,0,0,.9,1.812,5.819,5.819,0,0,0,2.421.527H4.972l.421-1H4.658v0Z" transform="translate(0 -81.176)" fill="#ed6262"/>
    <circle id="Ellipse_409" data-name="Ellipse 409" cx="2.018" cy="2.018" r="2.018" transform="translate(4.967 74.2)" fill="#ffbd49"/>
    <circle id="Ellipse_410" data-name="Ellipse 410" cx="1.482" cy="1.482" r="1.482" transform="translate(9.566 76.328)" fill="#ffdb6f"/>
    <g id="Group_1686" data-name="Group 1686" transform="translate(15.283 87.003)">
      <path id="Path_979" data-name="Path 979" d="M164.583,341.029h-21.46a.607.607,0,0,0,0,1.215h21.458a.607.607,0,0,0,0-1.215Z" transform="translate(-142.516 -341.029)" fill="#6f6f6f"/>
      <path id="Path_980" data-name="Path 980" d="M164.583,363.635h-21.46a.607.607,0,1,0,0,1.215h21.458a.607.607,0,0,0,0-1.215Z" transform="translate(-142.516 -361.211)" fill="#6f6f6f"/>
    </g>
    <path id="Path_981" data-name="Path 981" d="M94.371,88.628v.208a1.47,1.47,0,0,1-1.541,1.472,1.537,1.537,0,0,1-1.389-1.557V85.767a1.232,1.232,0,0,0-1.289-1.221H90.1a1.234,1.234,0,0,0-1.289,1.221v2.7a1.47,1.47,0,0,1-1.557,1.456,1.521,1.521,0,0,1-1.389-1.541V86.035a1.3,1.3,0,0,0-1.306-1.289h-.1a1.229,1.229,0,0,0-1.223,1.223v3.053a1.485,1.485,0,0,1-1.557,1.472,1.523,1.523,0,0,1-1.373-1.557V84.843a1.167,1.167,0,0,0-1.24-1.155h-.1a1.231,1.231,0,0,0-1.238,1.223V89.1a1.464,1.464,0,0,1-2.928.05V85.634a1.538,1.538,0,0,0-1.389-1.557,1.471,1.471,0,0,0-1.541,1.472l-.017,3.244a1.47,1.47,0,0,1-1.541,1.472,1.525,1.525,0,0,1-1.381-1.5V84.963a1.525,1.525,0,0,0-1.384-1.544A1.473,1.473,0,0,0,66,84.888v3.988a1.481,1.481,0,0,1-1.549,1.434,1.523,1.523,0,0,1-1.373-1.557V85.767a1.246,1.246,0,0,0-1.306-1.221h-.033a1.238,1.238,0,0,0-1.306,1.221v2.7A1.456,1.456,0,0,1,58.9,89.923a1.489,1.489,0,0,1-1.364-1.343c-.774,1.6-1.541,3.338-2.286,5.191a263.4,263.4,0,0,0,41.374,0Q95.506,90.984,94.371,88.628Z" transform="translate(-49.321 -24.04)" fill="#3aa2eb"/>
  </g>
</svg>
