<svg id="cinema" xmlns="http://www.w3.org/2000/svg" width="44.019" height="44.019" viewBox="0 0 44.019 44.019">
  <rect id="Rectangle_450" data-name="Rectangle 450" width="42.423" height="20.033" transform="translate(0.85 0.85)" fill="#7fcccb"/>
  <path id="Path_870" data-name="Path 870" d="M50.551,27.808H8l17.9-2.641A34.015,34.015,0,0,0,50.551,8h0Z" transform="translate(-7.266 -7.266)" fill="#2bb3ce"/>
  <g id="Group_1666" data-name="Group 1666" transform="translate(0.734 0.734)">
    <path id="Path_871" data-name="Path 871" d="M362.935,29.276h0a7.876,7.876,0,0,1,5.722-6.529l.147-.073h0a15.407,15.407,0,0,1-8.437-11.812L360,8h10.271V29.276Z" transform="translate(-327.72 -8)" fill="#dd1c4b"/>
    <path id="Path_872" data-name="Path 872" d="M15.336,29.276h0a7.876,7.876,0,0,0-5.722-6.529l-.147-.073h0A15.407,15.407,0,0,0,17.9,10.861L18.271,8H8V29.276Z" transform="translate(-8 -8)" fill="#dd1c4b"/>
  </g>
  <g id="Group_1667" data-name="Group 1667" transform="translate(0.734 0.734)">
    <path id="Path_873" data-name="Path 873" d="M8,8V29.276h3.668a7.509,7.509,0,0,0-2.861-5.943L8,22.673H8a17.842,17.842,0,0,0,6.089-11.078L14.6,8Z" transform="translate(-8 -8)" fill="#e3472c"/>
    <path id="Path_874" data-name="Path 874" d="M406.6,8V29.276h-3.668a7.509,7.509,0,0,1,2.861-5.943l.807-.66h0a17.842,17.842,0,0,1-6.089-11.078L400,8Z" transform="translate(-364.051 -8)" fill="#e3472c"/>
  </g>
  <path id="Path_875" data-name="Path 875" d="M50.258,284.105a.9.9,0,0,0-.734-.367H46.883v-4.622a1.281,1.281,0,0,0-.293-.88.9.9,0,0,0-.734-.367H43.215v-4.622a1.281,1.281,0,0,0-.293-.88.9.9,0,0,0-.734-.367H37.639a.9.9,0,0,0-.734.367,1.281,1.281,0,0,0-.293.88,1.354,1.354,0,0,0-.367-.88,1.178,1.178,0,0,0-.807-.367H30.376a1.178,1.178,0,0,0-.807.367.634.634,0,0,0-.22.44.93.93,0,0,0-.073.44,1.354,1.354,0,0,0-.367-.88A1.178,1.178,0,0,0,28.1,272H23.04a1.178,1.178,0,0,0-.807.367.634.634,0,0,0-.22.44.93.93,0,0,0-.073.44,1.281,1.281,0,0,0-.293-.88.9.9,0,0,0-.734-.367H16.364a.9.9,0,0,0-.734.367,1.281,1.281,0,0,0-.293.88v4.622H12.7a.9.9,0,0,0-.734.367,1.281,1.281,0,0,0-.293.88v4.622H9.027a.9.9,0,0,0-.734.367,1.281,1.281,0,0,0-.293.88v5.356H50.551v-5.356A1.281,1.281,0,0,0,50.258,284.105Zm-31.914-5.429a.931.931,0,0,0-.073.44,1.249,1.249,0,0,0-.073-.514l.147.073Zm7.19-.073h.22v.073a.539.539,0,0,0-.147.44C25.608,278.97,25.534,278.749,25.534,278.6Zm7.336,0h.22v.073a.539.539,0,0,0-.147.44C32.944,278.97,32.871,278.749,32.871,278.6Zm7.336,0h.22a.7.7,0,0,0-.147.514C40.28,278.97,40.207,278.749,40.207,278.6Zm-25.6,6.383a1.248,1.248,0,0,0-.073-.514h.22v.073A.539.539,0,0,0,14.6,284.985Zm7.336,0c0-.147-.073-.367-.073-.514h.22v.073A.539.539,0,0,0,21.939,284.985Zm7.336,0c0-.147-.073-.367-.073-.514h.22v.073A.539.539,0,0,0,29.276,284.985Zm7.336,0c0-.147-.073-.367-.073-.514h.22v.073A.539.539,0,0,0,36.612,284.985Zm7.263-.514h.22a.7.7,0,0,0-.147.514C43.949,284.839,43.875,284.619,43.875,284.472Z" transform="translate(-7.266 -247.056)" fill="#dd1c4b"/>
  <path id="Path_876" data-name="Path 876" d="M.734,22.743H8.07a.693.693,0,0,0,.734-.734v-.073a2.142,2.142,0,0,0-.147-.66h26.7c-.073.22-.073.44-.147.66a.687.687,0,0,0,.587.807h7.41a.693.693,0,0,0,.734-.734V0H.734A.693.693,0,0,0,0,.734V22.009A.693.693,0,0,0,.734,22.743Zm4.329-1.467a8.673,8.673,0,0,0-2.054-4.842A7.283,7.283,0,0,1,7.19,21.276Zm33.894,0H36.9a7.447,7.447,0,0,1,4.182-4.842,8.287,8.287,0,0,0-2.128,4.842Zm3.595,0H40.424a6.968,6.968,0,0,1,2.128-4.329Zm0-19.808V13.719A17.232,17.232,0,0,1,37.93,4.255l-.367-2.788h4.989Zm-6.529,0,.44,2.935a18.693,18.693,0,0,0,4.4,9.611,14.848,14.848,0,0,1-6.75-10.491l-.293-2.054Zm-24.357,0H32.354l.293,2.274a16.415,16.415,0,0,0,7.41,11.592A8.873,8.873,0,0,0,35.8,19.882H8.217a8.873,8.873,0,0,0-4.255-4.549,16.415,16.415,0,0,0,7.41-11.592ZM7.557,4.4,8,1.467h2.2L9.9,3.522a14.7,14.7,0,0,1-6.75,10.491A18.693,18.693,0,0,0,7.557,4.4ZM1.467,1.467H6.456L6.089,4.182a17.443,17.443,0,0,1-4.622,9.537Zm0,15.48a6.454,6.454,0,0,1,2.128,4.329H1.467Z"/>
  <path id="Path_877" data-name="Path 877" d="M44.019,283.075v-5.356a2.048,2.048,0,0,0-.44-1.321,1.783,1.783,0,0,0-1.321-.66H40.351V271.85a2.048,2.048,0,0,0-.44-1.321,1.783,1.783,0,0,0-1.321-.66H36.682v-3.888a2.048,2.048,0,0,0-.44-1.321,1.783,1.783,0,0,0-1.321-.66H30.373a1.753,1.753,0,0,0-1.027.367,1.977,1.977,0,0,0-1.1-.367H23.183a1.8,1.8,0,0,0-1.174.44,1.618,1.618,0,0,0-1.1-.44H15.847a1.8,1.8,0,0,0-1.1.367A1.753,1.753,0,0,0,13.719,264H9.171a1.666,1.666,0,0,0-1.321.66,1.768,1.768,0,0,0-.514,1.321v3.888H5.429a1.666,1.666,0,0,0-1.321.66,2.048,2.048,0,0,0-.44,1.321v3.888H1.761a1.666,1.666,0,0,0-1.321.66A2.048,2.048,0,0,0,0,277.719v6.089H44.019ZM30.08,265.981a1.043,1.043,0,0,1,.147-.44c.073-.073.073-.073.147-.073h4.549a.256.256,0,0,1,.147.073,1.043,1.043,0,0,1,.147.44v3.888H34.041a1.753,1.753,0,0,0-1.027.367,1.977,1.977,0,0,0-1.1-.367H30.08Zm-7.336,0a.56.56,0,0,1,.147-.367.381.381,0,0,1,.293-.147h5.062a.509.509,0,0,1,.44.514v3.888H26.851a1.8,1.8,0,0,0-1.174.44,1.618,1.618,0,0,0-1.1-.44H22.743v-3.888Zm-7.336,0a.56.56,0,0,1,.147-.367.381.381,0,0,1,.293-.147h5.062a.509.509,0,0,1,.44.514v3.888H19.515a1.8,1.8,0,0,0-1.174.44,1.618,1.618,0,0,0-1.1-.44H15.407Zm-6.6,0a1.043,1.043,0,0,1,.147-.44c.073-.073.073-.073.147-.073h4.549a.256.256,0,0,1,.147.073,1.043,1.043,0,0,1,.147.44v3.888H12.179a1.8,1.8,0,0,0-1.1.367,1.753,1.753,0,0,0-1.027-.367H8.8Zm-2.2,16.36H1.467v-4.622a1.043,1.043,0,0,1,.147-.44.256.256,0,0,1,.147-.073H6.309a.256.256,0,0,1,.147.073,1.043,1.043,0,0,1,.147.44Zm-.293-6.6H5.136V271.85a1.043,1.043,0,0,1,.147-.44.256.256,0,0,1,.147-.073H9.978a.256.256,0,0,1,.147.073,1.043,1.043,0,0,1,.147.44v3.888H8.51a1.8,1.8,0,0,0-1.1.367,2.183,2.183,0,0,0-1.1-.367Zm7.63,6.6H8.07v-4.622a.56.56,0,0,1,.147-.367.381.381,0,0,1,.293-.147h5.062a.509.509,0,0,1,.44.514Zm-.44-6.6H11.738V271.85a.561.561,0,0,1,.147-.367.381.381,0,0,1,.293-.147h5.062a.509.509,0,0,1,.44.514v3.888H15.847a1.8,1.8,0,0,0-1.174.44,1.666,1.666,0,0,0-1.174-.44Zm7.777,6.6H15.407v-4.622a.56.56,0,0,1,.147-.367.381.381,0,0,1,.293-.147h5.062a.509.509,0,0,1,.44.514Zm-.44-6.6H19.075V271.85a.561.561,0,0,1,.147-.367.381.381,0,0,1,.293-.147h5.062a.509.509,0,0,1,.44.514v3.888H23.183a1.8,1.8,0,0,0-1.174.44,1.666,1.666,0,0,0-1.174-.44Zm7.777,6.6H22.743v-4.622a.56.56,0,0,1,.147-.367.381.381,0,0,1,.293-.147h5.062a.509.509,0,0,1,.44.514Zm-.44-6.6H26.411V271.85a.561.561,0,0,1,.147-.367.381.381,0,0,1,.293-.147h5.062a.509.509,0,0,1,.44.514v3.888H30.52a1.8,1.8,0,0,0-1.174.44,1.666,1.666,0,0,0-1.174-.44Zm7.777,6.6H30.08v-4.622a.56.56,0,0,1,.147-.367.381.381,0,0,1,.293-.147h5.062a.509.509,0,0,1,.44.514Zm-.44-6.6H33.748V271.85a1.043,1.043,0,0,1,.147-.44c.073-.073.073-.073.147-.073H38.59a.256.256,0,0,1,.147.073,1.043,1.043,0,0,1,.147.44v3.888H37.709a1.753,1.753,0,0,0-1.027.367,2.217,2.217,0,0,0-1.174-.367Zm7.043,6.6H37.416v-4.622a1.043,1.043,0,0,1,.147-.44c.073-.073.073-.073.147-.073h4.549a.256.256,0,0,1,.147.073,1.043,1.043,0,0,1,.147.44Z" transform="translate(0 -239.79)"/>
</svg>
