<svg xmlns="http://www.w3.org/2000/svg" width="52.975" height="35.62" viewBox="0 0 52.975 35.62">
  <g id="surface1" transform="translate(0 -0.371)">
    <path id="Path_988" data-name="Path 988" d="M0,200.69H1.827l2.466-5.548L0,194.3Zm0,0" transform="translate(0 -176.573)" fill="#c3c9d1"/>
    <path id="Path_989" data-name="Path 989" d="M50.642,173.14l-.315-.079A3.081,3.081,0,0,1,48.671,172L44.2,166.416a7.305,7.305,0,0,0-5.705-2.74H0v2.74l4.293.845,14.273,2.808,6.587,7.32a5.481,5.481,0,0,0,4.073,1.814H49.9a3.077,3.077,0,0,0,.746-6.063Zm0,0" transform="translate(0 -148.692)" fill="#dd381a"/>
    <path id="Path_990" data-name="Path 990" d="M285.785,20.785h1.826v9.133h-1.826Zm0,0" transform="translate(-260.212 -18.587)" fill="#a4b0bf"/>
    <path id="Path_991" data-name="Path 991" d="M220.573,117.211h-16.44l2.207-3.68a1.826,1.826,0,0,1,1.566-.887H216.8a1.826,1.826,0,0,1,1.566.887Zm0,0" transform="translate(-185.866 -102.227)" fill="#c43117"/>
    <path id="Path_992" data-name="Path 992" d="M5.48,89.33H0V82.023H2.74Zm0,0" transform="translate(0 -74.346)" fill="#d0d7df"/>
    <path id="Path_993" data-name="Path 993" d="M321.882,204.5l3.653,5.48h-5.48L316.4,204.5Zm0,0" transform="translate(-288.089 -185.866)" fill="#4394cc"/>
    <path id="Path_994" data-name="Path 994" d="M326.609,337.188h1.827v4.567h-1.827Zm0,0" transform="translate(-297.383 -306.677)" fill="#b7bdc4"/>
    <path id="Path_995" data-name="Path 995" d="M500.121,337.188h1.827v4.567h-1.827Zm0,0" transform="translate(-455.368 -306.677)" fill="#b7bdc4"/>
    <path id="Path_996" data-name="Path 996" d="M290.789,366.394H270.214a4.2,4.2,0,0,1-3.773-2.332l1.635-.817a2.373,2.373,0,0,0,2.138,1.321h20.575a2.373,2.373,0,0,0,2.138-1.321l1.635.817A4.2,4.2,0,0,1,290.789,366.394Zm0,0" transform="translate(-242.599 -330.403)" fill="#b7bdc4"/>
    <path id="Path_997" data-name="Path 997" d="M431.987,209.87l7.936.074a3.059,3.059,0,0,1-.935-.771l-3.735-4.669h-6.576Zm0,0" transform="translate(-390.316 -185.866)" fill="#4394cc"/>
    <path id="Path_998" data-name="Path 998" d="M326.609,337.188h1.827v1.827h-1.827Zm0,0" transform="translate(-297.383 -306.677)" fill="#a4b0bf"/>
    <path id="Path_999" data-name="Path 999" d="M500.121,337.188h1.827v1.827h-1.827Zm0,0" transform="translate(-455.368 -306.677)" fill="#a4b0bf"/>
    <path id="Path_1000" data-name="Path 1000" d="M23.193,4.025H1.827a1.827,1.827,0,1,1,0-3.653H23.193a1.831,1.831,0,0,1,1.014.307L26.486,2.2,24.2,3.718A1.826,1.826,0,0,1,23.193,4.025Zm0,0" transform="translate(0 0)" fill="#b7bdc4"/>
    <path id="Path_1001" data-name="Path 1001" d="M299.281.371h21.366a1.827,1.827,0,0,1,0,3.653H299.281a1.83,1.83,0,0,1-1.014-.307l-2.28-1.52,2.284-1.52A1.834,1.834,0,0,1,299.281.371Zm0,0" transform="translate(-269.502 0)" fill="#b7bdc4"/>
    <path id="Path_1002" data-name="Path 1002" d="M446.339,225.924l-6.816-3.834,2.34,3.792Zm0,0" transform="translate(-400.193 -201.879)" fill="#3e89bd"/>
    <path id="Path_1003" data-name="Path 1003" d="M339.1,233.217l-5.683-3.2,2.131,3.2Zm0,0" transform="translate(-303.582 -209.099)" fill="#3e89bd"/>
  </g>
</svg>
