<svg xmlns="http://www.w3.org/2000/svg" width="50.241" height="47.6" viewBox="0 0 50.241 47.6">
  <g id="wedding-couple" transform="translate(0 -13.455)">
    <path id="Path_878" data-name="Path 878" d="M348.951,320.327l-.753-.151a1.144,1.144,0,0,1-.919-1.122v-1.085h-4.925v1.112a1.144,1.144,0,0,1-.919,1.122l-.617.124v4.142h8.133v-4.142Z" transform="translate(-307.374 -274.633)" fill="#fed9a8"/>
    <path id="Path_879" data-name="Path 879" d="M384.84,317.969v2.021a1.144,1.144,0,0,0,.919,1.122l2.894.576v-1.361l-.753-.151a1.144,1.144,0,0,1-.919-1.122v-1.085Z" transform="translate(-347.077 -274.633)" fill="#f4c892"/>
    <path id="Path_880" data-name="Path 880" d="M269.312,342l-2.234.587a7.21,7.21,0,0,1-3.664,0L261.181,342l-4.8,1.415a5.38,5.38,0,0,0-3.861,5.161v8.78h25.462v-8.78a5.38,5.38,0,0,0-3.861-5.161Z" transform="translate(-227.736 -296.306)" fill="#4d4a5b"/>
    <path id="Path_881" data-name="Path 881" d="M402.6,343.416l-4.8-1.415-2.818.74,2.29.674a5.38,5.38,0,0,1,3.861,5.161v8.78h5.332v-8.78A5.38,5.38,0,0,0,402.6,343.416Z" transform="translate(-356.215 -296.307)" fill="#444251"/>
    <path id="Path_882" data-name="Path 882" d="M23.774,151.477c-3.884-9.229-10.531-8.721-10.649-8.711-.118-.01-6.765-.518-10.649,8.711A31.967,31.967,0,0,0,0,161.807,1.67,1.67,0,0,0,1.165,163.5l11.961,3.788L25.087,163.5a1.67,1.67,0,0,0,1.162-1.689A31.97,31.97,0,0,0,23.774,151.477Z" transform="translate(0 -116.615)" fill="#d4fff8"/>
    <path id="Path_883" data-name="Path 883" d="M122.413,161.807a31.967,31.967,0,0,0-2.474-10.33c-3.884-9.229-10.531-8.721-10.649-8.711a7.547,7.547,0,0,0-2.662.4c2.313.733,5.65,2.76,7.986,8.312a31.97,31.97,0,0,1,2.474,10.33,1.67,1.67,0,0,1-1.162,1.689l-9.3,2.945,2.662.843,11.961-3.788A1.67,1.67,0,0,0,122.413,161.807Z" transform="translate(-96.165 -116.615)" fill="#c6f4eb"/>
    <path id="Path_884" data-name="Path 884" d="M34.778,332.219l-4.4-1.295h0l-.689-.139a1.047,1.047,0,0,1-.841-1.027v-.993H24.342v1.018a1.047,1.047,0,0,1-.841,1.027l-.564.113h0l-4.4,1.295a4.925,4.925,0,0,0-3.534,4.724v8.482H38.312v-8.482A4.925,4.925,0,0,0,34.778,332.219Z" transform="translate(-13.533 -284.371)" fill="#fed9a8"/>
    <path id="Path_885" data-name="Path 885" d="M141.879,332.219l-4.4-1.295h0l-.689-.139a1.047,1.047,0,0,1-.841-1.027v-.993H133.76v1.208a1.9,1.9,0,0,0,1.365,1.824l1.431.421a4.925,4.925,0,0,1,3.534,4.724v8.482h5.323v-8.482A4.925,4.925,0,0,0,141.879,332.219Z" transform="translate(-120.634 -284.371)" fill="#f4c892"/>
    <circle id="Ellipse_406" data-name="Ellipse 406" cx="2.847" cy="2.847" r="2.847" transform="translate(10.279 25.094)" fill="#ff901d"/>
    <g id="Group_1668" data-name="Group 1668" transform="translate(4.423 36.37)">
      <path id="Path_886" data-name="Path 886" d="M199.283,250.285h-1.342v-3.3h1.342a1.063,1.063,0,0,1,1.063,1.063v1.178A1.063,1.063,0,0,1,199.283,250.285Z" transform="translate(-182.941 -246.981)" fill="#f4cfa6"/>
      <path id="Path_887" data-name="Path 887" d="M46.137,250.285h1.342v-3.3H46.137a1.063,1.063,0,0,0-1.063,1.063v1.178A1.063,1.063,0,0,0,46.137,250.285Z" transform="translate(-45.074 -246.981)" fill="#f4cfa6"/>
    </g>
    <path id="Path_888" data-name="Path 888" d="M72.631,194.412h0a6.651,6.651,0,0,1-6.651-6.651v-1.869a6.651,6.651,0,0,1,6.651-6.651h0a6.651,6.651,0,0,1,6.651,6.651v1.869A6.651,6.651,0,0,1,72.631,194.412Z" transform="translate(-59.505 -149.518)" fill="#fed9a8"/>
    <path id="Path_889" data-name="Path 889" d="M136.7,185.765v9.084a6.641,6.641,0,0,1-2.836,5.447,6.651,6.651,0,0,0,6.641-6.651v-1.869A6.65,6.65,0,0,0,136.7,185.765Z" transform="translate(-120.727 -155.402)" fill="#f4cfa2"/>
    <path id="Path_890" data-name="Path 890" d="M69.682,170.249v-.1a7.823,7.823,0,0,0-7.823-7.823h0a7.823,7.823,0,0,0-7.823,7.823v.1a.383.383,0,0,0,.383.383h1.006a.675.675,0,0,0,.618-.4l.56-2.1a1.029,1.029,0,0,1,1.659-.521c1.456,1.23,4.012,3.025,6.524,3.025H69.3A.383.383,0,0,0,69.682,170.249Z" transform="translate(-48.733 -134.262)" fill="#ff901d"/>
    <path id="Path_891" data-name="Path 891" d="M110.863,162.325h0a7.81,7.81,0,0,0-2.491.408,7.441,7.441,0,0,1,5.012,7.032v.851c.136.01.271.016.406.016H118.3a.383.383,0,0,0,.383-.383v-.1A7.823,7.823,0,0,0,110.863,162.325Z" transform="translate(-97.738 -134.262)" fill="#ff6d3a"/>
    <path id="Path_892" data-name="Path 892" d="M67.874,395.969a1.021,1.021,0,0,0-.2-.609,4.368,4.368,0,0,0-6.87-.194,1.263,1.263,0,0,1-1.948,0,4.368,4.368,0,0,0-6.87.194,1.021,1.021,0,0,0-.2.609v7.92H67.874v-7.92Z" transform="translate(-46.705 -342.835)" fill="#fffcfd"/>
    <path id="Path_893" data-name="Path 893" d="M156.957,395.361a4.367,4.367,0,0,0-6.174-.863,4.4,4.4,0,0,1,.849.863,1.021,1.021,0,0,1,.2.609v7.92h5.325v-7.92A1.021,1.021,0,0,0,156.957,395.361Z" transform="translate(-135.987 -342.835)" fill="#f2f2f2"/>
    <g id="Group_1669" data-name="Group 1669" transform="translate(28.352 52.255)">
      <path id="Path_894" data-name="Path 894" d="M290.451,417.658v-8.036a.759.759,0,0,0-1.518,0v8.036h1.518Z" transform="translate(-288.933 -408.863)" fill="#3a3847"/>
      <path id="Path_895" data-name="Path 895" d="M460.5,417.658v-8.036a.759.759,0,0,0-1.518,0v8.036H460.5Z" transform="translate(-442.299 -408.863)" fill="#3a3847"/>
    </g>
    <g id="Group_1670" data-name="Group 1670" transform="translate(28.538 35.181)">
      <path id="Path_896" data-name="Path 896" d="M448.894,238.271h-1.48v-3.412h1.48a1.1,1.1,0,0,1,1.1,1.1v1.217A1.1,1.1,0,0,1,448.894,238.271Z" transform="translate(-432.049 -234.859)" fill="#f4cfa6"/>
      <path id="Path_897" data-name="Path 897" d="M291.926,238.271h1.48v-3.412h-1.48a1.1,1.1,0,0,0-1.1,1.1v1.217A1.1,1.1,0,0,0,291.926,238.271Z" transform="translate(-290.828 -234.859)" fill="#f4cfa6"/>
    </g>
    <path id="Path_898" data-name="Path 898" d="M319.12,180.563h0a6.869,6.869,0,0,1-6.869-6.869v-1.931a6.869,6.869,0,0,1,6.869-6.869h0a6.869,6.869,0,0,1,6.869,6.869v1.931A6.869,6.869,0,0,1,319.12,180.563Z" transform="translate(-281.611 -136.579)" fill="#ffdfb8"/>
    <path id="Path_899" data-name="Path 899" d="M387.5,172.25v9.5a6.641,6.641,0,0,1-2.828,5.441,6.868,6.868,0,0,0,6.632-6.863V178.4A6.868,6.868,0,0,0,387.5,172.25Z" transform="translate(-346.925 -143.213)" fill="#f4cfa2"/>
    <path id="Path_900" data-name="Path 900" d="M190.291,13.455a4.19,4.19,0,0,0-3.308,1.613,4.2,4.2,0,0,0-7.505,2.585c0,5.274,7.505,8.211,7.505,8.211s7.505-2.937,7.505-8.211A4.2,4.2,0,0,0,190.291,13.455Z" transform="translate(-161.866)" fill="#ff6991"/>
    <path id="Path_901" data-name="Path 901" d="M260.138,13.455a4.177,4.177,0,0,0-2.569.879,4.192,4.192,0,0,1,.886.64l.053.05.045.044a3.067,3.067,0,0,1,.247.272,4.2,4.2,0,0,1,.578.912c1.656,3.55-.985,7.682-2.453,9.573.863-.359,7.411-3.246,7.411-8.172A4.2,4.2,0,0,0,260.138,13.455Z" transform="translate(-231.714)" fill="#ff507e"/>
    <path id="Path_902" data-name="Path 902" d="M321.624,342l-2.054,3.627a.268.268,0,0,0,.021.3l6.1,9.447Z" transform="translate(-288.18 -296.306)" fill="#666277"/>
    <path id="Path_903" data-name="Path 903" d="M313.111,153.941h.506a1.093,1.093,0,0,1,.451.1v-1.746a7.156,7.156,0,0,0-7.156-7.156h-2.338a7.156,7.156,0,0,0-7.156,7.156v1.746a1.093,1.093,0,0,1,.451-.1h1a6.854,6.854,0,0,1,.424-2.377c3.038-.861,6.125,1.488,9.482,1.488a6.93,6.93,0,0,0,3.6-.834h.018a6.882,6.882,0,0,1,.219,1.723Z" transform="translate(-268.233 -118.76)" fill="#ff901d"/>
    <path id="Path_904" data-name="Path 904" d="M365.159,153.941h.506a1.093,1.093,0,0,1,.451.1v-1.746a7.156,7.156,0,0,0-7.156-7.156h-2.338a7.18,7.18,0,0,0-1.493.157,7.158,7.158,0,0,1,5.663,7v.758h.035a6.93,6.93,0,0,0,3.6-.834h.018a6.879,6.879,0,0,1,.219,1.723Z" transform="translate(-320.282 -118.76)" fill="#ff6d3a"/>
    <path id="Path_905" data-name="Path 905" d="M348.956,342l-2.245.59a7.165,7.165,0,0,1-3.641,0l-2.245-.59,4.066,13.37Z" transform="translate(-307.381 -296.306)" fill="#fffcfd"/>
    <path id="Path_906" data-name="Path 906" d="M371.174,387.395h-1.565l-.506,3.654,1.291,3.772,1.291-3.772Z" transform="translate(-332.884 -337.246)" fill="#f33a3a"/>
    <path id="Path_907" data-name="Path 907" d="M366.833,370.1l-1.678.8.821,1.422h1.715l.821-1.422Z" transform="translate(-329.323 -321.652)" fill="#e25959"/>
    <path id="Path_908" data-name="Path 908" d="M386.323,342l2.054,3.627a.268.268,0,0,1-.021.3l-6.1,9.447Z" transform="translate(-344.747 -296.306)" fill="#666277"/>
    <path id="Path_909" data-name="Path 909" d="M370.285,387.395H368.72l-.6,4.353,1.387,4.563,1.388-4.564Z" transform="translate(-331.995 -337.246)" fill="#f33a3a"/>
    <path id="Path_910" data-name="Path 910" d="M366.833,362.625l-1.678,1.532.821,1.422h1.715l.821-1.422Z" transform="translate(-329.323 -314.907)" fill="#e25959"/>
    <g id="Group_1671" data-name="Group 1671" transform="translate(9.804 37.131)">
      <path id="Path_911" data-name="Path 911" d="M100.36,256.5a.456.456,0,0,1-.456-.455v-.849a.456.456,0,1,1,.911,0v.849A.456.456,0,0,1,100.36,256.5Z" transform="translate(-99.904 -254.735)" fill="#4d4a5b"/>
      <path id="Path_912" data-name="Path 912" d="M158.786,256.5a.456.456,0,0,1-.455-.455v-.849a.456.456,0,1,1,.911,0v.849A.456.456,0,0,1,158.786,256.5Z" transform="translate(-152.598 -254.735)" fill="#4d4a5b"/>
    </g>
    <path id="Path_913" data-name="Path 913" d="M115.052,298.073a2.372,2.372,0,0,1-1.95-.9.456.456,0,0,1,.74-.532,1.67,1.67,0,0,0,2.42,0,.457.457,0,0,1,.37-.19.456.456,0,0,1,.369.722A2.373,2.373,0,0,1,115.052,298.073Z" transform="translate(-101.926 -255.228)" fill="#ff9faf"/>
    <g id="Group_1672" data-name="Group 1672" transform="translate(34.094 35.982)">
      <path id="Path_914" data-name="Path 914" d="M347.9,244.809a.456.456,0,0,1-.456-.456v-.877a.456.456,0,1,1,.911,0v.877A.456.456,0,0,1,347.9,244.809Z" transform="translate(-347.442 -243.021)" fill="#4d4a5b"/>
      <path id="Path_915" data-name="Path 915" d="M408.243,244.809a.456.456,0,0,1-.456-.456v-.877a.456.456,0,1,1,.911,0v.877A.456.456,0,0,1,408.243,244.809Z" transform="translate(-401.866 -243.021)" fill="#4d4a5b"/>
    </g>
    <path id="Path_916" data-name="Path 916" d="M363.074,287.751a2.435,2.435,0,0,1-2-.922.456.456,0,1,1,.74-.532,1.739,1.739,0,0,0,2.524,0,.457.457,0,0,1,.37-.19.456.456,0,0,1,.369.722A2.436,2.436,0,0,1,363.074,287.751Z" transform="translate(-325.564 -245.898)" fill="#c699a2"/>
  </g>
</svg>
