<svg xmlns="http://www.w3.org/2000/svg" width="129.86" height="147.112" viewBox="0 0 129.86 147.112">
  <g id="Group_1820" data-name="Group 1820" transform="matrix(0.978, 0.208, -0.208, 0.978, -1139.133, -1413.112)">
    <g id="Group_1703" data-name="Group 1703" transform="matrix(-0.978, 0.208, -0.208, -0.978, 1565.651, 1262.291)">
      <g id="Group_495" data-name="Group 495" transform="translate(0 0)">
        <rect id="Rectangle_221" data-name="Rectangle 221" width="0.471" height="53.609" transform="translate(68.864 0) rotate(17.427)" fill="#feb937"/>
        <path id="Path_605" data-name="Path 605" d="M51.342,3.886A23.906,23.906,0,0,1,50.734.02a6.492,6.492,0,0,1,2.793.473,5.966,5.966,0,0,1,2.426,1.166,16.6,16.6,0,0,1-2.73,2.829c6.6,3.915,27.237,29.784,17.424,61.033-6.823,21.732-27.682,34.536-46.594,28.6S-4.652,65.751,2.171,44.019C12.2,12.089,43.756,3.244,51.342,3.886Z" transform="translate(0 48.834)" fill="#feb937"/>
        <path id="Path_606" data-name="Path 606" d="M7.043,65.427S-4.007,51.065,1.575,33.282,18.95,6.581,28.278,0C28.278,0-.876,27.325,7.043,65.427Z" transform="translate(6.046 63.447)" fill="#fff"/>
      </g>
    </g>
    <g id="Group_1704" data-name="Group 1704" transform="translate(1427.866 1141.18)">
      <path id="Path_612" data-name="Path 612" d="M0,0H37.807V.471H0Z" transform="matrix(-0.159, -0.987, 0.987, -0.159, 50.399, 132.77)" fill="#00d6ad"/>
      <path id="Path_607" data-name="Path 607" d="M132.438,232.625a23.906,23.906,0,0,1,2.274,3.186,6.547,6.547,0,0,1-2.71.827,5.976,5.976,0,0,1-2.691.042,16.473,16.473,0,0,1,1.175-3.751c-7.659-.546-37.685-14.449-42.893-46.786-3.621-22.489,9.306-43.272,28.875-46.424s38.366,12.525,41.987,35.014C163.776,207.774,139.509,229.8,132.438,232.625Z" transform="translate(-86.986 -139.316)" fill="#fe6684"/>
      <path id="Path_608" data-name="Path 608" d="M91.44,144.753s16.309,7.9,19.272,26.3-3.591,31.653-8.989,41.712C101.723,212.766,115.57,175.285,91.44,144.753Z" transform="translate(-45.851 -136.666)" fill="#fff"/>
    </g>
  </g>
</svg>
